<mxfile host="app.diagrams.net" agent="Mozilla/5.0 (Windows NT 10.0; Win64; x64) AppleWebKit/537.36 (KHTML, like Gecko) Chrome/126.0.0.0 Safari/537.36" version="24.7.5">
  <diagram name="페이지-1" id="FPp-nrjz0tdVpAVcTy6P">
    <mxGraphModel dx="2876" dy="2235" grid="1" gridSize="10" guides="1" tooltips="1" connect="1" arrows="1" fold="1" page="1" pageScale="1" pageWidth="827" pageHeight="1169" math="0" shadow="0">
      <root>
        <mxCell id="0" />
        <mxCell id="1" parent="0" />
        <mxCell id="6MqGrB4b9lXM-VsAvl01-10" value="" style="rounded=0;whiteSpace=wrap;html=1;fillColor=none;" vertex="1" parent="1">
          <mxGeometry x="400" y="70" width="400" height="390" as="geometry" />
        </mxCell>
        <mxCell id="6MqGrB4b9lXM-VsAvl01-11" value="" style="rounded=0;whiteSpace=wrap;html=1;fillColor=none;" vertex="1" parent="1">
          <mxGeometry x="-40" y="70" width="420" height="390" as="geometry" />
        </mxCell>
        <mxCell id="6MqGrB4b9lXM-VsAvl01-1" value="MiRcsServer" style="rounded=0;whiteSpace=wrap;html=1;" vertex="1" parent="1">
          <mxGeometry x="70" y="190" width="150" height="110" as="geometry" />
        </mxCell>
        <mxCell id="6MqGrB4b9lXM-VsAvl01-5" style="edgeStyle=orthogonalEdgeStyle;rounded=0;orthogonalLoop=1;jettySize=auto;html=1;entryX=0;entryY=0.5;entryDx=0;entryDy=0;" edge="1" parent="1" source="6MqGrB4b9lXM-VsAvl01-2" target="6MqGrB4b9lXM-VsAvl01-3">
          <mxGeometry relative="1" as="geometry" />
        </mxCell>
        <mxCell id="6MqGrB4b9lXM-VsAvl01-6" style="edgeStyle=orthogonalEdgeStyle;rounded=0;orthogonalLoop=1;jettySize=auto;html=1;entryX=0;entryY=0.5;entryDx=0;entryDy=0;" edge="1" parent="1" source="6MqGrB4b9lXM-VsAvl01-2" target="6MqGrB4b9lXM-VsAvl01-4">
          <mxGeometry relative="1" as="geometry" />
        </mxCell>
        <mxCell id="6MqGrB4b9lXM-VsAvl01-2" value="MiRcsServer Agent" style="rounded=0;whiteSpace=wrap;html=1;" vertex="1" parent="1">
          <mxGeometry x="414" y="190" width="150" height="110" as="geometry" />
        </mxCell>
        <mxCell id="6MqGrB4b9lXM-VsAvl01-8" style="edgeStyle=orthogonalEdgeStyle;rounded=0;orthogonalLoop=1;jettySize=auto;html=1;entryX=0.5;entryY=0;entryDx=0;entryDy=0;dashed=1;startArrow=block;startFill=1;" edge="1" parent="1" source="6MqGrB4b9lXM-VsAvl01-3" target="6MqGrB4b9lXM-VsAvl01-1">
          <mxGeometry relative="1" as="geometry">
            <Array as="points">
              <mxPoint x="705" y="30" />
              <mxPoint x="145" y="30" />
            </Array>
          </mxGeometry>
        </mxCell>
        <mxCell id="6MqGrB4b9lXM-VsAvl01-17" style="edgeStyle=orthogonalEdgeStyle;rounded=0;orthogonalLoop=1;jettySize=auto;html=1;entryX=0;entryY=0.5;entryDx=0;entryDy=0;" edge="1" parent="1" source="6MqGrB4b9lXM-VsAvl01-3" target="6MqGrB4b9lXM-VsAvl01-16">
          <mxGeometry relative="1" as="geometry" />
        </mxCell>
        <mxCell id="6MqGrB4b9lXM-VsAvl01-3" value="MiRcsControl Server App" style="rounded=0;whiteSpace=wrap;html=1;" vertex="1" parent="1">
          <mxGeometry x="630" y="90" width="150" height="110" as="geometry" />
        </mxCell>
        <mxCell id="6MqGrB4b9lXM-VsAvl01-9" style="edgeStyle=orthogonalEdgeStyle;rounded=0;orthogonalLoop=1;jettySize=auto;html=1;entryX=0.5;entryY=1;entryDx=0;entryDy=0;dashed=1;startArrow=block;startFill=1;" edge="1" parent="1" source="6MqGrB4b9lXM-VsAvl01-4" target="6MqGrB4b9lXM-VsAvl01-1">
          <mxGeometry relative="1" as="geometry">
            <Array as="points">
              <mxPoint x="705" y="450" />
              <mxPoint x="145" y="450" />
            </Array>
          </mxGeometry>
        </mxCell>
        <mxCell id="6MqGrB4b9lXM-VsAvl01-28" style="edgeStyle=orthogonalEdgeStyle;rounded=0;orthogonalLoop=1;jettySize=auto;html=1;entryX=0;entryY=0.5;entryDx=0;entryDy=0;" edge="1" parent="1" source="6MqGrB4b9lXM-VsAvl01-4" target="6MqGrB4b9lXM-VsAvl01-23">
          <mxGeometry relative="1" as="geometry" />
        </mxCell>
        <mxCell id="6MqGrB4b9lXM-VsAvl01-29" style="edgeStyle=orthogonalEdgeStyle;rounded=0;orthogonalLoop=1;jettySize=auto;html=1;entryX=0.5;entryY=0;entryDx=0;entryDy=0;" edge="1" parent="1" source="6MqGrB4b9lXM-VsAvl01-4" target="6MqGrB4b9lXM-VsAvl01-24">
          <mxGeometry relative="1" as="geometry">
            <Array as="points">
              <mxPoint x="860" y="325" />
            </Array>
          </mxGeometry>
        </mxCell>
        <mxCell id="6MqGrB4b9lXM-VsAvl01-30" style="edgeStyle=orthogonalEdgeStyle;rounded=0;orthogonalLoop=1;jettySize=auto;html=1;entryX=0.5;entryY=0;entryDx=0;entryDy=0;" edge="1" parent="1" source="6MqGrB4b9lXM-VsAvl01-4" target="6MqGrB4b9lXM-VsAvl01-26">
          <mxGeometry relative="1" as="geometry">
            <Array as="points">
              <mxPoint x="820" y="325" />
              <mxPoint x="820" y="480" />
              <mxPoint x="620" y="480" />
            </Array>
          </mxGeometry>
        </mxCell>
        <mxCell id="6MqGrB4b9lXM-VsAvl01-4" value="MiRcsManager Server App" style="rounded=0;whiteSpace=wrap;html=1;" vertex="1" parent="1">
          <mxGeometry x="630" y="270" width="150" height="110" as="geometry" />
        </mxCell>
        <mxCell id="6MqGrB4b9lXM-VsAvl01-12" value="Window Service" style="text;html=1;align=center;verticalAlign=middle;whiteSpace=wrap;rounded=0;fontStyle=1;fontSize=15;" vertex="1" parent="1">
          <mxGeometry x="-40" y="40" width="120" height="30" as="geometry" />
        </mxCell>
        <mxCell id="6MqGrB4b9lXM-VsAvl01-13" value="Window Service" style="text;html=1;align=center;verticalAlign=middle;whiteSpace=wrap;rounded=0;fontStyle=1;fontSize=15;" vertex="1" parent="1">
          <mxGeometry x="400" y="40" width="120" height="30" as="geometry" />
        </mxCell>
        <mxCell id="6MqGrB4b9lXM-VsAvl01-14" value="Windows Named Pipe" style="text;html=1;align=center;verticalAlign=middle;whiteSpace=wrap;rounded=0;fontStyle=1;fontSize=15;" vertex="1" parent="1">
          <mxGeometry x="140" width="160" height="30" as="geometry" />
        </mxCell>
        <mxCell id="6MqGrB4b9lXM-VsAvl01-15" value="Windows Named Pipe" style="text;html=1;align=center;verticalAlign=middle;whiteSpace=wrap;rounded=0;fontStyle=1;fontSize=15;" vertex="1" parent="1">
          <mxGeometry x="140" y="460" width="160" height="30" as="geometry" />
        </mxCell>
        <mxCell id="6MqGrB4b9lXM-VsAvl01-19" style="edgeStyle=orthogonalEdgeStyle;rounded=0;orthogonalLoop=1;jettySize=auto;html=1;entryX=0;entryY=0.5;entryDx=0;entryDy=0;" edge="1" parent="1" source="6MqGrB4b9lXM-VsAvl01-16" target="6MqGrB4b9lXM-VsAvl01-18">
          <mxGeometry relative="1" as="geometry" />
        </mxCell>
        <mxCell id="6MqGrB4b9lXM-VsAvl01-21" style="edgeStyle=orthogonalEdgeStyle;rounded=0;orthogonalLoop=1;jettySize=auto;html=1;entryX=0;entryY=0.5;entryDx=0;entryDy=0;" edge="1" parent="1" source="6MqGrB4b9lXM-VsAvl01-16" target="6MqGrB4b9lXM-VsAvl01-20">
          <mxGeometry relative="1" as="geometry" />
        </mxCell>
        <mxCell id="6MqGrB4b9lXM-VsAvl01-16" value="" style="shape=image;verticalLabelPosition=bottom;labelBackgroundColor=default;verticalAlign=top;aspect=fixed;imageAspect=0;image=data:image/png,iVBORw0KGgoAAAANSUhEUgAAAFwAAAAwCAYAAACc2R15AAAAAXNSR0IArs4c6QAAAARnQU1BAACxjwv8YQUAAAAJcEhZcwAADsMAAA7DAcdvqGQAAAYfSURBVHhe7VtNTxtHGH53DdgEMB82lJRDK9ojpMqxDSWVSFNF/QFVTz31L/AzOPRaCeUM4lI1EYeqkdqICgqiJZCqQU3AtGr4MAYDBmyv6fvM7uBlveB12Q8H/MDDvDszOzvzzLvvzK6NcsKgGnyDaqQ1+ISa4D6jJrjPqAnuM5Th4eHaoukjlJGREVcEl5sdc2ploVA4ZT6fp0QiQfPz86L+dYEyPj7uuuDShrB2YmuaJgRfXl6mqakpampqEvWrDQcHB4blHpTFxUXXBJdCm0U+T+xcLkcLCws0OTlJ0WhUnFdtSKfThuUelN3dXVcFN1OKLG2IDUJscHZ2liYmJqi9vd1opbqQSqUMyz0o7G2eCy5pFjybzdLMzAyNjY1dK8HVUChEQVFVVVIU5Vqxtg/3GTXBfUZNcJ9RE9xn1AT3GYELbredvMp84zzcbqtVCYPGlQspi0tL9N2jR/TT06e08OyZSH+ZnqZIJGLUCBZXTvD+vj7a2dmhT4eG6FZ/Pw0ODNBWMknfP35s1AgWVy6GSxRMeSqHErxKMNcLilUheKUIh8PU3NxsHOmwvuJd39igSGMj/To3R5lMhu4ODholzmEVyw0GLzho07GL2NwSpXCkUbyPwXF9fQPdaGqh7ps3xUsyIKSqlNc0Wl1dpZ6eHmrkGG5tpyxl/1xk8IIXbAZahqFQneh8vLOTYrEYtbS2infsBaMtINbRQdmjI7o3dI/+fLGsn2NppyzRnsusgpBSEPG2EkIMNvhshbq636YCezJn6oNCmYFIQx199dYynWgn9N7WE/o69ntJWxcRfXObgQsuBmbyACfU2JuBzc0Nllyh/b00herrSStotPT8ObdZoB9+fEKd6h59Et+jD7ob6Nuf/6HFlde27Z1H6wS4Qde+6iZuQQvLfQAxzfvjhw8fUgff/k6Bh5dwOML76jDt7e1R363btPDbnPiYTv9IDA83uvc31Kv0Zdsf7OE52jkq0DtRom/+7UMzjrC9vW1Y7iFwwUdHRysWHItkb28vZXN5juNdtLmxbhTit/g0ieVT0fJCfuxYVlZe0dHhoShzAi8EDzykaGIyMDnO2dbeTo03muiYF8W/E6uUPT7WeXQs8iRzTExKjolFMxbvsm3vPKJvbjP4GK6dvQucUFFCdJg5oASLvbaWEKkktoK4e454AvLcdjq9Sw0cgraSm1RXV2fb3rlE31xm8ILbDbQMsdpnMoe2ZQgv6+uvKbWdpA2kqRStJVYoz14uFkKbc/yk8uGd+67EcB2I3YbJQBw3DJQYZZzi4nzQGW+jw8O02Es7BWJ4nOu/2/u+cSySC4HrqqpCr17+RRv8BOoUyWTSsNyD8tHAZx4LbhJapqeCt9L+/k7Fgl8Gp07gAJ4IfmfwgfMelEU5wdngX+yTERbisVZK7yYrEtxPeCH4G7lL8YvWHYYbVD6++7nJJy8Lew+X9lkWKNYR5d3DOsXj1enhW1seeDhiontUxbvnknz8CBvlZ79tpa/e9h4WPPWdhTPanV9KHj8L4AlZUNu8Yj4rLhbPUu+vDsr3H87IogvalRXJw+dxu0jgbB482Wzjr2FzWvnA/KN1AtwgRwD2Nk8JkZGGTvP0sIL1Gh4O0auT6FvltJ88SR47C+IJWVRLHh4+hB1i0ZGyi2PWeZNYlbR6pzOWTpyZPG7d47xjqGjzJJjLxKKJsFKlRN94I1ch5Xn29HQfDg+WMNsCRoYYHP+pSrKAnLhKdjTc+l7TiN9IBfV8iG7XqcqINryi3fUuR+X+gy+QugbEMTOKx3p801Mm711bmhvoReKlKP3/sN461Q2lp//2CWIpgA08vnogbflgIoFjxGEtr7GHchne73J9UY9tQOUFEYLqZcWIhVejYsE0XUvaAJ489V2MnofryGvLSUMZbJlKoC4+tUcqYa4LSBu0XhuQeSDq4hhayPqAtVz20ZwvU3P/zeXif3wkkIlK5oo4EZS2uAALp4owUWwoVIdQoQsv/n/HEFvWKTnmts4eF/uB9vBRnLSt9ZEnBwrI/sq6Mh8wl8l25fkSsi3ZNlJ5PXMZgPNh48MM1JXaAEhlnjyW353ReUL/AaOuYwMmZatAAAAAAElFTkSuQmCC;" vertex="1" parent="1">
          <mxGeometry x="850" y="90" width="92" height="48" as="geometry" />
        </mxCell>
        <mxCell id="6MqGrB4b9lXM-VsAvl01-18" value="" style="shape=image;verticalLabelPosition=bottom;labelBackgroundColor=default;verticalAlign=top;aspect=fixed;imageAspect=0;image=data:image/png,iVBORw0KGgoAAAANSUhEUgAAAeAAAAHECAYAAADh6fm1AAAAAXNSR0IArs4c6QAAAARnQU1BAACxjwv8YQUAAAAJcEhZcwAADsMAAA7DAcdvqGQAAGBfSURBVHhe7b0/jCNHnu/5q8Ytrh1h2rjd58hil1RYonEGd0HgNAc8Y45VkOg0Dcp4TtOSisJDdRpbBgezQAs7GA5QCyzVeFCVtA7bOUM0KIcSqngyFrjRYYhZGocGF5SqypKzb59RwjoNrFEvfpERychkZDKTTDL55/tpRFdmZPzPiPjFLyKYsec4zv0//MM/EAAAAABWxwP1FwAAAAAr5MH9/b26BAAAAMCqgAYMAAAAZMCDvb09dQkAAACAVQENGAAAAMgACOCt5Fv6eG+P9vY+FlcAAADWkRABrDtw1/zys2vX9uM9+tjXo7O7X5J67PLtx7Tnd6Twh7kX9CcJuPnlZzRxYk+TnSRuE3D9Gf3Smu5FiMrzfFx/9lt63fqR7u+/oPeXkuYwrumzXxpxrTRuAABYLtxH//M//7O6m4afsZu4WAQwC4TfUv7He9GBu+Y31JNC4f2nH9GXXxvC9foHoveIRj+qe8H1D6/pvfw76i7IR/SNCvP+myfkPDOEDQvuQLz3vxnRmYwuPE3TJHGbkP3n9If7P9DzfXW/KJF5Xown76pEpp3mJGQZNwAApMyf/vQn+j9++X9ahTDb8TN2Exv+EIePH1v3773Xuv9R3foIPPux9d79Ry1h95EQq67Nfeu99+5bVs/f3H9EH4n/NeY9X4f5E0SlKcgst/yciH97dU863cpP6yO2/+j+I/HXyxLjhRnMA+dXhWXa2+KYYkaeGTMcYSZBueloifIPPvtG5kEZW5p9aRN51u/Ly6PG8Kee6fKRdt985MXznhuAURbCzIpbmDj5AQCAdUII2Ps/+18fyr8am10cpjXg/TJ9SI5dC5PPvqKeUid/HD2hp8/fpSevf1Aa5o80+v4JaeUrkm+/pi8/ekrve9e/CdeUotIUJNKt0I7f+Yo+VBrnN/TBZEr9e4dGT9n+C/oioOlf976iJ795Tv7k8XTrO/TVhzzVK/z9mKcfpJeIOExm5TkQjhBe9PoDczr3S/EmXhnP3PXe97+4JzEwYrlP938IpjkQ5tMROd+rR7Mwyud9zvsPT90w7r+hJ84zka59ev6HH0kIdBLyeHbcMfMDAADrxF/91V/R//eH/9fThLXmy3b8LAmWKWi3I83/ltckg53gPr375Hs15fwtff06T++I7vjpEyWUr3+g11qoWvmSPtBrnV+LDvyLicvwaWsmKk1BItwGhB5Pqb/+QUuAj+ipTs77T+mjL79Wfq+p95UYaAQzdd0TAqNFr3Rg+8/pObuJjMNPZJ6DAlqE/6plTvd/RL/x4haDjvdeU0g0E4Jhvn8qBKa6nolRPlzGMrOMeP8fqcsolpEfAADIAFMIzyt8mZAvYbEQY03lKX3NwtJQ4bx1YF7//bAsXBK9k3c7UtYUKVKQqjVgoeG85wk4l+/NhWQr4Wmaxu6W16fpyw/cAQCbD76cxPseDyY0LFS+JKkEs6B9YhlU/Dii75+8K/NvEhlHgFl5tgnoMGEel+iBTgS+8hHI9Ws3jyKLsVhGfgAAYFOZ8TOk9+kLITC/od9OpgpZO3z9A33LwlbNNe+XP6TXQloJmSRkclAkWZDaz2v6QAtRn8Y5C0uaQvG73X/3Cb0ndwezcFbG0MJN9EBDTj9Pqb8CMeqwKY+x44iRZ5uA9jZXzYk/TF4yUJdJYOHLMxgqf9/E0YAFy8gPAACsGnPa2ZyOTsr0l7CuP6OPfZLtW/rap+G8Q3n6in5rKrv7vA78W/rtlzHXfwX7z38jBJAWou/TKQvkqSnjj93105lpMohyy6q6czaJ49vPwoW4HGh8TWe26WeGp0lfG+u7It7P+Dp2HDPyLAW0McgQ4T9zQtISl0CY/HMlrxj5HX4/Wd/3PQvg2+ku0vXbSSDGEkWAZeQHAABWTHDNN7gmnATLJqzndErPJlOoex8QfWP+lGSfhMJL39OHNFF2eR34e/o+cv03CAsgIavUT5H2n/+B7r+hyRoxG6FlSeVxZpoMotyKZ38w4/j6XXsYEs7Tl/T6w9OQPPE0twzMDesZUVmlNW4ckXkWsX7x44f01TvKXm5g4g1QiyDC5J9/qTCf0W+MNeDgsw8pTLHlwdMT5x03XSLfHxoO5cwBl8nU75mXkR8AAFgdYRuu5hXCOA94p/mWPt77mp7Knc0AAACiYOXhT3/6U+iGKxa+f/3Xfy2X5uIwYw0YbDNymjnRrAUAAOwuLFjDhC/Dz+IKXwYCeKdgjVdNAQvzzlcf0o8hm9AAAAAsFwjgncLdFa53L09/LAMAAMCqgAAGAAAAMgACGAAAAMiAkC9hAQAAAGCZQAMGAAAAMmD6S1gAAAAAWDryQxwvXrxQtwAAAABYBZiCBgAAADIAAhgAAADIAAhgAAAAIAMggAEAAIAMgAAGAAAAMgACGAAAAMgACGAAAAAgA/aOj4/vf//736vbaH7xi1+oq83g559/VlcAAADAehH7QxwsfH/66Sd1txn87ne/o2azqe4AAACA9SGWANbC96233lI2m8HXX39Nf/zjH+nzzz9XNrtFcAZg02Yw1gmU5WLsWvlh9g3EYScE8K9//Wtls1uYMwD6HYL5QFkuxq6VH2bfQBx2QgDvakMwZwA28f2tEyjLxdi18tv1vgfEA7ugAQAAgAxIRwDfntPho0f0SJnD81v1AAAAAAA2UhDAfXIKXaoM7+jujk2H8uMb9QyADYIHkofntNTh4yriAABsBClNQedpP6cuqUStVsm99GnGhyQVY9UBnTts51BfuhF/XR8CIdD1fRz/7C4JvjADYYeh4py705yKc850L6XjvqXzQ5GmdREKfccoJ2GcxCXlsrTyiiLFspyV/kWfh2H6W1UZcjzmO1+0faQRHgAr4MH9/b26nJcSlWttqnJF93WWrBmP6VRqxcIMK9Q9Vg1k0KBxme1bVMrV6VT472mv/R61a2URakz/0lNCik0a6nCluaK6N4BYEmacHaLqKjq2ONxeUpdq4l+XLjNO0O35IT2qEnWMd9Oh3uZ0nmmWpWgXV1d1Cq2Ws56nwSri0KTdPta1vQFgkIoGXGqpil7uuSNOFsS31zQiJZjZFBo0GIxJTk6LxnFiSM5SuUZtJYH7vRE1+WEC/+nAmrexfi1H0awZC63mmONuUIGfO44caZsauBQcOp2ztGmmVKaazotvtK5G6mo0P4kjkAYRgS/OBTqX28suUeWEyvkBdX1Swy0PHYc7trLY+dI/ybstfdFpviVOSnPoH1SVWup+Zjm5xk3n7HdmDW9BQsvSjIvrsbY7dMhhjVnYO32lPctr/VyUUVge9XN5GSzXeeus3Z/7yMjDzPJfkEXbx8sxu5qgw5vyJ7CFL/4P7QvEO5rkkd3FaO8AhPBgb29PXaZAqSUEcYdqbaW1mKNQaUI01tIJNUfsp0+9UYWO9JA7rv+kqIaqOw230ypRa9gkarwUqeAGzevarBnnqH7RpKJKy9XJwZQGnqtfTdLYyYsgvBZq5fb8jNrFA3rMDVh0yPmO63fYHFFVt25fHIE0HF3ScSPvaYqdvOqsEuMKvYoocB4EDbqXbmfL+T+UqqiXr1bJZsfpt8xSiA5rKn02OxmXgrXHgbmUYRKnnITpiIHcGb/LWe8sIry5CStLf1x3oo4Vpb1gMKKDC5Xu6jGRvpZ5MLDmUWEt13nrrMWfJGn5L8bC7cNLt8skPEGsehDRF5yKPOrpOjlbd7r82TOwtSyuAfPo0Oy8WHPlyp7bp7yo7DNkkSJHR5UR9ZwejSpH4o6tkvhPiGqostNgo6fZcnW64Eb4qEDdykV4wxL+fRq4HCErYV5tE42upzshkRct9AvdCg05TllWk7ByRxUqGoOXUC2fy0bODrgjdk9LTIqcMlUDHqklqKlTaR/Mo80uZJbClr44adadZJC45fT4YCLcgpjuosKbl9Cy9Mflo6jcc7rNa/nQICqPcetCMA1x6qwmjfKfRZrtg7GFx/amv6jww/oCfrfKTb/Xplo5KhEARLO4AM4dUWVUdRsyG94RfcGV3R1FjqrKno2ezrLAlX8k+oHTSU1P5D8tcvt5dRUT7sjMXeCmhmMiGron9BdeVxNlI8MqU0+WjZ46SwZPmeppu0ePqqIbD05Dx8DMlzQsAGzpm5FmOeDKfh16XlIpy7mYoy7ErbOrJNX2IUghPHtf4O556fX71GvXCPIXLEIKa8A5ql+pii6NsaGJN3F49sJwQwjb2CHdBkbvSfynQp8cOcvaoXzj2L+2o9ekbGjtRSA7YvdyNlLoTLR86VduQAvBWBdzZOK48x1Sszii68R9PU+ZDqimp0bZdNTUKQ+qKDD7YLXzp9/Dlr7+rDSX6IRn/Qp+AdJ3xH3SctKEvbN5wwslqiz9A4tE9SMOUXVh3job9Jd6ecUkabxR+bURGX54X1ASFXVUrdKoebL8MgBbTUo/Q9owRKPT01Ou4Y0UosHJLbhKg+N1MS0MhNDnndo81Tq1wYOf5SfhHY/zCbQJEY+h5Rd4LU//hCuImYZLcd8oqLTPmC4Pwzal7E2dumtq5uyD07fZ+dMvDc9SiI5tKn0li10gzbwuKdfhdFjCVIk7xATlpIl6Z/OEF0VkWeq65MaVrH7EwFbWXK7z1lmrv5TLKzYJ4o1832GEhR/RFzA8GC0W5Xo/AIuAb0FvMfh+cXqgLBdjq8qPf6t+djBZV7aAb0GDOOymBgwAAHMiN1+dLmsZDOwSEMAAAJAA/u7BSmbgwdaTwpewAAAAAJCUvefPn99/+umn6tbOpq8B87oTAAAAsGo++eST0L0AW70JS/Pv//7v6goAAABYDd99913kZrydEMAAAADAqpm1Gx6bsAAAAIAMgAAGAAAAMgACGAAAAMgACGAAAAAgAyCAAQAAgAyAAAYAAAAyAF/CAgAAADIAGjAAAACQAQ/29vbUJQAAbAG353TI51Lrv8oagHUjOw2YG8cj9yDsR4+Mw66XSRoNciqMWzo/PKTzfoaNnc8n9cpSGGclpWnHLB90gJvBMttiWB2w2S+rvqAegjUlOwGcq9PVsEnFYpOGdy1ayeleHGfEIdqxyB1Rhbp0qVvz7aW4q9BRKYWw5+D2/JAeVYk6d3d0p0yHeqsZ0MwijfIGyyeLtrhKUA/BmrI+a8BqlHruTDS5iSLXJ8cboSt7du/ZqVG7DMMh51C7Y+004IdHwlFx+cIVZmrknKOjClFXS+CbMVHliHI6bLbzhSG0Y7aceq41DU6jkf4Qf25ag9rJLV12iZpDf6dZaql7X3hmGVnyHmbP2NIlCb4XkZfjBg0GDSqI+0PHCSmTGWmRj8TAQrvXYYDVEFlHJu3Lb2+8I+8+UB8mFWcmvvdvbQtG/Aw/0+4LIk5lLdHpieufjZkfAJbE/6L+pg5/hDqMp0+fqqsAoqGOT4UW1xLXPK16dk4npSO6PJQqHt15UoY7/gblhd2VsOPGWhAt6e5EPBqM6GAo3N4I/9VjIZzUNYd14fqWWOPap5ei8epwZaM8lq595PbzNOjd8BX1e23KlzkQjUhbYUynQhP1hODxOR1d7VN+0CP2xVIzX8tTTzT+UumGxnRAR2H+OM1mWk1Y+x7k6dQ6tOfwwsrIkvdgPL4yseXH9l4Ej5vUFWV2wRqHV34J0/KY6LiRF0FfyTj7QpC7pe0SVbe2lWfPntHPP/+s7pKRWluUdUS1L34ZbF91qDw8YB8WclS/MOqDsvUQcRREO/YhtHAmV7+iu7q8dON52ad6WH2J2W4lc/rfxToH7CzSFoMsTQAznFAboYkXje9Ed+aPD6jIf+UUb5MutD1ze00j4Vbb5YRKWmz0qH8iOoJihY5kSxf+i0Kw6Wv+Y2KNyx9uKKUy1aoivtZjuh7VSMpfPVzmMKhN7UdtZcHUhACpU7l2RtfsbpynskjrmehU6LFwn98XwirMH+fJSGsQkUchr6aJLCNL3pmwMrGlS+Rj6r2EkTQtOTFYoQZVH7F8F9q80OhNwurVtvLq1St1NT+ptEXGa18Cbgck6vRNmACegYhjaApmU/DxtRCKniYr6rlsYmF11Khfkczpf9fqHLCTRls0WfoUNDfwoFlbbsb+qatQSkKYjui6LwYH+bKrGZpwx6LWY13jTgmL9k7jmz71RkJo8lrySAghEWe+rEII8RcKC6qBsR69LJKma2FK1JLxlKknpwT9U++2OrXNJi2WGXaqSOHbpQpr2lwPeH1aPVoKMdq9rexgds+kzfr/DlhuemoQK4seUvBM7G4vuzSoWQRhUnhEH1OglcpCR6s2JsJTE0ibCWt+dHZGI14zFv/4ttcT+jmrsBH+winRSZOoUfALKJ6y7adVRmHpsr0XzWDsTrVrkqZFdMCOXPRjQTykZlEMdpY9yADJ6feozRox11/jncv3q64lwfoQB0PTngoviKxfk3Y7032QBO0egDTJ9mdIPMUkOubC1OYiE3cdaVSdbJBw+qJjFqNibVfg9cJWGjqZCLcjBGtBxWVOgQWR0281CspfGYaRNmn0hg7RUXCAFdWz8G1baMPubYS/CHitbNgcUVX7EaZKLNzSKqOwdNnei3Ceq9NprS3Tc/hy7AaRNC1cMI2CCrdA3coF1b15SpA6sduiQLpR75y3APAUsnjnF0YdPB7nJxqrWR/ibsJiP/lJPL7wrIj6ZbTb2e6D+P1HtnsAUmTv+Pj4/ve//726tfOLX/yCfvrpJ3rrrbeUzWx400Kai9WZwJs0emW6S0W4AzAfi7al1NoiC+qwDVXbBNo9CCFpW2L3f/zjH6nZdDcXBnnw8OFDdQmYvvETBTnCRyMEYOtBuwdZsP5rwCum1NIbjdgse7MRABvEFn/QAu0eZAEEMAAAAJABEMAAAABABkAAAwAAABkAAQwAAABkAAQwAAAAkAEQwAAAAEAGPLi/v1eXAAAAAFgV0IABAACADNhzHOf+xYsX6tbOqj9FyX6TsPGfvAQggkU/JYm2CEA6JG1L7D7yU5Tq79rBiY5jfvWrXykfAIBlYGt3NoO2CEAy1noK+vPPP59pAADLx9b2giYxfLhDjBO/fMzjB4A1ZWPXgPf29tTVLG7p/PBRrKP9UiGsg1hlx7FtnZSZH3TAmwe/M33QgTLy6MpNJWkdXEadzbIdoA2mxkYK4PjCV3B7SV15cm/GB26v8kP2W/zR/K3O2zZTbNJQH3bAZ0Of7VAHjjoLQlh7ARwUtomEr+D2sktUOaFyfkBdnwTukzM1IrfY+UbvhyTPFJcjQIcc1qxNt6JLOT/WB5sHDiDXo0b199w4/myiDcyKXx2WHojf6Sst3/QzKy5fuMJYR7RJ0mOJJ3b8qlwlwTgDZeo4bt7YaZK0yEeHnt3KZkTANDdjGuT3/QLJ9i4lgfpwqawZPrfXV3cEvvdv1AkvDHsbnmpDjDVNljZuC99EpSm0PQbS4rc36ql3H9HPMOxOhePL71S5ziofWzuajhvtan42QgPWQtcUvvF+v3xLUv4e5ahUrtGge6kqBzc2PvRzcgRZq2SzE5W0MKZTdX83rFD3WFWwwYgOLpR9p0btKlfmHNUvmlRUo/2resiYV1TecdnwK7WBsPgblFd2w+aIqrp30PHLuPmUdDMsA2tc/nBZIykq5xOSpscWT5h9WLna4gyU6cmBjE52IEnSIjqU40ZeBO3ad/JjunFdg1Ug3gl32LKTro6oeWIe+Bf2Li314cj1IQWEfHRFU83Me/98rGBYXWN3UW0oLE3BNn4THr6N0HZi60/CiOpnQvIrtPDTWpt6OtB+j9q18ozysaU1EPfRJdrVAmzMFHRy4SuQ088VEvKXhASm2kBNQ0v7Jvn6AKvdNY2oTVXdcYgGORioClZU4TIctnB5HdrqAojK68Xz+MAVfmHxG25zRxUqtntuw9Txs3/zmp+ZWOPyh2slcXos8TBh8dvK1RZnGEnTktunvIzT7dhKLZz5ulLEO+EOe6qTZ8LeZVh9YGEuhUbIOzTff1hd42dRbSiqfplEhW/DVjcZW38yjySLSA8rIW0lgfs9NQiKLJ+QtJqgXS3E2n8JK5i+JOnl6Wc9VfLoUVVUk+A0dAxEJfQ6Dmm2oILxFKC6zIyVl2uJWjKeMvVkfYjSMMBS4U47SkjNQtSdjjnjMYtl17V16yPC0lM6oeaIBxF96o0Mgb9Q+tGuFmEjNGAtdJMNFnj6eUA1Y/qKp1HkNHTuSOjFDXpp1hSrHXcUATsbPJ1jjmDn6VxixC8HFHLaaEHM2YAwlpmesHK1xakJlmnStNyekyMXt7jDGFKzmGDGAqSLbC8H9Fjdhr7LiPrwuH5FHapOr38GCatrs5hVv3R9nDf8KHR/wgVk1HuZBnUtsfUzkenJ0VFlRD2nR6PKkbhjqznTr+NGu1qIB0k3NWVFYk3dNn3lCR53HWNUVdMuwjh9m52oVLxj07DzNhmISjtZ0yLq6F2Oaq2Fp3Rmdg4+Zsdf4LWW1sLiVyDC7eSpUVBx8bSTejJhmekJK1dbnMK5WaYvx24QgTBmpkV0NCLDKtwCdSsX02uHYHmEtRdJ2Lu01AdjE1ap1aG8eKfR7Sysrs0ion752vjjOcMPYCsfEc8Fa/rK/nicn0wDh/Yz0fnlqfRRm+jUq/xzlI8ZN78PtKu5WdtPUSb5qs7bb7+92s/f8QYQ3rOxLT8t4N2kvTLdpSLcQdos0paYrW6L28C29SdbTNK2xO75K3Eb9SlKziA35LgGJKdv/LxAjrghfIEFtEUAlsdaCmAeXSQ1KyW3+T+sL7WMtfGsN42AtcXW1mYZkJAt6E/AfGzMz5AAAACAbQICGAAAAMgACGAAAAAgAyCAAQAAgAxY+y9hAQAAANsINGAAAAAgAzbmS1gAAADANrGWX8ICmwm/820mq/q8aFtCWwQgHZK2JXYf9SUsCGCQGrqybSO//vWv5ZeeIIAB2F2StiXdJ0IAg6WjK9vnn3+ubNYHrr/z8rvf/Q4CGACQuC3pPnGjvgUNwDIwv1kc13z33XfK927CHUgSw4N1AEA8IIDBTsEj1yQGkBzBxzFJTk0CAGyxAD7kU34c/ynT8gSgqLMu+Viwec7y3HR2Nd8GfCoUCIeXFWaZxMxT71BXl0eaZYv3FIvt1YCLNaqNzsg7q1pUiLNRcXKgtQ2cSpIy39LHe3vEP3Xb2/tY3GnSsk8HLXwhhJcEd8Y8IDZMYGy8WSQVLssQRrsg4Mw8zspvErdrxBZPQR9QuULUvXRfQ/9lg/IVYaG4PT80OoRDV1DrF6f+nhtn5to6DF8Y5svXdoFw3fAc6ks34i+7l/TJ0fdx/LM7jXzmkHOo/Rhp9YVlhO8L65bOjxs0GDSoINwdcoTSn4p7bq7ps19+QPTNPfHX1u6/Ifrgl58JWyFOP57Y/9h6TR987IrUpPZpMTmW8U7ZgNQpNmmoy3nYpNHZZnSQqYCB/eLMKsMNLeMHb968UZfbx+P6KeUbL6XAOxs16eRIPRDk6leTjreTp8ZLn1gjEgJpXNbPa9QOdhgizONGnjoqjE5+TDcsSAtjOtXhDivUPVb+vPBaVBKV5bTWpp6Ost+jdq1Mpbj+pSeDwYgOLpQfTmuVBSuHJQYdHdd+2BxRVUtmX1g5ql80qag6yKt6WlX4Rxp9/xE9fV/dvv+UPvp+JGy/pa+/nNjvlz+k917/IARzUvvkvHr1yrpxKMqAJXAzpkF+399Z2gaLEh6cansxuLxU1kzfEXaBgeLUAFPZeWGYg9rJwNXpi4God82elBvPn05T2IBVu7MMXFWaQgf2gbT47Y1+x7u3pMGE3alw7ANvI44wbGFIAu9DPLAqMyGEuw2GG8ij47h5l+kKpkfch5ZNX77XSV7ZfXQaV8mDhw8fqsttpERlIeiqLIhOA6Mjs4JV20Sj60lFZ4RAOtGS7vHB9NR1bp/yJMJWlaHUEsLs9ppG0k6FK+IdDFgwC8zwBKWyEJRKAvd7I2rywwT+fRQrdKQzVypTTYRy3RdhGX5yRxUqtntuxY0Ki+HR5N0VLS6LX9MPnqR8h/LvmfeK/XfpiRTMAZLaz4B/SmTbOBTHgBRQHaLb3lR99xCdonWwyEKxSmKU6w4uhWnpQTS3X/nIUk9FXJMBJocdNqhVA1c5aD0m0tdysB2WpuCA9SY8fBte2sy42N42iA4jatAclm5BWNxTJHgf4jXOVGYM7G5t4QbyeHKgAwhRXjTBsilR/VTkVXuQ7k9T6NvSYet3QZdOxMsQIqlstnduvIUuVYbqhQ/ZTVJK1JKVpUw92bGoBqNevFfJbBorUzqh5ogFYp96I0OAxvW/9rxPX/z4IX31jl67fYec75/Qu/vq8Yrh3/HOa0AKmPU6KKR44CmeTw0Wby+pS5bBIgtzKfRC2oYRVvSgVrU7HmCb1/wsLE3u7YSo8G2YaTMH9rZBdGggEUSlOyzuIEnfxyxlxsTmNizcEKzKSxRcnqoM+r021XzCIFu2/2dIUpuzNFSjwt9edmngXsZHVCRHzmOwIB5SsygaDAmtWHQOEQNAgxwdVUbUc3o0qhy52jlr1bH9h8AjPM5byR+WzKNvpBjA7DRkI0lhmmb/Of2B13/Z/Nii997LCz04wPUP9DoN+xjYfuc7y+z674CXgqznEUJqFkI4dEzNbhbC/VIHtcsOf51JoswkcRtFmPISijsT2usL9+2AMpYx2y+AbfA0Rn4yJXY8zievCKIToUbBHck9KlC3ckH1nBDGvMGkqkZ4bMw1nAA8shyJQeCpNx+SzL8HawTaPc/kyM0I/rAKvF7N80U21LQOj+Kn1pNS4Zo+e+YQfVgWQ5T36elHX9LXah/Vde8r+v7Ju3PYz4ftt75RBiwBOUg8oMfqNjjw9AaLuSOqkH1A+rh+RR2qzq6v8w5qw9Lk3k4GrPOGH4UeRHMBGQOVKUXBNoiZle44JH0fSZQZm9uI92zNo015CRLwxzOho2qVRs2TZGWxZLZWAFt3xLE2rOxLLTUKE+aq1XLt9XPDnSR4L9FT0CoMLUTZrWF/ZwtPI90GRstJ/Gt8I3AjPF9Yyj4kLF0eMh/SXwprwN9+7E0/f/Xhj/SH567YfP8L3hLtTk2/4zyhb75wd1gltU8Lb7AjDFgSokOfHiRqwgaL7nqeOSA1N2GVWh3Ki0FwtBCec1AbmiaBaB+TAevjOcMPYCsfEc8Fa/rK3qco+NJgxpZg4B1Kgvdxk0CZ4TRb3VrCZWFs5vHlWLrUTCsvBrayYSFfLFJltrq8UvAt6E2Hp3V4/0iUgF4R/M5509JcH2VYMlx/eUo5rD5yo+cBSBCdJ14LjvK/TBZtS4v4Z79JvnCVVRltNGvUhrcW3jF/dkDDBcs4aVvS/Qe+Bb2tiNFepHYMYmETvsA9glGvh8cxAKwjcvNV8JcwawAEMNgZ8Dvg5PBIP6kBCcEgeunwElvimfgV8IB3qAKw7eB3wACAdWPv+fPn959++qm6tYM1YBAHfufbfCIOT7FmUZ8XbUtoiwCkQ9K2xO55EI8D+cHS2YWzYCGAAdhd0hbAWAMGqcGVctsNAACkBQQwAAAAkAGYggZgzcEUNIgLv+tNZFPqZ9K2xO6xBgzABrNoW0Jb3B10h79JZPmRm6QkbUv6fUAAA7ChLNqW0BZ3h1kd/jL493//d3WVHP554C4LYKwBAwAAWAj9JbQkBieNrakA5lFDErMLP38BAIB1hrXCJAas8ZewWG2PY7b5ww8AALDpsJIE7Kz1FDSfqjPL7Cx8gso8x54BsEIO1fFyjx45ZDvudS7Muj+rHSRxu5X8C3X+9m/pb7Xp/IuyXw1a+EII23nAZ6xuIjPTzY3Na/xsDin1s+ZX3aCXFV8anVQaYYCt42rYpKI8rzpw7nVazDrIYNcPOviX10T/5e/o7/6OzQn9X//6Hf3Tv6lnK+Dp06dy0xIbLBVOs5GbsGIPGsyD6ocV6hZSHIUz29i408gTTncBNtTA7NyZDIwd1SBvzw9DBst9cjx7dn9L58cNGqgD7A8dxx3scdg+LZv9iXtvMBjwd96n88NJ/K77JQzSs+Yvq1T9S3VN/4P++7/+J/qLP1e3KRJ10hg/08a0XwRffTEH/tousg4p6zVg7QVwUNjOrbHn9imvLiUxX5Z8uV4jVuj7wF+3Y1GdQGj4E6ydTlhcwQ7k5Vg+vrR0Zta4fWk03Yd0aPzIUnHtHWVEGL60GGVjTQvYekQdGZfVoLhTo/aZW09y9SvXTtrnqfGSK4SoV4dVoo6yF6ZVylH9QmvVd3R1ciCD5UHfaa1NPV2P+j1q18qG1h3wVy9R/VTErz1I96dU38pR47/RP/03noJ+TU/+rkqePE6JLE4aO27kRbVw60QnP6Yb7qsKYzpVdlLhOlb95lQdUoGsARuhAWuhawrfxJvHuIEVD+ixexPvZfH0mXQfA69j4am2sPD92DudMCwdj7Uzi4jb6j6kQwuWhTBcce1pDguD09KgvApj2BxRVUvakI4YbDmijpzoDvDxwaR9mQO1aptodC0GtpfUJcP9DErliUDt90bUnOWxVKZauydqKbtvU628Rj1zqvw5/ef/ylPQT+j13/631Keg+Xe885p5yVObqmpAX2qJPvf2mkbSTtUh0e8MBkIwJ6xDq2ZjpqDnEr6ik2eNTL6QswMa6mnRsJcl/o0HNZqrHZodS2j4AWydjnoUC1tnFhV3WOdnI6ziJkkzp8WIM3dUoaLq8BKlBWw3XKcKXaoM1YAsycDXpHRCzRHXrz71RhU6mqnNlqgstWbhvj1nu98o/pKe/O//Sv/9f6jbFLH9zneWWeR3wC2uJ3dl6sm+SM2siT6FFQBPQVjWvoMUWXsBHBS2iTRf/UK4QQcF4LJf1qzw0+p0bCwrb8tMM9htihOBeXvZpQFf5I6oQg2yTgzZBrRieH1UGVHP6dGocuQOtoME/JVOmjSqVmnUPFn7znoe/u2fOobG+y/0+v//T/QX/5u6TRnbb32jzCI4cu2rJATxkJrFEV3TPuWFwjVVV6Lq0BqwERqwFrqJp501vCmoQ96UhVwPtr0sekwHRWMdycRouF4HEUZo+AFsnQ4TFZe14zGIG3eQYLhhFTcszcxUGP60SPe+dTmw7RzKGRieiVJtzwav3+Yns1XH47wa2LlLG6OqmnERRq5gqPVenuXReyE0PMsyahOd2hZzTX96UwbX82KRKrPV5Y3kz/+C6P95qX+G9H8T/Zf/Sv95CZuwwkhr09UUjYKqEwXqVi6onhPCWCgEZl1xN2eF1KE1YWOmoOcWvppSy12DlBuHYr4s7jzYr2i4F9Kvaz/pIMIIC98grNOJiiui45kQI+4g1nAtFfcmJM2MNQx/Wgq8cWKddkCApXNlzsKIOuLbHW/cl1ra3R1dtVoTd+zGC2OygUa797llpHtjxicQp+dPC+j+SzHMjDNdvaH8ZVX9BMk1kx3Rq4F/hsSk/TMkdwo68C4DdeVuRh1aB/aeP39+/+mnn6pbO6s+jIH9JvnCFa8nLDqlYYWnXI+JLswGDsCKWaQtMYv632b6ziPqlderU14Efte8u3jVhzHM6oNZhgSf67TyZqyl9eEpk7QtzXofa6kBcwb1Qn0cAwAA88AaMSZlFifqd8BsbM+BEMBz/652ifDoIqlZCoHpKwAAAH6y+B3wtoDzgAFYcxZtS2iLuwO/6008oIZnMjehfiZtS+yeBxo4kB+ADWXRtoS2uDukudFp1eyiAN6YXdAAAACiYcGwqWYXgQAGAAAAMgACGAAAAMgACGAAAAAgAyCAAQAAgAyAAAYAAAAy4MGbN2/UJdg6+FOas74DDQAAIBMePHz4UF2uD955s9KEnKIC4QIAAGCDWc8paPM8Wz5G0CZo8ZlIAJYOf0ggidnkD0EAsGrWfw24VKYanzOrNN5zR2nFWgOWfx1yDl2N2enf0rl37QZxe36otGk2fByhtPSHJ0Q8+9N+SNg42q0mENfMOIL2aiAxZafz4nqgQ0/r5zSpa2mv/OjnU3kIuNPHKTLSPpAfAGJgfrs3ymziJxAByJK1F8C352fULh7QY74ZNGhcZs3YOO+TGYzo4IK15Rq1q3x+oLo+c4Varn7lnQV518lTQ58Q7wsvR/VT4Uefxt/vUbt2SlPneuu4ZFgcnyv4rHEIoXfMZ+Aq+07eHUhM2cmD693D7PnQ+nyNyE3GDY2J8y4GA0KY5juuH3musZb8vjz43d0NmzPOLQYgHp9//vlMszTUQDOVsWOaYaXBuqRn3cplR1hPASyEij70vdCt0FBPNRebdGI7OqyoDtR+fEBF81o+FHDl0lphtU00unYrWjA81rbbPSlQ+7021cqWyHT4DLunEV1zYLY4WLASH1LvCulSiw8lt9iJf+WaG87NOE/lkwMasQS+vaZRfp9y/NdIa+6oQkWVTl8eAu58yEOpr6YHFAAsG9U2Ds3pl3Xq8JeRlmXlb9nltkj4q3ynq4xriaz/GvCi67z8ogpdqgzjaIUsCNtC++xTr10jm/y1chMWR4laMh9l6knhzELXZifHCzS+EfGOhMabO6LKSAjYmzHlYycCgDWmWKN893g9l0A2aT/JstO6KWWxJXuA1n8NOA0MrZWneL11UQulkyaNqlUaNU+EqJwBT1Nz2Dw/botDCH9H9jgsdIfULAott2+xE7es1dLZGY0qR6JS5Yhvez2iAw5bTlE3SM+cy/Br5en0SXddulSdnC+vPBDBGjDIjAM6OTWWf0xk3VSzR3ovQxihbnnPhrZ392aE7cuYgsNkbUr9dfdUTMJxn1v2fmh/MhCBd39L58cNGqiZPJ/mz7A7FY63TyMsLPXXvvfFklbtV4fPxgzXI1Bel8pah6+vPTeq/ELjjc6zbS+MNXxpPc++GfVM14nQdNrDz4rtF8BipHSan0xpH4/z0euirH0Wi1Tx5pkDGNPjj6pEHR6FhcUhBCI1CuplF6hbuaB6yWLHUbFb0RJ1vHzbFtqweyuEtdCqR1U3/AKvIbdswwPhjtefC4F0ALAOlFrUoepEUEgi9jdMEeaWNytyY3Tt2XDzCN37EYVo3+6eCvYz2UcStvfDTo7qF00qqpm8K9+6zxz7NLw0Bfe+2NIaJ3xLeR2pRx4czphO1fO7YYW6x7osbPFG5FkIw6l9L2Hh29xa/WvC6oTAls7IsFbPg/v7e3W5PlinFoJTDvretA+5LrXUSxDmqtWa9mfSf0kNMtZ5g5jT40aDsMbBAtFzqyulzY5he2ONVnRWvul3Tq/nT8VrywP702F76RBI/1gDBtkiZ5i0UGOi9jcECXN7e0ldsux9YC1IDnSFMfd+RGGE79tHYtv7MU/PHbVPI4ww97a0xgk/rLxMOBy5V0WVnxByA7VRNLSMwuCZueC+l7DwbW5tdhwuE1Yn+MaWzqiwMmA3pqATIDdfnVoEMwBgccRA8KLSpZd6ynNZsPCNvfdji7gZRy6xJUIIsImywWZeYaWVDv++F3v4Nrch/ucizbAW58He3p66BAxrstbZXSZMawYAxCZXPyVqqLVP1kgGMfY3MGFuedmIJvYeCfZ+JMLc+6G1QsFUHMYzD5mHkH0aUWHFRX43YRK+lbDyMgmUdWxseRaDoal9LxQSvs2tbd+MjiRJ/WFs4UeV1ZKBBgwAWDGi8+vUJtex9jcwYW7d9Udtz8a5Sbj3Yxaik7ft/bjgNUdbHOLZac2dYvVvSOK8W/ZpRIWVCH/4vo/xeFjKa2pGwl/W0szasBSWZyEkp/e9hIRvc2vbNyM/DMGE1YkQrGlRzzJgz3Gc+xcvXqhbO/x5uZ9++oneeustZTMb/izds2fP6Oeff1Y2AIB5WLQtLeKf/Sb5wtXbb7+9fW2ep7P5+z6bOPvVd+hRr0x3UUIJxCZpW2L3/JW4ZrOpbPxAAwYAhMKdDQvVuAZkT9/46Y3U1iF81xYIYABAKDzST2q2jg3b+2H+ImP+jVNgFWAK2gJOdInHJ598Ejq1wqAc4zGrHBdtS5vcFgFYJ9KegoYAtqDzC8L57rvvIisWg3KcTZxyhAAGYD1IWwBjCjoCHnDA2E0SbP5hXAMA2F3W8ktYAAAAwLYDDRgAAADIAHwJCwAAAMgAaMDLhn/En/GRVwAAANYPCOA04a/O6B/As3GSfkgVxMI2qEl7oIOBEwBgyUAAp4Q85FkesTn5EXyHQo5VAwAAsPNAAKfCLV12iZpD/1dnzLMmL43Pw2nFWAptT2M+JPn9cqV5nVvcy2eee2G0huazV+HsKhHl5yvvyLK7pfNjPp/U/QC//2P6AACQDvgQh4XE+eVOvDCmU9tn3+SzBuU76phDnqY+O6Bh8NN2+qPpJ9ch7vfppatiu/YcrvxAPNv3qKzj9uyX++m8WT8wZ+apN7Gw5VHbXRAd28pP2k/eUd9xiFp8JmhI2a1ROS7altg/ACAd0vwQBwSwhbkEcFhnHXwW7OTN48L4gGoWFDb3UfZTR47VhJy2DAZSJI7gyEwA28pJDWDaZtnws7Cys8WxBOKU46Jtid8DACA90hLAmIJOA3ko9IxDsIPIzr9LlaFaMx42o8//vBmHH9DNgttYe8YH2G2UqCXLhrVenm523PX5HSg77ixgYGDSM2mBL2GlQolOxACnUVCduoKnOc37KYoVOlLq1e1lN1zAMqUy1WxCXgr/Br20RcRCXgsaZtb9pmAZ8Mjyy++Ha6sir45cy2VBPKRmcUTXFFF2zGBMN+oSAADSBhpwSuTqVzRsjqjqbeh5RFUqh2tTuTqd5t1NPuz2eJyP1oBZcHTyQsir8L2pU2EvtOdRdRKvt8Foa+E8V6iry0KYQrdCw6hzT4XQFoWn3BeoW7mgei6i7Pj91NryfWITFgBgGWAN2MLS1i7TRG/aihI6SyTTNeAtYhVrwACAbMAa8BbRN35aIzdEZyR8AQAALA4E8AZRam33ZiEAANglIIABAACADIAABgAAADIAAhgAAADIAOyCtsD5ffXqlboDYcTZBY1ynA12QQOwnczaBQ0BbKHRaKgrMIsowYFyjA8EMADbBwQwABsO2hIAm8ksAfzgzZs36hIAAAAAq+LBw4cP1SUAAAAAVgV2QQMAAAAZAAEMAAAAZAAEcFz46L5tPWVom/MGAABryloKYL8wuKXzw0M670NIAAAA2B7WUgBXyDhs/fZS3FXoqFSnq6t6+IHrAAAAwAaxlgL4qELU1RL4Ziwk8hHlzGlSvtbH8j0S2jFbTj13qM/XUoPW1wF84Sg3Kpxz4+g/x+eZwzPt+uToNGhkGA45wl0wjNvzQ8/OS3vQXuVjyi5OHmfmyeLOO9xfIO0D+QEAAJA6aymAc/t5Goxv5HW/16b8vqn3CoFXGNOpPpZvKPTlYyGUcvuUH4yJfd1edilfI+pJSXNDYzqgx3zpg8NpUL7jhjNsjqiqpeSgQeOyCr9To/aZEnqSHNVPhZ0bOCeQ2rVTqgdV88GIDi6MMKqu4MvVr1w7aZ+nxkthK4TecSNPHWXfyYt82Oxm5jFOnvgYQ7+7u2GTiq4rAAAAK+LB/f29ulwjSmWqtXtCTNzS9ahGZfPg29trGlGbqqb2JoVSicq1EV0LSXkzzlP55IBGLJ3YfX5fTl2bGuWh06NRsUknKuycULuLMk6BYU+PD6aFk5c+d4BQ8yVQUazQkRbK7F6kmtPm0zyrbaLRtTt4kHlyhXSpJYSkzW5WHvlvnDwF3PnI1enq7mp6QAEAACBV1nQXtBI0/Uvq5sviLoAQHkOlGbrGPZxeyEoa3/SpNxLaYO6IKiMhfG7GlFcC0tQ+r4Twmh9OX1tonyKudmCAEMWNEL6FLlWGKt2e5lmilkxXmXpSOLPQtdnNziMAAIDN4MHe3p66XC9K5Tw1qo1pwSKnYRvEM7dBWOOjszMa8Zqx+Me3vR7RwfT881Q4PKU7qFmEfQilkyaNqlUaNU9m++FpataIOR2GZizjlBfn5MhFVxa6Q2oWefBhsRO3kXmMmyfpbrLRzUsHgzVgAABYCWuqAQvktK1NuxQCSWiOo6qaxmWjNyYJwcKSpKIkHN+2haboTQX78IdT4PXWVlzxK2Dts1j04ppCCMKCTl+VqMM7uHN1Os1P7I/HeVcD5oQ2Cio/BepWLqhesthxVJF5jJsn4Y7XnwuBdAAAAFgZOA1pXvoOPTo7oKHtp1GsRR4TXeBnUyAFcBoSAJvJzNOQ1F+QELn56hQCFgAAwHxAAM9JqXVHoTPWvJMY2i8AAIAIIIABAACADIAABgAAADIAAhgAAADIgPX8EhYAAACw5ew9f/78/tNPP1W3dnbtZ0icXzCbTz75JHR7PYNyjMescsTPkADYTGb9DAm/A7ag8wvC+e677yIrFoNynE2ccoQABmAzgQCeg3nyu2vMqlgMynE2ccoRAhiAzWRW+8YmLAAAACADIIABAACADIAABgAAADIAAnjZ8MEM+rQmAAAAQAEBnCZ8QpI8PlAZx3JoMVgc26Am7YEOBk4AgCUDAZwSt+eH7rm/d3d0p0yHegQRDAAAwAa+hJUKt3TZJWoOW2QekFRqTe4vnYlmrBVjKbQ9jfmQzlndUprXucW9fOa5F0ZraD57Fc6uElF+vvKOLLtbOj9u0GDQoIKwP9zpAgUALAtowGlwe0ndQZ72w84fFB35uKw0406N2mdu55+rX3na8l0nT42XSlJY3ffJKTQo31H2wyYVpWO2H9OpDmdYoe7xjk+d2spPCNrjRt6boejkx3QTWnY5ql+I8i02aSjsr+o4WBIAkD4P9vb21CVYiOIBPVaXU4iO/ESrwo8PlOAUmNpXtU00unYFp8397TWNTHsN21ObqjocIaQHAxYuO4yt/HL7lJfl5MhlATk7gbIDAGQINOA04M590KXLJGonC99ClypDrX1pjTaEmzEN1OUUSlOT4UjjnwoHTIlasmzK1JMC1xXEKDsAQFZAAKdCiU6aRI2C6tQVfcd/P0WxQkdqdvP2shsuYJlSmWo2IS+Ff4P07LUPqWEbaZh1vylYBjyy/PL7FDpZLPLqyLVcFsRDahZHdE0RZcdAGwYALBEI4JTg9dxhczSZzhSmSuVwbSpXp9O8u8mH3R6P89EaMAsOXicuqPB5ulTbC+15VJ3E620w2lo4zxXq6rIQptCt0LAVobsKoS0KT7kvULdyQfVcRNnx+6m509PYhAUAWAY4jMHCRhwiwL857pXpLkroLBEcxpAOOIwBgO0FhzFsEX3jpzXyN8cZCV8AAACLAwG8QZRa2CwEAADbAgQwAAAAkAEQwAAAAEAGPHjz5o26BAAAAMCqwC5oC5zfV69eqTsQRpxd0CjH2WAXNADbyaxd0BDAFhqNhroCs4gSHCjH+EAAA7B9QAADsOGgLQGwmcwSwNiEBQAAAGQABDAAAACQARDAAAAAQAZAAAMAAAAZsJYCmBeukxjeJAYAAABsEg/u7+/V5XrBO8fimF/96lfKBwAAALA5rPUU9Oeffz7TbAV8MP7Wn+ELAADA5MHe3p663Cxmptsm1BYVdMsWlBy+Pm5QGof66pGPpOkw3S87DwAAAGKxkZuwNnXQEItik4b6yMEOUdUmLHN1urqqU07dziSpewAAAEtn7QVwUNimJXxvzw8nmqapHXra5yGdx1UTff5MrbVPjmf/iBzxwBfvrDhKZaoNxnSjtNZzeSC/CD+o0XrhqbhD3d/S+XGDBoMGFYT7w/M+nR+66XLh9CbINwAAgLnZCA1YC11T+C60eUwIpONGnjpK0+zkhZBj4VMY06nWPocV6h7Hmaplfw3Kd1x/w+aIqlKiCWF3WCURiRueMK0SK6NX3v1dJ0+NlxNxHeT2/IzaxQN6zDdCaI7L7M88iD8sboHVfY7qF00qKi37ql6i+mmN2j3lp9+jdu2U6lCVAQBg6WzMFHRqwpfJ7VOe2lRVGmOpJYTU7TWNpJ3SJoVgG7D26foIh/0JgXaipFzuqELFdk9onZfUpYm9h6mxVttEo2u/kFfaKT8vdCs01FPHRhweYXHzjc29DdaylZ9+r021chxPAAAAFmXtBXBQ2Kbzs6kStaQWWqaeFHZq6lZphp6G6tMeU4CFb6FLlaEKfyi0UfXIw0zDStZtS1SutanX71OvXSPIXwAAWA0boQFroZtI+LKWO+jSpaFe3l52aZDfp5wQhI5c6GRBPKRmcUTXxO4bFDEjbEfGM/En46iVqZQ7ogpZwitW6EhJVenWvZyPsLjd23ACmn3ppEmjapVGzZN0BxwAAABC2Zgp6OSarxCuvI5bUNO9ekpXLsTuEzUKyr5A3coF1XPsngXRxL23OcvEmCJ2NWe/vwKvLXMcar3VDM+5qdNpfuL/eJyf1oATERZ3BDmRBqHx8lT7od5txYOFYpEqemQAAABg6ew9f/78/tNPP1W3dlZ9HjD7TfKFq7fffhtnpS5C36FHZweT9WawVizSlgAA2cFtl7/YuFHnAXNnw0I1rgGLITdfnUL4AgDAKlnLL2HxSD+pAfNTark/kQIAALA6NmYNGAAAANgmIIABAACADIAABgAAADIAAhgAAADIAAhgAAAAIAP2HMe5f/Hihbq1M+/vgAEA6YDfAQOwecz6HfDSBDD7AQCkBwQwAJvFTAG8rC9hAQAAALvMRn4JCwAAANh21vJLWAAAAMC2Aw0YAAAAyAAIYAAAACADIIABAACADIAABgAAADIAAhgAAADIAAhgAAAAIAMggAEAAIAM2H4BfHtOh4fndKv/KmsAAAAgSx68efNGXa4YFoiPHtEjp68sXPqOsIPABGCz2LT2ioE5WAMePHz4UF1mQLFGtdEZnevaLxrD2ahIRb7O1enqqk45+QAAsDRsQmgZgilpmKtKF7OscAGIIOMp6AMqV4i6l261779sUL4iLBijQdyeH9Ij1pbZeI2kT462E0Yq0uzHszucCPYAvvC0OxXfOWvg6pmnnIeF67N3RIqUndmQjXt7PgAAmYMBP8iATM4Dfvr0qSuYjokurvbp5aMelYcHdMb3F0THwb+FMZ3etagk/PYdh6h1QteHBRqf3lGLLSUskEU4yp0XfjC8YCPrO/SoV6a7k2s6LIgBQEeFyfZnBzTU6QuGK+2rRMo9C9fC+NQNx4zHTMdUPlSYApyfDKJY6nnAXp022oav/YwpT21qD9xHNd1G2I1oM8qaqNgU7aVOxG2hoW2L1BxeUT13K6wLpK2LzSFdHV0a/rU7eeMSla6weMh9Xsk3qNF2n0SmN9g/qL+x/ZtpAyBAZucBc8TcadiQHYnRkG6E1lkVlV1W9MfKXjcIJejaVBOyLigEAw3TbBwS4Sco2NlPVEPUYeo42D4qXNM9C1ibvby35MMA5yeDMF69erWQAI4/GA60J6/+d6mihSMPTOW4s0w9YwBqDYPRA1x3lGq4CRkwB9Mw1fYENsEXayBtSa9u9+bfJP6NdGAQvRskaYuZC+DQhJoVWDY0pR0GG4ZXwbnBKgEWFHKMpUFIguHJBmZ0KGHxhaZDEYyP7yMFsPZv5MMiiAEIMrMtzUD7txEcDHt1PLT+c/09o4NOhbpnIfVctgWLphjlRhJoE6Z7ZTUznrjtOGgf/BvXv74XYBC9/SQdDM8SwOvxMyRefwkTRqKiO3LRtUStuyE1iyO6piOqUINemhuoc/uUHwTswihW6Ei1mtvL7vQI2yQs3IC9DKdWdvMwGNONtDXCt+UDi8BghXCnETSpw4JJDnDv6O5OmGHT3VRpgwUmu/FMggFpknjS4GYc3U8IbOULs10mbdb/d8BC0FGjoDYvFahbuRCaa47qF00aVfUGKN4wJQSbaISmnXWjkxD2p/kGFZSb43F+RsMNC9dvX2jkqcNzUyL8i+aIqsHwrfmQEQCQLXIw2SW1F1IiB475fU+78+j3qM0D2JLfj28gGzXA1YPTsIFtEhIPpEPSG4dSmWqBMgJgUbITwGG7DrW995w1xsko+UpLLX5u2Mt1mYDdnRmOF55oS62Jm6tWa+q5xLy3hTtlPxm95+pXnlsv/LB8AJA5PJisULegBpg8oOxWaCgblUAISj1glcuguj538mJM6dpPBpoRA1x+VmvLwenh+eN4A+YwouKxEpLe2Pj9P5qaPgcgOXvPnz+///TTT9WtnaWsAQMAYpHWGvBc/i1rnUBgbi4DO0PStrQZa8AAALDmyK/0KY1bzgRA+IIFebC3t6cuAQAgAC+zQPuVmEtXiTaMARACNGAAAAAgAyCAAQAAgAyAAAYAAAAyAAIYAAAAyAAIYAAAACADIIABAACADIAABgAAADLgwf39vboEAAAAwKpYy09Rst8k4JOXYJtZ6FOSArRFANIhaVti95GfolzXL2FxouOYX/3qV8oHAGAZ2NqdzaAtApCMtV4D/vzzz2eapcMfo7ed0hJmHwV/wF19S9bhY9jmCWMVBNMJdh5b2wuarSXLdrqKtjgrf2n2gcDHxm7Cmqm5c+VQFXdiDkmeiZ8JfXKqI2ryAeJ8DNvZHBV3JRXeSOedOuYRgEWw1dtF67KlffsFlKjH5nN+ONNPQpbRHn1hLrktLiP9IBEbKYBjT5sXmzT0Pp7O5iq7Q/Bvr2lEedrn+Nf5A/dmOgFYZ8z2rc4W9gRqv0fU0e1+SM3RGZ3fCPsoP0lZRjs2w1x2W8RBG5mz9gI4KGwXXrNWo75z42gx3QBvzw+N0bGpLY/p5aHNXuEbWdu0bDGSlQd4u4eRS3fBkefMMG7p/FiEoQ5HP3QcIx+OiCEk/XHzK9MTSCfb2dLlC9MStwwLgHhY687M9hCAhYk5s1RqGRrjDY0HQpA9VreaoB8TM359+H6w3qt7t4247cCFtW91b8tHMBx2p9FhchjBtqicMKFtPSQdUX3DzHAli/aBwMZGaMBa6JrCN9bPp5Sw8iqUrmzCflxWo+BOjdqqAebqV2rEzPZ5arxUVXkwooML1160V2ocm5WWG8qYTrW/YYW6vudMiVrCY1GPvvlaPXGJE0aO6heTMK5ODox8uEejhaffkl/RYI4beaEkuPad/Fh0U4F0Xu3Ty7B0mXFbwwIgBta6E6c9WMjtU35g1j0xaJVCo0flsOMDp/wwrvDLaw3abK+BNicRgvy01qaelnxC+27XyuJ5RD5s4fgItkW/pmpt66HpCHFvYXl9ILCxMVPQiYUvY043sdGVWNif6Fr/+GDSuMxRXLVNNLp2K1GxQkeq9ueOKlQ0G6ycJjI0Wx61TjXoGcwbhpkPJjT9lvxyxyPjdEfIpZalI4hKlxlmnLAAsGGrO2m0KYkYtF5x2y9Tj7WyuAFw/MG2pQmxL5XFwFZJvn5vRE12FLf9zENIW7emgwnrG4Jk1QfuKGsvgIPCdmkfDuGKV+hSRW14mNZSIxCNySfoQ0e1ESwaRuL0ixG2jIc7J2445tSVQax0xQwLgClC6s487UEKzgMKzjRzHOXagMbX6tYk1E9CSifUHPVE2vvUG02EVSp9Q5Cotm5LR9y+Ies+cAfZiC9h6TQuPa3GKO/2suuu+wSQ9mpaRyKnsBoUMqMTjyRhRI0sY6TfQzQ2Ry7UcAc4pGZxRNfBIXHcdMUJC+wush516dKoE7J+5vcpZ6s7NE+bUtPGp+4s1+25Y6xDCmHULtLBvrr18PvxCKR3ZluS5OioMqKe06NR5cgNL42+IYzQtm5JBxO3b8iqD9xRNmYKei7hKyqFbw04ahqK10/yE/fH4/xk9GeEU+hWaOj7PYDoOMRIkXdTevEENjbMJmYYao2Hp3oOX46VpSIq/TZEo6FGQcVXoG7lwrJDPG664oQFdheuRxXqFib1yGtH1roTs9752vcZHQjNTTdNN1j9rErUuaI6q7kRfiaI+Hn9U/mf2ZYUPDU7ahOdepU/Zj6SMqOtT6Ujbt+QaR+4m+w5jnP/4sULdWsni09RJvmqzttvv43P34GtZZG2xKAtApAOSdsSu+evxIV+ilL9XSs4g9yQ4xoAwHJAWwRgeaylAObRRVIDAEgfW1ubZQAA8diYNWAAAABgm4AABgAAADIAAhgAAADIAAhgAAAAIAMggAEAAIAMgAAGAAAAMuDBmzdv1CUAAAAAVsWDhw8fqksAAPDDX/JJYvireQCAeGAKGgAQCX9KL45J8slKAAAEMAAgBp9//vlMs7PwMX5ZHT7Qd7wDEJxlnUY0K39hz7Mslw0BAhgAsFxsHfGyO+d16PyXkQZfmH1yqiNqqvN7p091WpB1KMMtZy0FsG1tKcpg3QkA4CNXp6urwDm/q2YZaTDDvL2mEeVpf1mZXIcy3HLWVgO2rTHZDNadANhsbs8Pp8+RZe1L2/E53kE1TGpnDjmHevr1ls69a/1chKX+njv8zKF+8F6H5cVl2AXdmZh+Cg334PqQuGQafGEIzdUat8pnMBx2p9FhchgyXvd88OD5u74yNcMNSUeo+zjhSsb0UpV/6Puy+ttt1noK2rbOFDSpYqlwsZnH7yLxLROdrnVNH9geRB07buSpc+dOo3byY7qRwmVMp8rujg/zP7bUw8GIDi7E806N2tVjIn19FnA7aNC4zGG1SM7S+u5dQZbv8P0dDZsjqurF1KA/D7+fu2HTd3D9lB8+6L7Wpp6WfP0etWtlFXdIPkPj1riH4BeLTRqy34CmmqtfuWGy6eSp8VJEHpqOEPcWQt3pdyHsRbKo4XtfMd/nDrKxa8B7e3vqKgSb8NgUwQLBB3aF3D7lpRbnamKllhA4cmpVaXZsWNMbsGAOUKzQEUudxwdCEBnX8qGBEFInphQz7zku4z53VKFiuyfTMuVPE/DjI8S+VBYDAyX5+r0RNdlRVD7Dwo8L9yE63GqbaHQt+xNrOpgQ91OEudPlL5BlaL6vuO9zB3lwf3+vLjeHmcJ3FljbAGBNEJqc1IzK1JMdtJoiFQJIanaeCdMEN4TSCTVHLNj71BtNhNVS8slCstClitqc5dPQbemIcm8S152NbXufKbH2GnBQ2C4sfBmuSFrDNEd0PDKTDgSmfdiaRUK/1rUujfw5Abu9pfNjHiE2qCDcHbJnX3iqg2I7Yw2MzdTPEKQbM596/YfXyyLWfoJExBW+dhSSNpkOm/uI9Taw2bCWO+jSpVG3bi+7NMjvU068e0dWAhbEQ2oWR3RN7L5BIbOg6SLTNolLpktNy4YSyI/0415GkKOjyoh6To9GlSN38B+IO1UMjdSfPks6mFD3AWK4myrDZeZzw3mQikBbMjqNZlpjae5KiHkCwhSSkrC1nDhrFgn9io5meq1LwQKoSuLZFdVzOapfiLDUiPGqfuOLx79GNVl3cdfBAsJLVnw3Hm4U+Rqp9Z8bGtMBPWYnMdd+wuKKsyY0cR9RruJdRa95gc2F1yvFuy5M2mKhW6Eh/25G1FFqFJR9gbqVC9EG3PXNUXXifmrAmhr+uArcRmf+nkf44bqu8nM8zsfSBHlqdtQmOq1rsbekfPJab37S9wXTN5WOGe49otwZfa33bj1W+T43iz3Hce5fvHihbu3wz3x++ukneuutt5TNbPjnQc+ePaOff/5Z2cSH/fIOZ95kZRsgmMKX0/X2229Px8NCjfdlmFPN2u6C6Nj8623rN55PCeuaEJCGcAiGP9MvT7FVqW2Gw36k24iwbfGwEBse0Jlpz8Lt0RkdDFmISwtJ3zmk65Mr2n/pEJ0IPy/36erkmg75LzcSLw0KFvzB8gmWkxkXRfgPuu+ITrhqKZupvACTRdoSs2hbTPJLA2tbBGBLSNqWtCxrNpvKxs/aT0EHNd2VrVkvsmZh9StGgfJ6eq2rY2q1KfP4gGh8w+s9QuPNHVGF139uxpQva+E755oOczOH/0XKFawc7mxYqMY1AID4bMQuaC10Uxe+YWs5cdYskvoVwm5qrUvNQT+uX1GHqu56r0bvEgyEN7W+ouGfFBjrMxqebqKzM7Xew+s/RL0e0QHPPzNx135MdFwcRhz/2n0pRrmCtYJH+kkNACAeG/MzpOVovmFrOXHWLBL6FYJ0aq1LC0FBqdWhvHguhbD6vR5v2z88fxy+RmWsuzziNWTbFC7HK6RiRUlJvm0LbVjexl37YWxxxVwTmqQtTrkCAMBusLZrwFh3mkFwbXiZJI1rlWnbARZpS8yi/gEALknbErvfuDVgrDsBAADYdtZSAPPoIqnZOXIr/JhI0rhWmTYAANhQNvJLWAAAAMCmszGbsAAAAIBtYiO+hAUAAABsG9CAAQAAgAyAAAYAAAAyAAIYABAK/44xieFvBgAA4gEBDACIhD8kEMck+XgOAAACGAAQAz6ZbJZZKvx1NXy2dLmgjFcOBDAAYCXcnh9OvgEujO/wkbTYRiEyb54gUNceCGAAwNJh4SsPaveOoRxSZXwJ4bBM8EW6tWctv4Rl29wRZbDxA4B1pk8vG0TNC1MY5KjeEvdKSzt3WCt2z8j2a8qHNFGUx/Ty0GavuaXz4wYN1Elch44TL2xfGlyjj+f2uWdtUrp1yPHSEeLWGrY6A5ztIt25xg03kCcz08qPtJFhqvDZj0hjXz8PDZudsj9lXxDxKGt/Go10R8UnrQPlJZ+DMNZWA7Zt8rAZbPwAYM25vaaR5axqDyFcxmXWilvEB23m6ldKSxaGj/zUB0gPRnRw4doPm0SN42AHL4T6RZOKxabUtK9ODhKErd2xfY3aZ67gOubjP5X7Tl6d0W2kQ7qtusJndtichj45hTGdanfDCnV1PmxpCOapbhSiPCvcTROfxZ2vEfVklDdiqHJAxmmnIWFzWhqU7yh7UajucaJ++2FzRFWW2LPiCysvEMpafwnLttEjaBJjjuJ2gXXKb9/xRsfeCBzsGKwtBTQkIVxO1BHXEqldKTfVNtHoWrmbCPHcUYWKShhEEjtsw93jA1cQscAhPpfbFbCllivEzXRQqUw1GtE1BxInbB6MyDCVO9Y6dT5saYikROWaG/fNOE9lMeAYsUTkOPL7/qlnW9hyYBQoHyZgL8u63RNlMCO+sPICoWzsGnCsgYPZIIRZyqYPk2UJu6ThLisdcTDj9qVDjKqrI2oO3ZH2SI7AExIaNlhrpObUpUv5soRGd2VqWwH4vRa6VOF64tPKUiBx2CVqSW2uTD3Zh+gpVws3CcIWwm2yFs5mfkElZCmNb/rUGwkNNHdElZEQlDdjypeXI/qi40tQXkCykQI4ntbO0yhGg7jrUH685AmRZW162NTNFGa65cg/T/t8k0Z+sMFkgyjRiXXKOARDw+SpTm9d0kDa18p2wRWlGccI20MIbEcO2lmwDKlZFNpfMOB+j9ocJs/3xglbDkYapGenYxOSJ9ZO6eyMRpUj0RZyxLe9HtGBb/45BN/AyEhzII1mWUfGZyuvWC98d1l7ARwUtsmmzFWHLxGVojVprpezNiTo0RvbmVqXN6qbbDzwMN3yAMALS8UREb51g4RGhxvHLafL3LTxcixtZ+fXsqklKj6fX6NMLJtg9FrTwJx6k/bMdDnZN+GEhc2PLGmJVVYhcfn8GuEF3UlrW1pBEF4fHVa68t3JshL1gWQnHkAMrE7z7jtmd8fj/ESTVO+e7eWOaqM9e7D/mlvPdN33iArbhhBE1Ci46X1UoG7lguosaIx0PKoSdXggGDts0Q/xDFBV+WfjtYUQzDwFKxinUUjNipL8fNsW2qk3RR6JSAuvVReCafanscDrurqso+KzlVesdOwue47j3L948ULd2uFdxj/99BO99dZbymY2vDv52bNncx2Wz355gxWv8WqBy7u1TeGrd29zut5++21rPH3RgfJSDNU6dKcrEHekaoOBtOJ1ybMDGl7t00vZmlx77lgL41Phj4SA6FFZXDwWdi9FJaVyS7gRguPwmk5MLYzDPia6uDqiy8MCjU9VHBIWNJbwT65D0mMJ94LoeJZbxkuHsI/Mr5svmUTTD98zkX5tZSVv/HFHXtvKKQDH2StHhB2SljjlGkTHFfQr392MsmLMtKbIIm2JWbQtJtnoGNYWt4awdw92gqRtScuyZrOpbPxszBS0TfjOotRS08/lnjsq0ypQjA0JsTceuM793F5SlwKbG0LDF9jSE0YSt5qw/IZtBjEJ8xuWlyTYyonhTk6ny9zMYmPRcg2Ly/QbVVZJ0rqBcGfDQjWuAQDEZ+0FcFDYzvW75VJLrgHX5hESAtF3r3Sjw8oQQiatzSCpwQJtWZtwgiSJy1ZWq0xrRvBIP6nZanLYewDSYyM0YC10Ewlf7hzNRT+pKQV+G2eSm3PjgQ0W0hTYaBER/lKI2ojCBNKTiFl5mRW3xlZOTNRmlmDYi5brohtnkmzqAQAAg42Zgk6s+UpNtepODcppQ6Gp+L7EE2TOjQdW3B/PmxstnH5E+GkTtRHFY47NIB5RZRUnbo2lnG4iNrNYw16gXDm8RTbOxPYPAADT7B0fH9///ve/V7d2stiEhY0fALgs0paYRf0DAFyStiV2H7kJ6+HDh+pyfcDGDwAAANvOWk5B8+giqQEAAAA2iY1ZAwYAAAC2ibX8EAcAYALWgEFc+F1vM1nX46Rtid1HrQFDAAOw5izaltAWdwfd4W8jv/71r+WeHwjgGKDRA5AOi7YltMXdQXf4cx3VumRYhszL7373u60UwFgDBgAAsBLMX6/ENd99953yvX1AAAMAAFgZrD0mMdvMg7m+rQwAAACkCH9NbteABgwA2E74e/D8yVD9V1lnSmZp+ZY+/uVndK3u5P3enjxlbm/vY3GnSWqfDlr47poQfmAe8wcAAD5YYKhvXbOZOhB+k1gnQbxCrj/7pRCaH9CX6p759uMPiL65l9/Y/7H1mj742BWpSe3TYnLK2J2ymY/DQ4ecQ7euOv1bOveu3ed8Xriuy/G/fb88oAEDAEJxzOMW7zqUH8c652o9ye3mUYL7z/9A9z+26D11z9rs119+RE/fd+/2yx/Se69/ENpxUvvkvHr1Su4MTmISMRjRwYWoq50atavHRPr6zJ0JOebDWpSg7+Rjntq2RNZSANteQpThn0kBAJZBnvY9iVWilnfSVJ8crUmwhnHuapfnDt877rnbPu35kDzl2WavtFPXv2u01uIh3Uw0HJ8bX5gq/iAqDj0lbY3LF44wVi0pkHelaU3Sy891fgNuL6UDF19cwfIx7pfN/rv05PsR/ahuPZLaz4B/SsQ/yZnHxEYfD/r4gIrmNT/jY0WJT1Nz60eplf3552urAdtegs0kOTUJAJCMsjr+8ZFPGrLAqZJQJbxpw9aRsB40aFzme+7YhOApjOlUPb8bVqh7zMIszN70L4zWWtjeRGs42k2VO1MOs0F5lZ5hc0TVKekdwBqXP5y7YdNyvKQl76Uc1U9FGD0VZ79H7dop1XMh5SSJKIcthX/HO69JBzGAlOVdpp4c9IQM1FbIWk9B84/JZxkAwPIotZSAKPdcTY0F2+0ldalJJ0H1oWjY3V7TSGobSsMTgm0wGNNNmD37Mf1rrSWI1mqYUplqIrTrvgjT8Js7qlCx3YvuXG1xcdpMextheee0qDj7vTbVysJBmFsmqhx4qvzuSghw6XL5XP9Ar9/L0zvq1iOpfQxsv/OdZVL7HfDtOTlyWoEF8ZCaRVF3Mh7xbP8acN9xK7g2s0bGy0RNfVnfedQzG77pKzZhU3yu8bI99WxFo8Ck+QPrRaklBHHHEzKxEMJsqDU8adSUX5h91tyMaaAuk1OSswW9fp967Rqx/J1JZuXwPj396Ev6Wu2juu59Rd8/eZf2E9vPh+23vlEmNXIixY2C6vcK1K1crG6QE8JWC2C5403OAE0qeYcSdCDrjtmAeQqrYAhT37MmjaqGEDafdYiqqxCMO7oBZtM5NAesUkM8oMe5I6pQg15GNSRebxtY3ITZzwNP9bJGXPKHeXvZpUGtnFyYsRY76NJlVGOIyHvphNtZlUbNEzfuqHKKKgc5SE5vDVjugn7Hoe+/d+idvT3iDczvf/EN0Qfuz4recZ7QN1+4O6yS2qfFRCFY7GdIXh9j9jfetZ6Cds1V1tJXsMUC+JZEO6Tm0D+q9BbefZqgElxKS5vanBFmz/jCMRtNf3qjxjFPMzWoIO79P+ewPLOlLwq5wSAEroAshG1rarLTmd4NaN2uH5JXm9spO1WG0+HMKHuQKZVR1Xsfj3hH9AV3ZDmqX7iDOu9dmZuLJKKzUwM/z798/2H2MVFtRPrjwbXuWI0wC7zT1dsslgQRTicvlCQVPk8LqycTLHnX9ZQFbrFIFW+OPKqcFiyHBMhd0PfuT4jYuLLzffrCs/tC3GmS2qcDC0Tz766wvV/C4vWXgbmD0yRi04Zo4NaNIFb7sI0UIRs1RGMsKu3TP/oKPrtJvqlEagNCO1G3U8gRt03Qnk37E8Jwert+SF5tbq3+NXOUPciM+pV6H9IY65JynXLyrFW3zHAE3NyZGknQ3tNSFMF7jTl7Y07Z+sJU9jqMsL/So8C8l1PtKhxRBym/P50Gdu/FxW1b2fdfCn3XWKNmgm7Ncgo885fPCteA1wQug11ju9eAwwRSYLOFb9OGYe/bCGKzD9tIEbX5Ig5R6TMxtYGzAxqanUoUhr9CtzLtT2rTnC9XO5WzBmF5tbm12XG4zDxlD8CK6BszMFLDTqBJy81XpzHb4I6y9N8Bbxjb+yUsqfHNWM9JAyE0JiNyNoawWTY67qHQni3arQ8p+NSAxEyzVWiX7Nv1rXm1uQ3xD8AimJrqkvB2fXv1Oz7sd66Z7x1hJb8D3jC2WAMu0UmTN735O/++I+6lcE5h00YgHI+ozRdRglI/S5o+7ph4M1WooFPTvnFH57eW7foUkleb277FTmc6rbIHAFjh383y2bvrZoK/7U1qtpGtnoLO1a/cNUY9pSRMlbizF4IhrU0b1o0UIRs1hKA8VR82mPqmru/Z4+TpK7VUXg/pnIWdEHLe9PSjMzoYJhidCyE5vV0/JK82tyWLnbcWkFbZAwCC8GHxtt/SbovZNvYcx7l/8eKFurXDn3rkEcxbb72lbGbDc/dcGeb5HRf7TfKFK34xqf5eDIA1YpG2xCzqHwDgkrQtsXueQm82m8rGz1pqwElHcQAAAMCmsZYCmEcXSQ0AAACwSWz3z5AAAACANQUCGAAAAMiA7f0SFgAAALDGQAMGAAAAMmB7v4QFAAAArDHQgAEAAIAMgAAGAAAAMgACGAAAAMiApX6KEgCQDot+ihIAkA5pfopyaQKY/QAA0mNeAYy2CEC6rL0ABgAAAHaZjTyMAQAAANh2IIABAACADHjw5s0bdQkAAACAVfHg4cOH6hIAAAAAqwJT0AAAAEAGQAADAAAAGQABDAAAAGRA7N8Bv3r1St0BAAAAIA4Lf4ij0WioKwAAAAAkYSEBDAAAAIB0wRowAAAAkAEP7u/v1SUAAAAAVgU0YAAAACADHuzt7alLAAAAAKwKaMAAAABABkAAAwAAABkAAQwAAABkAAQwAAAAkAEQwAAAAEAGQAADAAAAGQABDAAAAGQAvoQFAAAAZAA0YAAAACAD8CUsAAAAIANwHCEAa8rf/M3fqCswi7//+79XV+H84he/UFcgik8++ST0/FqUYTyiytAEAhiANYUF8D/+4z+qO2CDO7r/+I//iC2Af/rpJ3UHbHz33Xf0xz/+MVIAowyjmVWGJhDAAKwpWgCjw7OjO7qkAvitt95SNiDI119/HUsAowzDmVWGJtiEBcAGwB0ejN8AsOlAAAMAAAAZAAEMAAAAZAAEMAAAAJAB+BIWAABsErfndHh4TrfqFtjhzVDrDjRgAMAUt+eH9OjRI88cnqvuPtj59x353Omr+11ElYFndrow0oGFZxoCdN1/t4wvYQEAfLDwLXQrNLy7oztpOpRvFCZCWMPCuDqi5vCOWiVlt2PIgUqVqOOV1R11qEcQwemw7gJ0UaABAwAM+vSyQdS8qFNO2RCVqDVsEnUvJ5ovC99ClyrDK6pPHO4Yt3TZFWU1bIkSmlBquff+WYRDkuMXNYNw7kw05onC3CfHc6/s2b1np8LYcljzffr0KT179oxevXqlbCdacVA7DrPXBO1sbrICAhgAMOH2mkbFCh0FhWpun/KDMd3Imy4d77zwFdxeUneQp/2QMsjVrzyt+K6Tp8ZLJWkHDRqXtX2N2mc8pX9L54dSlfb8tEpCIBfGdKrDGFaoe7wba7+s+f7888/etYaFsjamIA2z1wQ16XXRrCGAAQDJGBBVmkKg7IgwiKR4QI/V5RSm9lptE42u3fIqNulEq8yPD6jIf1mYk2HP8GCI2lTVYRQaNPAGQbsLC2abcA6zZ21aa9IsnPl+XYAABgBMkJpuly6DklVqxkrYsIZcb9Gw0qWCs8OrnWFlxXhT9Fp7bbqCNilCWE/W4tn4p7u3Da29ssA0r9NAC2X+qwV11kAAAwAMSnTSpIB2y1OhDaH2HhnrwjzFekHNUXV6c9bOoMqq4Pg2XfUddW9M5d9ednniIJzcEVWoQXqWWiIFfMBuBzCnk9kwi04Zay14nbRfBgIYAOCD1y6ldqunPt1tvnQ1teCbo/pVyA7pHUGWVXM0mSYWpkplKuXqdJpveGV4PM7P0IBFWV40aVSdhOP03c1vpt2jHfn9r55ODmqqWjMOTiWH2QdZJ+2XwWlIAKwp5mlIOHxgGu5scRpSuugyzfI0JJuQZDsWsloj1rA7TrPNntFhacFsCzttZpWhCTRgAAAAa4NNQJp2fK2Nic3evF6F8E3Kgzdv3qhLAAAAYD0Jm1qOs64bx00WPHj48KG6BAAAANaXMA02jma7btovgyloAAAAIAOwCQuANUVvwkrrd5DbCDZhpcs6bMLadJJswoIABmBNYQH8Z3/2Z+oOhJFEAGMwM5tZAhhlOBsIYAA2HBbAIB5xBHCj0VBXYBZhwgNlGB8IYAAAAGBNwSYsAAAAIAMggAEAAIAMeHB/f68uAQAAALAqoAEDAAAAGfBgb29PXQIAAABgVUADBgAAADIAAhgAAADIAAhgAAAAIAMggAEAAIAMgAAGAAAAMgACGAAAAMgA+S1odW1Ff6gjzs+V3rx5Q7MO+I8bXtruGKRvGqTPDtJnB+kLB+mbBumz47oj+p9SWUTtMUcLKgAAAABJRU5ErkJggg==;" vertex="1" parent="1">
          <mxGeometry x="1040" y="-31" width="307.96" height="290" as="geometry" />
        </mxCell>
        <mxCell id="6MqGrB4b9lXM-VsAvl01-20" value="" style="shape=image;verticalLabelPosition=bottom;labelBackgroundColor=default;verticalAlign=top;aspect=fixed;imageAspect=0;image=data:image/png,iVBORw0KGgoAAAANSUhEUgAAAYMAAACYCAYAAAAGAoX+AAAAAXNSR0IArs4c6QAAAARnQU1BAACxjwv8YQUAAAAJcEhZcwAADsMAAA7DAcdvqGQAACPcSURBVHhe7Z17cFTXned/LR7GxBjhOH7bY4OASVtxEmyztsjDeQgvaGoiage5ams3MH9YgKdiOpklKVXhKU+WXW2iylhipoLN7ANmpzI1UlLSTFaisDaz3k2Q1zLISQydgIRCbDx+JNiAHT9Aouf3PY/bp1u3pRaSQI/vZ+a4+95z7rnnXoXv95zfubdP4tSpU5kLFy5IJpMRfPrvcQn4T0IIIZOXRCIRfSKVlJREn0izZs2Kvpu8119/PTMwMBAZAc2AEEKmFqEuhybgP30KjWD27Nkm+e1EKpWiuhNCyAzja1/7msyZM8cYQmQGTzzxhMsmhBAy3fnqV78qX/nKV2Tu3LmRIZS4PEIIITOIwcHBnOkBmgEhhMxAYAY+0QwIIWSG4k0Ak880A0IImaH48JBPNANCCJmBhEaA0cFFmME+2bSqSfrcFiGEkKmHDw8VZQb7NiUksWmf25pI+qRp1SppGtZh1ISClydWucJoY24TUS6vrn2bClxHbp2J/OMMeWVyjDC+TfGMpiwhhGSBZhw6dMhtDQV5KDMavAkUMWewT9oO10rt4Tb9drmBkO6QZG/2bejt0m5EeU11rexuC1rYd0ykQiTd67aVvmOHpSK51G3lUysdrs5MR7mkNgRiDxPJO29me1oazOkKt2kooylLCCG5HDx4UO5f9alYQ8A+5KHMaIAOFTcy2Ncmh2u2SXX5btkR04vtbVoV38vta5JVbj9S1CHH/iG96k36X4wKlkqqq0tSS/WYuBCUCvzhihqpKnPbypqtW8VsLk1KxeFj0TF97c0iNTVyODKIPjG7woMLsaZaarvSYn1E27f2sDT2HpCt4aFrnpKn1ujncG3KZ6Sy4T3zN8zdryaMzvQ+bcofAYX3s4jjCSFTl7vvvluePfCTIYbgjQB5KDMafMfUpwJmoAK9Y7eULyszPe+u5rxebFdKdsheV0mHlKc2uPCKCujSZqnxPeDeRjm8dqTwT5lsPdArjRUVKrx6zIEYQS2rkhpJuR55HiavWdrdOXrT5VK9dZmURwbRK+muctFLGRk1wN211QKtt9+35xpByHBtymfYsrn3rEPWZkVf73O6GvvVgPJGQDC98u24V8UdTwiZ2uQbwliMAIRhIqR4M+hrl+auWqmGKpreclZsLbWyPVLJNbKt0YVl8gW0bKvs9XljwhpGcoft5eZqapksK+9y50BoKylLtU3V5a7N6JV7gY9lt6z1veq2asmYbr+lcGgJDNemfIYpm3fPYL6Hj/mb7f4GAH+H3T5kh9GOmh7yij2eEDLlCQ1hLEYAQiMoaAbodXZFAqrCWtslzaEbVEBwc/ECFCegWXEaCxBUNLpa2sJwiBLNG2C+oKZKS5rokTEIEzYaVtTdnIGOYioisbV0jehihds0lPiymM+Q3WutGSGt3Z09b859xt9ht5jBAcy63P59ij+eEEKyFGEG+6Qh1ZUjMKov0pVqyAplFFe39Ka7TEgJxAmozxsf1shT2vAO2ZENP6HXfPiY7IPwu3OVVdl5g950kfMFZhRzWNZ6Qc/piY9ETJsKklu2bFm5VDT25v5hgtFJiDc9EyJyXf7RHE8ImdqEoaEwZDQeDDUDhB0qGqU3FJcMYvquV2oIJpX7mmTH7iCktDsQRM3bkHLhjLJlUh6Em/qadmgtnjDUE4PWsylHZfdJW/ZgZakkpVl2hIMAnO/wDm1bkfMFStnW7UH7Ef5ScxgS1tlkY/IjtilguLIYwoRGu6+psKEY02uTBh8iAqM5nhAyZcmfI8ifQxgz+AnrkI5aydR2uI2QjtqMmIyOTG1FY6ZRy+nhmioyjeocEb2NmQqzPyYPdbi8isbGTK3Uam0On6d1h4d4ehsromOR8tto8vOOxbXYNhdCryVsgzKknqDNJgX1jdSmkGHLhufwGbiPMfcC16QjAbflGMXxhJCpx8GDBzNzrphnPvMZLq8Q0P1nn30288ILL2SOHDmS6e3tzXA9A0IImeQgXK9iX3CyGCODe+65x0RyigHrGTz00EMyb948s6YBUoFHSwkhhEwWIPLDPTWEvGKNoBA0A0IIITQDQgghNANCCCEKzYAQQgjNgBBCCM2AEEKIQjMghBAi5qWzxx9/3G0SQgiZ7kDz+dIZIYSQIdAMCCGE0AwIIYTQDAghhCg0A0IIITQDQgghNANCCCEKzYAQQgjNgBBCCM2AEEKIQjMghBBCMyCEEEIzIIQQotAMCCGE0AwIIYTQDAghhCg0A0IIITQDQgghNANCCCEKzYAQQgjNgBBCCM2AEEKIQjMghBAiiVQqlXn88cfd5viReecZ941cDhJXPeC+EUJILtD8hx56SObNmydz5841iSMDQgghEz8yuOqapboxKImEyKzZs/WM+uVCBiUkgw8Dvuh+/Nd+OOzGhQsXTApJaMGSkpKgvPuCD+z0afCCDA4M6Ln0HAn1voS2YaqT0XuRGXAbSmKWvPNmr9uwcGRACCnEZR0ZQIsHzg/IwLnzMqDiPDAwKIODPqlgu+/Yn00oNzDECADEPbe8LTtwXr9fmGvT4BwZkCskM2ueO0jruXBu6qfQCAghZByYZmEiHQlcOC9y/O9Fju7R9Dciv/wfIi/t1zyMDDBsIIQQks/0MoOSOSLvvS7y80aRn/2Ffj4h8kK9yD8/IzJrritECCEkn2lmBrNF3j6ho4MP7NxAYpZNC5do3hU2VkUIIWQIl9gMMKmrpwxTBPJUuCHoRsRjQjpRPlJc01XsMS9wzV0i190j8pEVItdXiCy6Uw3CxdnNxHJ4fncefEfdpv6YcwNzrDOYKMW1IyA8V1jWbBe6DuDaadqkIx5/X3x7CSFkHCmkRBMDdAy98yi5ieFZ2muH2J1/W+S939hPNA0iCIFH3uwrRQbf0/zfinzwpor7oD0uZOB9kRs/LfKpvxSp+I7I/ZpWPSFy7Sf0WM3zhG0w9bvzvPeGyPtavxdijzn/h/SL7h/4nci5szadf0cP03bMnu/qyMdcsD1PzvXOsxPB5jr0E/WHIKSFaxvUvPdPibzzsv3E9fs8QggZRy7Zo6VGAF/7sUhfs4of4vcqjBDYFXU2tHO8ReTUT1VgIXgqdot+XyS5SXv55Zr/a5H+H4i8qsdDFCHUH7pZ5Pf/WOSG+61oYh8mj1/8KztvgF40zjv/BpHyR/Scev5BFfKfqkGcU7NB+cEPrHnc9Bk7x3DqZ9ouFfDr/5XIJ/6DtkMNCG353T+LvPIjkd++oML8kjUBgDzU/2E1m9/7A9smbzq4xjO/FPnFf8+aQIm26c4tImd/ZSe3331N5Mpr9Tof1nZ81rZ/trbzrV+InPhHbc9ha1C4DrR33of1fnxMz7XWjn7QfpiNXisfLSWEFEvco6Wz7rvvvscfeGAChOOcCrwy90oVMAjWbBXOX7VZ0X9PRfBtFcSBdzWpsP5Me++nfm7FLaOCiP1njrr4v25DwE8+bUcMeKwSvWn0liGat35RRVl75hDLD9QoftogcvqYCrjmn1aBvGKRyG1rVIi15w7xxeTy2T7NP2nrz2hdEPrX/r9t5wenRRYu03ortV495tftIoe+KfLyfi2vRgAjGVDDguif13b+7hWRN7pFXtfjFyXVEG7SajBaUCN59f/Zp5ne1TIwNBgZ5jPSu61h4TrOq0HdXm2PA31/L9JTb+s8p23B9ZukZT94y96nV/5JZM4CNSE1BtwPvfZz7+koIyAx93b3jRBCcnnmmWekvLxcZs+eLbNmzTJJFfRSgPCKiid62HN0NIBRwuyrbA/76P+0IRf0iH1cHJ9zrhZ584gK8X9SY1DxNqEY7W2bOL0m1PPuq9pbV3GEaGPfOyrwZsSBHr2rb2GZ3UYbEAKCaZgev+bPdec4pQnnh+guuE1775ut2J5Ukzj0H7XdaiIYxfjY/YdutNuIAqEelIW5HdVRAOYmcA4YyztqAmgXzof2Y98JNRfT09d6cL6l/1bkunvtvvSTdoQC05uj9wd/HhikMUm9Lpwf+zESelFNDYaBdhNCyBi5NGaAiVf0pN/R3nH4BjCEEwKPkNAVpVYQQyCkYK6KLWLlPtziQXn05M38gtaL0QJ67UaMsRvCfYt+0fOjDaZnrkKaP0GM8A2MAaK+7Mv26aOz/SJHvmvzcW609crrRFbuEPnC34p8qklk/s3aBt0PYA4YqWDUg2tEO9AetMGD9sMAYGQIDy36qMjif2Pbe+KHNnSEc+GeoJ0ogxDXJ7aJXK1twrEApoD6T/yD7oOxjP3PuLq0VEpTnW7L0pnSfat3SX//LlmNT7d/wsB50A6XVu/SM+af25RZLciydEqqNKX/DcirpzSnvKMzFeRr8tce14Z8iilDyBTjEpmBiu37b6pQomfuBN7EuvXjE18T+Zz2qO/7thXk0BB8TN/no4cfGgKEdi560FoXRgQI/finhlAOveYFtzrB1PMijIRetTmxK4P9H9c2fPHvRCo1IfY/qKKLcNbZE1aYMfkLwf3k10XuUPG+4hqRGzDXoAkjHg/CWzAAjFTQdoSqoutVYIjX3S3ywH8V+byOiFbttPMACFf9Uq8RZZEQusJcxH3fEknqKGX5BpF7HrNm5a8f8xUwHzPZPg6s3Cgb0w1Z0VTBa0ivlJX4vniLPP30FllsMiYKFfUVrbKu57ScPo3UIsmjx/XcZZLsPir6zdC/v1Xbqr4Z7eiT9MrlolaZy8p66TH1aOpZJ60rsobRv2u1lK4XafH5mlqkXfMLtCGHYsoQMvW4NGZgeu0qeOjNeiGGWF77SZHb/9AK4NV3qLBjdODEDqYwT3vGd6VsT/3aj4uULtP9rncMgUaI5qrbbFnUDVGNeuIwA+2Bf0jNAL13lEGYyjxB5EAbbvvXIktqbPhl7iJ7POYBEJdH/QY9BmEejBZ+sUvkGN5s/m82fBU+RYS6USeuByEpPBnlzQDXhdBX+Z/YXj6MDeeEyfz6f9lzmrq0DtSDEcqH77IhtHNn9Dr1OhCein6KQu8jrhlGNy4sl6p1Iq37rRt07qyT5DrdAdATDkYIuzBi8L3xnF6y64GPWC6vJx+RlLLIcSqlsbHSfFZtTEufM6njR5OybVtS0tkdIuseHN6oYCjuqzZE4Cf1PY1ac5bKRr8d14Z8CpQp5l6YMuH1ByObYo5HOUImgEs3Mjij/8uGeEUhGhU8vANget4qlO++YXvuPuSBkMg1d9oeMo7DY5UQxqjJeszchTYf4omJWDyl48NQqBNGgPATQK8dYu7NAsdAkG9VM4BR4HwQWggyJmnxFA/CRwBtwvwGJqcP7hA59J9Fnn9c5LUDyLQGgIR6cD6UNxPkwfUiH+89lC63bUVZgHoxeR22G6aIp6TQZjPq0TrQPrPtrh/lMKpAWGmcWLJlmyTrdhrBakjXy6MPuoyQ7jo5WoUeMcQTveSjss33sNED3+xCOkPKqbm02HI99WlZnxeSsqK/R9ZDCPPylugtsybVL31qWksqqyTZut+cp7N9jySzyhxPZ7vs8aOH/v3S2h2KeUjhNmQpVKbIe6GjrG16fLs/FG3bWDWKe0nI+HLy5CvycO0jUmJ+zXMigRgi/o0QjhdGCBl62ujpm3kD9MZdvN+LHfYv+D0ndnrc+2/Zp4HCnjbEEOKNfe++rsKqZhGZiR5/1S02nAIgpKb37URXVIyv/IgdkaB9HtSFchBvP4rBuVDXDausSPv0kXvtOwwY4WDkctMDWk7bDAFHuMg8ZurqwL5ryvX8uJ7gnuPceGooui7NMxPcen/83wZhJ0yOmzCbvz497hrt72I+JaxvTDihg3BvKxAWWqkm4RUJIRpxwoikx3X7kE5+uWB78YPrZOUehGVyqWx0QljVbutzYovyJi4EIZcybdcStQScR80hvVGq4hRSBXSFb1fDcukJw1xxYSVHoTaExJYp9l4olVUbZY9zg872tNQjcxTHEzLe3HbrrVJy9ix62xOJiiHi6ng+PxJiFS/06hHigWhDCCF2KGcMA4KoogkBBuihwyxCcY16xiqUyEf9AwjRBOKL+QKIrzELNRITX3f5g3pehGswmWt+UjvA9Nr9Pv2E8OKpn888aV9mW9Uo8tmndHuXfuo+fP/sX4vc+00b+oGpwQzCtnrzi8I8DrTNhKPc+SD2g2pceCfCTyajzIk2rVf3Id8YhprcTZ/DAXZ7nKh8tF5WSgGBjUOFKorNmzQOvdfKRq2nRTZ6w0CYB9+PH5WkadhigT/09R9XSygg7L5dPXo9wZyDnYNoFRcNK0x+G+LIL1Psvah8VOrTOKZT2tPr5EHvUhNxLwkpgpdefllKXnoJojWRqFghFIJ4ve/9ml67CrV5fFKFzMTztR0QTWDEDvMBWsaYhZqI72l7sUes/AqMDNDz1304/oI3C3c8niRCncZsYBbB8RBljArQC0fIKULrxTP/UQ/e1ffmi/pVP+fpaALljzeLvNgkckTNoPdv7ZM9/mU38+QURkKB+eFaF9yueaEZwCTUjK5WNfBPCkHsEQ47pnVixIC5hxf/UuTXHdYAAEY5N37GPpIKAxxPMFlcrAgZYa2TnQXV0pFXDpPA3SY0EoDYeNgLz5kYtvMGDQ1pWe6UX6uU1s0Nkh5xvkCvp0W0x+3j7ZWifid1wYQy6Ezp9rBtcBQqU+y9MMDM0tKeas+2f1THEzK+mJHBmTNn3OYEAXFE2MXEu72Qwwx0VOCfkTc9aRXPcOSAeP58vMClggmzQH64rgGqmn+dHqMjAyO+MDVnNr7nDDOB6ENgc0I/yFexxzsFRvAD8LTRR+62cxHmySMFxoKfwX72GyJH94p0PybS8y37KOgRHRUc1BEBXi4z59I2+JfR/JwD2g+DwdNAofGgnWj/zZ/X47Rdfh4B9wEv6P3vfyfyf/7YTlj7e4fRDd6dwES0CRkF9V1yKqVRe97p9S60gYSJZpebJbfcirqktORPzC5+UNal12frwRM7T2ZDO5g36JagF212dI88XwC0B2/mKdyk7OItT7ttdy5N60XNaYQ2GAqWKfZeWBD6Su8R2bbF1z664wkZbxJf+MIXMz/4wffd5vgR/RzFdR/X8fz3RA5pdwxvIQOI/ydVWJf9e/2uQn7uLZF/2mAnbdGbxlu6H9bjPv1dK9roNf8kJfKb563Im7CIpvsbVEg/Z981+L+bRE4fdeVVlDEq+LwKtB99PLfdvkXsH0+FwCO8g9CNF30P8k5qF+0FFXw8yRP1yLWtEGwIPsJTOA8EHz9H8bGv2B/Ew7l+84LIAd02oxoVbEwYL/kjkbvVRBByCsM6ZqSiCe809GkXFvm4BuzzIyV8xz3AuW6oELnzERviMmEzZPPnKAghxRP+HMUbb/xG6v9Lg5QsXHi1y54goHvo0S/UHhB+5gG9Wgg9XriCwEEMERZZcIfItdojx2QsxBVhECPCWgGeJEJvGT/3YOpQIcRkLrYhuAhDIfbv8yGUEE3/1q8Jpeh5MOFq8rUtt67Wz/ywjQMie+uDIhV/YevB+w8wETwphMddzcSzngNl8BIa5hBwbhPGQpjnTTvywZNDC5fap6Kuv9+Ido4RAL/9sUe1nu+I3PJFF/7CXIgm3AOcHxPW9/65ffcA4S1vBIQQMgZuueVm+evd35XEl7/85czOnTvd7vEj54fqTG84L5wBofPk5wETAvGoYJqYugq6QbdxvBFXPdYkF2IxaD5GGGEdaEPO8Sqy2MwX5xAIMc6LkQeeVDI9fT0nwj0wH5gNTMo8VuqvQStFuMi0x59PPzGSGO5cpoyeD8fhTWm8yYwRBUwIbz7DhJCfcy4HRwaEkFEQ90N1iQ0bNmSamppckfEjxwxMXBvCHIihEcZgO0f8lWHzjYrr/weiOOp8zRtWnB3mOE0+nGPa5OrOb2OEljPHBXkFy+aDY9VwStx5zbnUIMz5gusJoRkQQkbBY489Jmff/p10P/e8SlWJylvCP9Q/wUAIQ0EzopYnjGHeiPmurpBR5xcjzIoprz19jBAwujCf6Pmj/kJ1FHG9BcGxWj/mMRAKwkggOh8hhIwd/Erp5k0Py/e+9zfS0vw9aWttkZLBQRWtiaRY0SUXD+8xIWQMvP/++1Ly9tvvuM0JAiEPpolPhBByEZw5c1a+3fAdSXz605/N/PCH/+B2jx9+zoBcHjhnQAgpRDiBfKjnBfnxjw9ICYYHhBBCZjYl119/nftKCCFkppH86EflwoVBKbnpJrf2LiGEkBkHXjz++rY/lZL58/FDbYQQQmYqmDu4NO8ZEEJIRL/sWl06zAJClwmzLnbMetkzBJoBMZhlLd13+491jP8o8FPPE/mrm6gfv+yZJyhDFvH35aJ0kdeVV8+kWQR/1O3qlNSwfxfNj+oLf+Z7vPajyZulLtkip/HLtRfT/gL1xhOWRwqWEw32m/NifYqWpNT5FeZmGDQDYlgnwYIvZkWx4OeiL4ZLsYh+sYv4h4vG5C2OXxwqKJN1EXws+OOWEzXtqttc0Oz6d61W4Vsve9x2HJ2p9SIxy5OO137cy511Yld3A6Nov16BdlKy9WpxWV9Uh2OjHuLP8bSYXw0vdF4sPCQzc10JmgExYOUwvxh+ziLzOT2ooFel/wjDRdqt0LhyYc98SB1OiHPqsCmvk28xxxbqzRexiL/dyoJFZNxXS27PEW0Yci2m3CRdBF97s9mlIZbIcuOE8WAdB7Pym9seSqe078mucmeWJ0336fWP137FrEcddDQKtT/uvshxOdodrMJXWSUb/Sp2seWHoeB9w8JDKyXdN1IF0w+aATEsLktKt+vtZheZR4+4iEXa9R/iZixY48q1JINlJk0dBRbDj+rQ1LJR9jTEiPcIFLWIf0i4OL6eLaenqalxSdy1TJFF8MdjRBdiVl8L/5aOMezv70vLykKr00XtH+a+SFqyOg0Rx/Zw5UF2benYMFTefQv/LcwkaAbEgl6WWcs3WGS+2EXaTW8b5WwvtrIxEDCzLGSBxfDDOpYsj++xmmU43dA+liIW8VdhjV0c34hA3mLzBa5l8i+CD0FUSctfmW3KELS/4H3BanAq9Cvc/tIVUtetIzYZ5j7iGG8SsWGomPuG/y36kcwMgmZAHHad4b5OFchksD6xitLIi7T7f3BV0m7+QY4Q2hhnRlzE318DQiSRSBRihGvBJKOKyuRaBF8FrbRBlvcMZ5oXgTHyvDWgwXjtj4hpf6H7YjoHbh/+nr7eou5jfhitwH07flS6k2VT1FQvHpoBiaisSkrdeu1hR8FeDO+LmEzr3yUp092CkPZIPYbuXnHz6ohdDH84tO7CcwYOIxBFiCjKhYvjYz3j/MnCuGvp1DaE4SEvbsXeH8MELYJv7k+MoJn9RZhyTjk7yvLhLPO3MqI4XvtxyUnpbt2f7XXHtb+o+9IvuzbX2bmt4cp3prJzURgJYiSB8xS6b4oJZS0vbF3TlUltBr/9/rdl0S3VQeqQZ2/+kpTePFe+4fZ94+dfcqUtpe+dkCqXV/V9rEmcpfTnHTn1FKL05jtlb40/Z27Kr9MTtsmn/LYVup5JA0JFOT1sFcRiFmnXf4xSt8KVWSGt656ULdG/pdw6YhfDv5Roz97MWxiDWSxbnsy9vtTxmGupnLyL4Buh1f+ri0InhR/PNBPjJoRiw2Y50x+Oykbjlqae8G81XvvtpG/2ybX49i8pfF/MuwDYh79Njzxt7uUw93HJ8ux+vfZki+00FL5v/bK/tdvNmc0sEqlUKoNfsBtvxvKrpRDWTYm1sttth1Q09sqBqnZZtTQlXbpd25GRb92V/dXVZ79ZLWvdgSjb/kdHzHcIfNOqpZLSg/KPyQeG4usfSoU09h6QDVfa48N6h1DRKL0HtkqZ7Bv2enwbxxP+aimZrMCUVhzdZt8zmGzAbMJ5pWlK3LKXk25kYMXVCWdth7x1si1KHbUVUlOlPbeICkliVU0Hev7eCED5sqDsvgYr2FrncEYA+tqbrREE5+9trDB5IcY0Et4IaqUjk4nKZzpqpaKmykxuFX89hMSB2Ha2B5tNRTxCOQlZvOVJqcdIK25ocjmBEaxPS/2UnYQfG5MvTORFGz3wbWvMLs/9f/b1qEduKRev92Y0ASeoqBXV2ByivJg684EZtTfbbn5tdUzZihqBfps6/ejBiPxauf+VbNtO37XW9vhHdT2ExFEZPBETpqHx7qnBYtnytLZ/so0MzMMBU/Wejp1JPGfQJakNTfLbuJh6b3pICKevaYfpfddur8ahSnbU4PMqGveOLL597WK9oFa8F2DEsdQougr6XoR9VOM3ud4+QkFPDW8wlmGuhxBCLjOTzwzWVKsMO7pSsjSRkEXfnOt25FGRFOg9wjUbINbaQ8/qsh01oAffYIS8VrZvHTkkE4WIVOrX4ty3VEvCjyp6D4ipoq9JdlgnMOZwbTAiGMJorocQQi4Tk84MTr9yTp7K9EpOiH732hwB7Tt22H4pX2Zj8hsQrokPAfkefG3HUzlhnDjCEFEumA9wRqBEhuFCRsNRzPUQQsjlZlKGiU6/ckQ2NLdJJtOR7VUfPhYfYnEx+SgE1HdMjFVg1OB78MGkcfbx0myKHgENQkSYDM70NqrFgN2yo6nPfNNCWcNQMxp2VOAY1fUQQshlYBLPGdhedbVXzxjhrUgecxPD8SGg9oahI4Z9bSa+E5CdG8g+RVRtRxFlVVLjevRd6V77JWSUgj7S9RBCyOVi0piB6bHXnMgRV7ykZR8VzRX03rTrmTc3Dw0BRZPLzdKsmfmTxvf/WfbRTpvsU0BxTxGhR1/l3WB3m+yz37J0pWRDNGKwYaa9Nd+Wve99aVTXQwghl5tJYwamx+4nWF34xj7BM1TQPV1dmh+EgHLQvK4CI4ZYYp4iAmXLyt23w3JMdR8GsXV7FOzRJi+N2pvAOwdi5xEu5noIIeRyMWnMYM1TQTzdg8c2M5mcN3TR+/bzx3E97GhyWSlm0tgzJETkiZ4G6pLmdjsKwDsE2fmELHib+K3m2034p9jrIYSQycCk/DkKMnb4cxSEkEJMiZ+jIIQQcumhGRBCCKEZEEIIoRkQQghRaAaEEEIm7mkiQgghkxM+TUQIISQWmgEhhBCaASGEEJoBIYQQhWZACCGETxMRQsbOwoUL3TcyGXjkkUekvr7ebQ0l7mkimgEhZMzADE6ePOm2yOXkRz/6kTz33HM0A0LIpcebwYIFC9wecrloa2u7KDPgnAEhhBCaASGEEJoBIYQQhWZACCGEZkAImWH075LVq3dJv9skFpoBIWT60pmS0tLSbEp1ugySD82AEDIt6d+1WkrXi7ScPi2nXWqRdqEdxEMzIIRMQ/plf6tIfU+jVLo9oLIxd9uEjKKRQyoyCmMkfr8PKeWUXS27plmciWZACJl+9O+X1u6klC1227F0SmpFnSRb7Kihpz4t6xFGUtHfXJeMRhQtyaNy3JQ9KtvcvtM966R18/Sad6AZEEKmJyuXyxL3NZb+PkmvrJdH3VBh8YPrZOWedulcXCZJ2SPr3UjBjCZQ1uxzIwM1ke5umMT0gWZACJl+QNC7W2X/RXXdK6XRjACqpN2IvwsfqXH0+JGBSXkhpykOzYAQMg2plEfrRepWZOcBQGcq2DaGUSc73Y7+/a3SvbFKRwG7JGUmBGAKPVK/Mi19klt2OkIzIIRMSxZvedrOA0STvqWyXlTsXb4R+556Sa+3eSswT9CouWoS6iLumBXSuu5J2bI4t6xJ0+xdBf5qKSFkzPBXSycP/NVSQgghF03JqTffdF8JIYTMVEoOHexxXwkhhMxEMpkMw0SEEDITgQH4BGgGhBBCJJFMlme6un7iNgkhZPTgaaK9e/e6LXK5KeZpopqamtwF8WkGhJCxUldX576RycJoHi2dM2cOzYAQQmYafM+AEEKIIZFI5CSaASGEzEBoBoQQQqSkpIRmQAghM53QCGgGhBAyQ8HIYNasWSbRDAghZIYCE/ChIvOJn7B2edOC3t4++dWvTsiddyZl/vwr5fnnD8mNN94gyeRHzcVPNOfPn5eenp/KmTNn3J7hueOO22Xp0jK3NToGBwclnf6FvPrqa3LvvXfLokWLXA4hhAzPww8/bN4vQJo9e7Yk+vv7MxAwCItPFy5cMAm/WZH/Gf6WBSGEkMlHzlxA0Pv3oSGIvzcBnxIvv/xyZmBgIDIB/+kNIPwOaAaEEDK58UYAQjPwoSF8elPw3xOvvvpqJt8IQgMIvwOaASGETG6GM4PwO1K0/4033sh40YcZxJmANwCfCCGETB5CXfYm4A3BJ4h+aAzeBOz3EvkXBCq9vTH9SToAAAAASUVORK5CYII=;" vertex="1" parent="1">
          <mxGeometry x="1040" y="280" width="305.53" height="120" as="geometry" />
        </mxCell>
        <mxCell id="6MqGrB4b9lXM-VsAvl01-22" value="" style="shape=image;verticalLabelPosition=bottom;labelBackgroundColor=default;verticalAlign=top;aspect=fixed;imageAspect=0;image=data:image/png,iVBORw0KGgoAAAANSUhEUgAAAOIAAABpCAYAAAAnZ//MAAAAAXNSR0IArs4c6QAAAARnQU1BAACxjwv8YQUAAAAJcEhZcwAADsMAAA7DAcdvqGQAABnISURBVHhe7Z0LdFVFloZ3CCQBISFAWnmDQRBF7DgQFLRhJM1DbAWNra5hZhRsabF7oB0H8TVtu3p6kNW2slQG1AYZpZFZIIw2CogKraIENT5AEcgYILyUQAiv8ApTf53z31s5ueTFDbkJ+1trp6p27dpV59yzb9Wpe29O3MGDB0+VlpbKyZMnrRw/flyOHTsma9askfnz50t16NWrlzz22GN+qSz5+fny+eefy8iRI2Vl/korLitfWiltDrbxS2ePlKMtpE9GX7nn8fG2/NzDz8pnX34aUbc/8YAt1xY5a9f6uZqR2bevn6s9/vORsZKQ0EROnTol5o+YvzaPolf28rbezx89elwef/IVNG9Q3HrrrZKeni5JSUnSrFkzSUxMNOcmQZo0aWKlUaNGVuLi4spJkKgG4p49e2TQoEF+qXqsXGkCsc3ZD0SAYGx6LMnmjySU2ICLpKtt6kMgKmFiNhAV5VwimoHYyE8VRalDNBAVJQbQQFSUGEADUVFiAA1ERYkBNBAVJQaIyY8vHnzwQT+nKPWTSy65pP5/johA7N69u19SlPrFxo0bqx2IujRVlBgg5gMRs/XZFEWpC3RGVJQYQANRUWqBAwcOyJEjR+yeC1Za3q9RTo8GoqLUArt27ZK9e/faYMQmaGVoICpKLZCXlyfbt2+3MyNmRZ0RY5m86ZKVnCzJRiZMmOCly/26umR5DI2lnoIZsbCwUA4fPqwzYnRZLhP8oKFkTc/z62pCnkwfN1lyMqdIbnGxTBvhq+uAvOlZ5ngmmCNUosWhQ4ekpKRETpw4YWdDnRGjgZ0hsmX9lFwpNkFjZcGdfuUZcmk3SUc6ZJr1O22I1dYtsTSWego3aCoLQKKBWClmJsyeLXLnAlkx3oaMh7lYQ2VniVlmSefrs8yyM1RvKzG7ZsjkHJOdnW30WTJ9emA5WMZnlmRlIfVnreDS0ZaNDztB+zP3hOkyHW2yppu519H7wraYDTO8gUi20dtZPui/2senVBcNxMpYvsRcoiYOR5xmesDFmDFZxJ8tc6dkmthiUHjkrO8hM/06mT3V1A2RacW5giICvLh4hYzv5tl6mKAxPrlsLS6eJJciVqrD7MleoFvMMjhriYywvooFk/nsbC+o08ev8MYld8oCU1fmzQbU6Pj8CqXKaCBWQt7m9eZvpvQIXJ8kb9lrkmPqbxrqGaSPn2Qu6Rx5bVn4asy8aahdfqZ3u9T8zZFvK7tQGfyTxnvLVhkiI6q9EvYCq3gFfKTL+BXTjBePIdbZetlchYCpleNTyqGBWAlVu7gulW7edRoi5wyuxsqCv0rcOSIUeGD5hPDSMhlL7WoR3eNTyqOBWBnpPUxImBXXkorufcrPLplnEEVRn1nMPZ93m1vTjaboHp9SHg3EykgfLzPtvU922Y8rzMWNcvrQm0yghpdqedOnmmVleClXI4aMMMs/J/jNfdpUdxLz3xzW+9GxfEnFM1zZGdbcL5ZxRiIvVWt8fO6Gz+nySoioByK+SbB27Vp56623ZPHixbJw4cKIgjrYwBZtYhlsaGAWyZmcUX55ZwJ1hVPn7WuskOCeR/UYItO8HRWvr4xv5VJ3EjN9TjJl9rnEhu3pSR8/U6Zk5sjkDIx9nHx7KcI4DO/7UF/us9FaOT4lSFR/GIyAevfdd+2HmNWhcePGcu2110qLFi1s2f1h8Nn+aRJ+yBmL4B4ve/0UybWbL0osgx8Gv/POO9KxY0f7A2GkzZs3t9f5Wflh8IYNG6odhABt0FYhy2VC6PM/A+/xQruoSkMjqoGIZ1/UlDNp2/AwS9NJ30oGlqUQE4XYaNFvujRcoro0xX3fsGHDJDs729dUjQULFsjSpUvtk6KALk2V+kydL00RyH369JE77rjDCgILT4caPXp0SAfJysqyAcsy2qCtopyr1NrbP56TmJaWJl27dpWePXtKQUGBmNlXhg8fbsvQV3fmVJSGSq0F4pw5c+Sjjz6SoUOHyubNm+WVV16RRx55xD4H8bvvvpO3335bPvnkE99aUc5tai0Q33vvPbvkvPjii20ZTxNesmSJdOnSxT45uKioSD7++GNbpyjnOrUWiAg4PK4bMyNmxeuvv97OjPjl8rPPPiujRo2Svn372oBUlHOdWgtE/DoZmzUDBgywu6kAT1bF47lR/u0DD8hgc99YNHmyJOlniMo5TtQ/vpg4caJMmTLFzoCrVq2SsWPHhj7kx4YNlqdvv/GGZD36qJg1qtWj9pb4eImPgY8vdu7c6ecUpXq0b9/epjX5+CKqgYjvjmLJiU2Z22+/PbTsxADGjRtnd0lvu+02+fGnn8qMwDdwvkxMlMdN8AL9HFGpz9T554hYdmLGwxI0NzfX7o5CNm3aJPfff7+9b8QGzYzf/tZvEaa9fo6onMPUype+EZADBw60gYegDJK0ebPcP3euNPbL4OkOHeSDfv1sXmdEpT5T50tTgGDEF7jx3dGjR49an5H4B3NP+LC56DuYvme0ayerr7hC4s1AgRuIs752w7X2iXSSFKUq3NnzuE1jIhCjgQaiUh85k0DUdZiixAAaiIoSA2ggKkoMoIF4xiyT+WOfEf1Zs3ImaCBWg2+mNJUJU5b5pdokT1aOHSgrC/yi0uDRQKwyy+TLTWOk/6bX5RtfoyjRQgOxqnz0uuzIuk96XzRLls4r/w9Af5g3UCb0MzOmkafc+oJn5ClfD5n/kaMvs6Q1S9x+95ogx2zYSxaty5FFN5s2uuw9J9BArBImOF6cJe26pEvPgWMkf8WbZYNj3SRZKrNk2pojRhZLu6fH+MtKE1w3L5CMhdAbWThVdkysbMmZLoP+vE5G9cqUUWj3519LG79GabhoIFaFgjcld90Y6X2VyV91g/Rft0DWlQmmMTLsdv6jw6EyeKLI7m0ma2bR1aMekkEdvBrp8Gv5R9YpioMGYhXY8/4CyR91g/S0paHSe1SO5L7vLD97XSxpfpbsyPfqu3Qu87w1C+sUhWggVsoyeefpHJFFI0P3eTMWieQ//afwps26DfKDnwU/bMmxy1iQv2WzTV1YpyhEA7EysLzsNVUetfd/FNzDzZIvufFi7g9DGzgFz8jSRc4ydtEfwveEpu7lp3t5dR26Sztnibtn3h9ktZc1pMv5F+XoEvYcQgOxEr5ZNUv63xXcMEmXQXeNkdWr/M8UTaBmbOnlzZh2c+a50DL21oXZkovdz0h1Jijtzqipe1mypb/Ve2BTaPVEU4ddU7vz6m/ynC6v1Gv01xcB9NcXSk3RX18oSj1HA1FRYgANREWJATQQFSUG0EBUlBhAA1FRYoCY//hCUeob+vGFotRTKpwRX331Vd/s7PLQQw/5OUWpn0T1/5pWNxAjdVAdTp065efKgwfZ4AlTZrw25YNtFKWuyMjIkNatW0uTJk2sINDi8TAlIy1btpS2bdvaWyykCEToYyIQN27aJDt27ZIWZlCQAyaoMPj+V14phw4dqjAQMTaM68iRIzZFWVHqEjxy8Pzzz5eEhARJTEy01zIFgYdHT2A2bNWqlTRt2jR2AhHPlVj8xhty2y23yOHDh61u5fvvS5I5iCszMysMRI4RMyFSlBWlLhk+fLgNNAQhnvGCgOTMiMBDMKakpEizZs2sHtd/jQJx3rx5vlnVqCwQ8Y5gA/HnP5dDZjYE73/4oW13df/+FQYi6lxRlLoGjxns2rWrDUQEGwKRwQhhGYGJIKwoECvcNQ1e/FURvDPgXcDVJScn+x49CvfulRZGt+7rr+2DajL79i1jH0kAD4IHpaJSl4IAxMxHQTBSzjvvvNBy9XTB51JxINZAUlu1luYtku07AsqJiUnSMrW1dOzUKbycNIGFWRfP009LS7ODDfo5nZgjUlE5q8JACgoDkhs0rrCOtpVRcSCWmtmomtK4cRMbcG3btZMfmSBrbW5Yjx07arzFhWa21NRUOXzosAy4qr/kb9kqCQjaCL5UVGJBSk8j0aSSpWlpDQSD99qnX9TD3HeWSunJsoNHoDZLSpCxHbbIKVN3eckn8pvOeRF8qajErkSTCgOx1ARVteXkSTMlx8nOnbvsWnJv4R5pktBETp44LpvzNhvVKfnggw+lXVKJDGlXIpdfkCCzVu+SjTsKI/tTUYmCuPsN0ZJoUuGu6UsvveSbVQ2shZuaG9WmSUlSVLRfrv7JIPnbynfMUrSVKRdZGxwA7JIS4mVs+61mRjwuRSWl0jlZ5D82drY2ihLbePd8d9zxz5Kenm43KLFBg80Zd9c0eJ/oSpAKA3HWrFm+WdVABwkJifZrPSfMkrRd+w5SsM3/V2S47/UPAGBijzNBaN5bJDGpqWz45hs5csT7bFFRapfKN0+qwpgxd56dQHzhxRd9s6qBDjp37mqkkwnAgtDsVxlpP0qTov3FJhjX+xpFqU2qFoiVWd1119izE4gzZz7vm1UNdJDerbukJDeXzz77zNeGuTC9mxw3vo2hnTn37dsjHTt1kf1F+6RFSop8mZvrWypKLGICyImhcXf/ImqBWPFmjQnQ6gp2kw4fPhKxrmDbVtm+vUB279op27ZukcLCvfLthm+8L3CbtWqkNioqMSX2UwBPoklcvysHYw/IBBCKJkVnppDWpqW5Zyu2RlUFkY4vwV7W+3Jq/LQisHxtJOu++kJ27Njh6xSl7qns6m3aLEV27t5jZ734RvEShxnQXMvx8ZgFMceFZz87EyLTCDpv/nP9x/W7KsuEYKRATJGDB72dzqoSacqtDtHeElaU2qR581TZ/T0CEd+k8b5PihgIL0e91Is4o7d5PyB9QkF55YAhfiDaxASht7xs0zpFivcXWiNFUcqTktJGdtkZEYHofbUtFIhm5sOdHz5TRxAy+BigxLOrJBD37XOfcaQoDQ13bqoabovU1DTZvbtQGjX2AhEBaFMTaKEAtA3CwccZ0qaexvs74JphJga9QAxLqbRulSx7CndbI0VRypPW5gKzNN1rA5Bf9EbAhZemmCFhGQ6+YADa5aoh7uprhiP0TPCZkvnDGRGBuPv7hrJ5woOvA+qw65gB11asU4PX6fy0tvI9AtEGIZem4UBEFHJmBJwVGXweJjiNTdw1A0f4gYilKb+XVyqtUlvIzl0N7XlfNTjbiuLgXkFtL2hvAnGfDTxveRpemnr3fpwBvY2a8GwIvAAk8V26dn/My8LQJAhIQ7OmCVJ8YL/NK4riYReOviQnp8jhIyVe8Nkg9H8EbPLxdlY0OicAUUadtfF1wOoH/v3P/MnQc8+PL1Jbnifbdmz1LBVFKUfH9p3khz1F0jie/wrD2TW1gWZ08UgZiG7weXr7F23s+tQI1rI2Hw+HiFgvOBuW4JgqEXNiVBqgmD8VSqQ2lQjCKHy/h/jxZ7yQeMFma42dnfkoaOvHHEzirs0aiWvU4FywZlZMSWkq/7ct3zqJXXgSFOXsc2HHLrKncH9os8bOinb56c2KmBE5C+Kv1ZW5ZP06zIhexpbD+IrgO0BsSVwEnYrK2RPgzXSYGRmESLFhE2/uE71Zz535vD+cHb22wLT1tlxtasVzZpQRO6+ewEdtSaT+VFTOnniB5AUgg61M0NkgcwOvbPAhZQCbJa4XeNYhohlTLHR6sauoVCiIsUb4grcNPC+GygYd5HSB58Ub2lppf9kVp/CfqmzBb4CfezAP8LkinQI4gA3wbzBtHfJMCWzxMye7PvZxbQHzkGDfgDoIbFHm9/o4jmA9x+jqmbrjD7ZjmXXQsQ3LrKdP6miH1K2nuHYAeeL6BfQDHX4nynbQQ6CjHfI4H/AR1AH6AbQBrh5pcAyEdcxD0Bb+kbId7VgPwVigc8cHPYAdU7ZlmSnbusdL30HYDqDe9YMyx0a9Oy7a0y/tgv2wzHEA1xaCPAi25blgPVKUgZkRTZSaqAbI27JpULbsvaAAznlS2KlrD53bGTuiLfXAraNftif0Rd9I2Z9bB9Aeeft/Uo0t7FiHlDqWeSG5wjqCfLA/4Opde/hgmf6Bm6Kd6zPoFwI7CI8J0J/7AB60hS/aAOromzr2zT44DtShDP/0w3raEvgAsMXY6D84LoD2TFFPP2gLXL8cA2Af8M/xAdSjjscC4RgJ/UBcO5RpizJw2wHXBil19AHB2FlHWwj7Yv9MAfvD8QD6gg3LjahEIxjiZKIcCXdwrhPaUwc71xbCi4g65GGDNrR12/ACpNDOLQN3rNSjLS8qV3gBwAaC/0YAn/DBeo4JwA/zQdhvpL6A6xcp/LAO0C/sKLCjX6ZuG/rjcQC0A6xzYd/0RaBH/6yDP+ZdW9cGcJwAxw09fFHccaEM4IMC0AZ51rOtizsGXgeA7TAGtqNvjotvwhD3dWH/TNkHysijPevcPPoH7JPtkAduGXn8Mh+gb/qgbaQUAt92RrT/SNU4QcoDIsGOOSDA1D0Y6CB8oQDKzBP24/qDDV9M6N2TARuU3b4AfdMHUtryJLJNcEzoizaE9Uj5QrLMlONCHuOgD3fMrg180I5jQ8rxUGADQZ5tiWtHP9QDHiP0FIAUPgFsKNDTnj6QBv1xPBTYow4wzxUT8nz9XNg/2zMPoS/2w3q3D8A6ThTI0wfawh7nhecUuOcX9rChP0A7jg9BDKhH6l4DgP4AVwDwCx38BPuE0D/LzLMdsBa4P0QQNm7ivZvYikBj6HmgENSzM4Ay7dwyhTrUu+3cNsy7NhTWc1ysZ1v3JFMXHKOL6xOCY3KhHu0pKLMfiHuMBDraoA1tWOeOx20HUOe2hRC3LwjKBG2C8IIA7If9sy1T2kWqg29I8CJFPeXEieNWj344FpSpgw0uaLcN/CFFPcaKixpljgHCoGafSBkYrh1g6gYOdMizzJTjgsCG/jl26Kkjkco8JkKfEAI7CHTwzzJge+i9pSlmQnOfiBPiHigbMOWBMQWoYycQ1jNY2Tny9AnhOxvr2SeALV4o6NgP6xkwrh6wbdAX6wHyrr2b5/jon3m2oS3seFwQwrzrC22QunUusCP0zzZIXT8AeZaZByhTR2gHOFa3LdtA76aoo7CMa4L1gPaoA+7F7/ogOI88r2zn6gDbA+jZnr5Yz3MGnXv+aAP/kPvuGSfbvvjEytbP19r0vnvutm0wXtq/MXeOFHz5acgWsnHNB3Lj8KGSktxC3po/Vy66sGu5cXCM6AucLg9YRlsKX1uILfu2IdAgkiMYQ1daGj550LspTwwGSXvoIO7JRZ17Mjgo1gHYcyzQufW04Ripc21p4/qBIE8bgDzHjTzf+ZGnsC3buGXq3GNgCugjmIcNyxCU4YP1gDbMg0j2HD+gPc4vCfrmeSOoc30wTz3OIXXsDwK/PLf0iTxsKLBjv6gD8AdoixR29MW+WA/ojz6C9kh5Td1/7z1y8/XXyWU/uVbaX3aFdPpxXxl0481y9z+Nlt/88hehscLfdbeNtvXjJz0oaz79TDpe3ke69e0vry9dbr9Dit45DndcfPO5fshPZfPa1bL9q89kw0d/k/Qu4X+S7bZD2jo1VT7462L7hoCJCONAHm8EobPP/0qFBpDTEW8Ghw4g7AAwz84pKKND1LvC9ki51mbZbU9Yhg31SOnfLcOGOtceeQjhmwNsaYMygA55+qNvgBRlCF98Cv0QtqE9gU8ct6tnn+yPvqmHDnXu2JDn6oJ1Lq5/pLRje+DmYQMfro07DpwzBpLrG6ANCI4B0B/skafAFv4JL3COg2OgjnnAFONhny1TkmXETwfLE888J3v3FVkb1G/+Ll8m/e730r9vH2sHoMcYkF6XNVgu6dFDunbqKDOfnGqD44tVK6RThw7m1s0bq9s/0m5du8jvH5ok9z36OxvMz//3XJnz7DRJbZkSOj6Of8Yfn5A1y5fIgUOHzFg9HzjWp2a8YIPfbtYA+6GkAY0AO2MeMyF1PIHsxO0QEgmeKKQ8AYQn3/UZ9MU89fTn4trwuADK7I82qKcNjwvQL+yhx9hcHfWEY6YP16dLpGPD7ItzwbLbFvYQ98IE7lgIbeADuH0BV087N3WhTfDNERI89mB7jo33fzg2ADvCPFMeB8poTx+AvpFSDzuI2y/z9Gly9i/HHjyHKNMH/GLp+XeX95bcr76SB/7lXhn3r5PsTNp74GDZUlBgn+fCsdEH0huGDZUdO3fJ/7611NbNnveqHD12TK7ul2nqhsi699+1S1zU3fNvk+WizAGSv3WbGVfZNxpg7xHttwNMBQbOE4jB8kCsIb7+ZmzoACkPxj0onlhAnZtHCjgIlpkC5CGuLxfXD9LgWEHQH/ujQBfsn+3dtu74AWzoi3Ug6NPNI42Ud327dbyAeUxuoNGWIM/xENcWdUh5Lqmjnu1og74Al+jutUB7+gAoQ+gfcDxoR/ugAB4fbdzXEWWk7BegDFh2j4H97yvaL39dvkKe+PdH7IwFPeyQn/Low7J67Sdl3iBGXjdMlv7PX2Tea4vk9rvHS8f27eXNeS/beh4jfPA1YNnDGw/LmIFLSkpMX13t0vaSAYNsinqO3SP8ugA7fmzUEChggBeBDT1d2RtTOKBQh5QdIs+UduHBe0AH2A9t3UEjZR/Qsw1S2pLguy/9sAxog7bQRxoTBX0CjoF+WGbbYB6gLfqiLYXwAnV9B+3gk+cEvphnO0BbQD3aQR9MeTzwxSAjqENb9uPq0JZLX9SzT9Tz4qR/9gXheCCAabDOtQfUsX+W6Zs27jjpA8DuT//1vLz4yl/kvcUL7OYLlpnIv/DyXPnjczOsDaRVakuZ9KvxMn3WHHly+kyrG33PryQlOdncZ/7S+gPoj68n+0Z/i5a8Je3aXiA/GzrE2t04fJh075Zu6sLnh23gO0z4WD05Jf8PcTrS2jNqz+oAAAAASUVORK5CYII=;" vertex="1" parent="1">
          <mxGeometry x="827" y="150" width="150.67" height="70" as="geometry" />
        </mxCell>
        <mxCell id="6MqGrB4b9lXM-VsAvl01-23" value="" style="shape=image;verticalLabelPosition=bottom;labelBackgroundColor=default;verticalAlign=top;aspect=fixed;imageAspect=0;image=data:image/png,iVBORw0KGgoAAAANSUhEUgAAATwAAADECAYAAAACs53GAAAAAXNSR0IArs4c6QAAAARnQU1BAACxjwv8YQUAAAAJcEhZcwAADsMAAA7DAcdvqGQAAGAVSURBVHhe7Z0HYBRFF8f/1y+9EhKSEHrvHaRItwGCCghIsYsFu6gURRT0swsiCFIFRQFBpIP03mtCSUIIIb0nl+vfe3N3yVElFKXMjwy7Ozs7O7fJ/O+9naawz1fYIZFIbg5WO2wqBaxKQE37CpsCNjXFKejYoqYENtgVNnGeNsXY6diFiKf0Citdq7LDrqPzFKc26qC0a2FVFcCmtEFNcaI2Kyix5JK4PVaJRHIzYL2yCxFyVDc7ixfv8glSPt5X2VVQKkoCH7uCiAMFlRddoIGRrmPB5HhYNULgWDA5O0jz5YpIwZNIbjZsdtGPw/oiC40FTwiTlYRLC5NVC4WFhM9C8VcIMJnJirNDR/saEx1bCulELhl/VjYAKS8SPxJIqXqXR7q0EsnNhATKQhpkIwtNa3X4nBbWJTOJllINo1UPm0cwbCZWsMujYBEzsTVng4V2vdUaKJVxJHoOjTOpWTD10LKZpzSIKyQXIwVPIrmZUO2yKO1U0cg9tbIfaoFZze/vqPKpFMgo8kFAizegrDyckrJIXb462qEVZ9mGg+Us8rd1h/1cArSqPPJqjdCa6XorpdBIsbsc0qWVSG4WTu1yuLAsQhSoxrl2WZzsumAowpqQBchipnGK2qWDjf63gq03Mg/TE5CXFQMtubRqmxkqvpe4H1dp540lFyEFTyK5SbDsWKiGsbaRkcf/i8YGbr/glle7FdD7lwe0YZTGJtIo7XYR2IV1BXFMwST+cYyZ3NgUGE0FUClMFBzX0ikKskpfiYtdWj7kByeRSK4f4X8S/CLPSkFvctSvQgqkTXmhveDTdjIdBHOqqydpKoq2PgM956kk5eQeLgzt3nX1VzRPX92HdhM82uiA1DQ1zmU7vlkkEsl1QFWIdY6tN7WF3FW7CjZtER0poDGo6ZwFhaEPw7fBOxTn4bjgCihFSy2ppDUH5lOTgMRfyQlWw06CZ9daxb2UViW5t3dP3bXZ1WhQ0fklwu9I+Rm6f/wL+iQ6BY9+SOy+WFEFsba2aNppCHQaFf2C7p4HJ5HcXFx1yVUBHccKqwF2cz7tCTPlnxGXk+ipvch6ZJF05UdbzvL8+n1Ho1QqkZaeiTObx2Fwg32oFVFA3zD8JB0Pgf8Xhpub6DkET2PHr1v9cDTke/R85EHk5uXQw7vKX4BEIrn1oEquEMF5fI2w0eOyezi/60UYURy4bEoKzvhrQWSjVMFTo8ZLr4zE1td+JONXCZtKSTLHeduhslqgdCs3CZ7jq+at/Z+h35NDSOxyxQl3WEk9PDxhszleEFgsZpjNZsdJiURyy8GVvKCgEIUFRUJcrgUWJ19fL+j15P5Rvc/NzSYNcNlP1wCVw9vbB0qVClaLFdnZucViWnpIzCifoCB/0RMnPCQCi8dE4o37kgH6yKxqLHrcfO0uq44mHTqp9w0hYRNH4rQrqCgyn0Twy/Gj8dvcGZg26SvEnjwOrUZ7XrrzgwJqUl3O7tLnSxM4L815eanUaqj4G8ItzhWvdn5rXG1Qqfga5SXPySDD7RjYQMnNzUf6uXR4aFXQqxXXFLx0apyNPwuT2YK01GRoYIW3XgtPvabUwYuCh0aJlKQz0Gq1OHU8Hlqq1Je679UFFewmIxLik4Sea6mshQZtSQMG/5Dz6i52jMPCI8EbcWoa+j7eEzkkbsJ0pWAnNeeH5+npjX49O2HKrAVITUnG0/16YNP+U8jKzHDmohQfQk2F4Lys1hzE7IxFWJNa0NPDoqgLUEJHD85sLOKO6FdAAZXGhvjdMQhqUhfeZFUq6B4pMdFQRFRCiF5N6u7IQEnxWbHHUBRUGeV8KP7KGQuUJHbZZ06gwCsUEQFe4ptCq9XAQg/yKi6XSG5J2PJJTEyBr6cOGk8PqpPX9sesoLqfnZYBL19fpJw7jUaNmiCThNTdRdRQvWej4UJYVIwG7jPogK1FTw89jh87hCo16mD39v1o0KQ2CgqLhCRxehYnrV4vNIRvwVYg12s+ttutMJtKvEob5Rcc4I2Nm/ajafN6KFc2HLNfj8D73c9S3QeMPCiFrtOZFSVddgjVB4/hA95Zl9UD9RrWJnfVIlxXS1ERPLy8SZQMZGGp8NfiBfAPDMLMad+jV98nULtuQxI28o/pw3pprNi5YRGWLlqGTdsPIKpZXUT/sRWRXVojkIXTTmawWgtvLy9o6Jeh97Zgxc+LEdWkGbQ2i3iwKo0Oevo24o/NIqtU0TeJpye8fIAdc1cgpGt7hIh0SsT8vQaGyOqoEOhHlh59CK0ePn4+OLt9Gc75VkflYB/oyQXXkWXIFir/UtirV6o00OnIWqQyc94sbmf2bcQ5ZSiqlQ+FpyITa5b+Df+q9RDoo4NO6yEab9S01ZNAc2ubgsRdlE8GGW7RoCKRKMgvpLpGf/s6ckepDjre55UucF4Gcos9SQcMhXkICQ0T1h7XVz6vo7x3bN6CDcuW4Oj+fTi8d7cIB/fsxPGjx1C/aTPSCKszP66HajKS0hFcNgxJickIDS0j9MZxnsRJ74Flv/2KxJMx2L1jp6jX29asRHL8SaSmZyMyqoIQPqFddIGHTkv5pFJ8OfhQGQ+s+gJta+aJoXdi9hlKpuHJGUR6/s/l0hKssCoqFH87FBXkIycjBYV5OchKT0ZBdibUFN+0RWt6gB4IDi4jVJ4fCJuS0avmIVHfBC+9/yHee7kvPOz0MNRmrJzzKSbNXoBChS+886Lx+biRWLAjDun71mHjzr8xb8F6KDx0ZBlqkRe3BUs3RpPosSBpyDKMw6Kff8Yvv6+BkoRty/z/4dvJ05Fh8aIHrYWXlw5H18zC5tMm5MWsxpfjPsb2+EJ4kZApsw/h208+wIzfl+AYmeT7N25AHvdUL4zDtm2xsOfGYeq3H2NTTDr09Evz9PJA4pa5WBqdi7LeYfAPysS6n+bhx8mfYO7GGOxf+jW+mfQjUk0s2PRHxZ9dBhlu0cD1mLf0I77w3QMbHB5kRXl6eJwXOI5f7VyYnl/2UHZUJylf0gmVkrZ0zEGrUSPmyFG8P/wFvPh8Pzz39GN44dm+ePetZ2E25IvXS660HOiHysX5Ujl5n/JUKlVCDBUKMiyobOyKv/nas/h49Os4unsHxn88HC1bNEIRGWCsTZye3wHyKy3+nCy+/FkFzq3aTi60UQ0PozgsFjuG7+uAVFFJpXIFNVlFCSePCEvJUFSI02dO43TMQbwadhjfDxsEy+YJUHn4QGstwn5TIHq1rgFLYQ4KVIEo56dCoSUbzXuOxIMVbNgZHYNztnCM/+ZLhJ9YB2PjHri3STsM7NsZKlJ40mMEVm2LhzvUgYXdaLLANPYsHDljR9+BPaEhoara8R0MbBuJjdt3kUD54tT2RTiqbYRe1VPw68YivP7BWFT1McBmTcHPv+7Bc598jQ7B2Tielo8scsOtbHbb85CRUYgdOzeh06ARaFXJG3aVDunH1mJtZgT6tglF7JE42D3MOBKfh2deHwn9tgk4V+91PHNfFezeeZgEngW55DnJIMOtF1hIuJazANKxM6hILMxkoa1ZthKLf1uIJb8vEuEP2t+49m+nd8XTUTnSsxDRjshTiBLly62i7oHfm7PODB/1NRavPYB3x3yPlJR0h5BdGEioXPnxdFlcHhXtq9SkN7TlxtD+Tz+D14Z/hrj4BHzxv5GYOfs3rN95DA8+3J1cVStd4xRiui9/TlYwvp6LKnqWsI4VWQEzz9DgQZ+I/dkSSgSPEKYlbf0DguAXGCJcfw9vb+g8vDDrl8UoV6kaKrfqhm9GDYZneG1xAwWpvLrQgCIqhIYbE9TkRqrs5AqGI9jfCq1/ANRkVvoYT2D0ex9iZ2ohdAryx+nBW8jcFQ+XruW8rM53hvzL4ragqCp1oLIZqBzlyEenX4eHPzwoqVqTikN7C9CuQ3MYk1LgWb8hvOxFZHJHQluQC3u1ugixG+FVrhICtfSJqFwaMvM15DbzfTp2fgBbfvscuxKM8NTn4cDmBLS7vwOVySreQ/JTCC1TAUq9FUE+TdG4jgfs2rLwISGULq0Mt0NgBRCix/vOwEbMkUOH0b5lLbz76kC8+eLjIox4fTAqh/kiMTFRCJgrPVtPQjT5H+XF/4QV6fonVIaqFOlE5YoRyEk5g9AgH9Gqy+/sRF1x/hMuMv/jLedN1/GW3/+plCxeKvGK6URMDIL8PBEWGoTdu/eiccNaSD2bgLy8PLJOKR3VTw5s7fFn5FyFGFN+Jh6kTD8WHemHxgYbT0lzHnZK7YYoFKmuyVREN4lDUEgYCnKyYcjPg9JqgZUtvRpPwdLiJaQENCDTkeJUXuhU0x8//7ISOSRY5jM7sPccPQGrydEB0Er/GzPx6+Y4vPH6i4jyVpGP7U/mbgqy8/gdID0EfrBUOKPZKXjiQVFefC1lYTM78yL/nd8bmgwB6PxQLSz8ZQHsERWh3LcJp7MKsGf3Vhj9QxEQtxeHs8w4sXcT0m0eKIMcxKUWIPnIPqSR6ZySbMAjAwbj1L41KDL6okOve7Bi3hyYSJhtFvp2UNph5ul66Ja85UHbju7Z9MD4l0WFkkGGWzc4hIW3DhfUEVi0WCjOnTuH06fjKZDXRiGe9tPS04SV5Z5eXEN1QPSXo/yE9ceB66yr3lKdSEtLx8B+D6F/n/vx4nN9haVmoXojXNDitM59zofKxQjx4vs4XVt+h8fv7Ab2fwiLFq/E5OkLyMXNRb9HOmHpgj+g89QLN1YESs+WHltwDv2wQR3QBIgYAIMiCgaTkfLnubP4TuI/sSlptMjsjsZN6pPIWJCfm0Oumx4Va9QlSy8YXr5+4sU/v2vz8/UmBTLCaCiAb0AgaZAFPpWboKLyBP78ax0O5Qaie4vKJExqBEeUhYZEUBdSHvV9CjFv1RHUalwLoaHlEahMx7ZjOahVs7x4AAVJh7AnzoSq5YNFCyk9F7Ie/RBWltxOqwqBEWHQUV4aDz/xDRBUoyUa689ga1oUOtU2Y9Ff61Hznu4oH14JbRoEYvGCRdAEV4WPb1l069oIqxb+guygumhZOQp+XplYsnADGnd9DKFednhG1Ef7yCL8fcKMKpFhCCoXDLVVj7KRQVBYlQikOB2Z02oPbwT40ecnLv4jk0GGWyOwm8jvwrS01Xp48l8rxTtEJjg4GPsOxuDA0XgcO5kkwuHo01DqfFGnfj1nOkd6troKybLy8PFCIXlOoWHlYCaDQDRaCLEDyleIonq/AdGnknDkeCKFMzh47DTqNG6KsLBQ0ZrqeM/GPTk0yCRhDS5bFmdOJyGyfBh5eXyehY/rFAkZeWHrt+yDp18Z9OjdG2vXbUNMbDLad+4ADz19FiHAnJi8T50GpxOSEVUhHHoy+Pgzte37IXSh1cho0yGDxFKlyuZxFQKrUlPSLeW9kz/iuecHIS8/n8xRG04e2k+F5Y7GjONBuuD4KrUbkYvI4wMdualIDLUauisJg8FopoKryDIjheUPI6SV3EpScitZbVbuXkIfTE2urdHE7/D4Q3B/OLKs2MISEfwS007fFjbKS12cF7vtNi4LucN0AmQvgqQIWvq2YB8f5MomRkcj02THkX3b0eSBQagSzA0jVFY6z2lsdn74dKWw3uiXR5/HpqDykRnHs1lYybXl1mCL2Gro3mQa8x8APWcuv0RyK8OW1JnT56CjyhJRIYKqZMnfLIsF11v3+sxwPWZvxlWfGW7tPXowGsHlyiIt+QwaNmwEk4UEymUxEeJ9O9XPC+F7mskzK0EhLMiDB/agRp362LBmKzp0bAkT1bFiC4yKJPr3ktCKniJU51kkue4JT4vrvBNSJMoPWPv3LrS5tyn8SPymTvwfRo4cSWeLAMNpGM+tRd7RbxGQG0PWILm8KsrbXfCef2Ew+cr54mEIX55LcBmsZLaKC28p+NvNhnMxR3EmKx9B5euiaoSveHC3WkklkpsF118zGRIH9x+jeuowKK4FFj+9hx71G9RCkdGApDPxZDioKd6ZoJSwIeXt54+wchGIPnoSaaJxw2EpXgs82qteg9rwIa8r0FOHHyd+5hS8Aj5LIQtIXAPDtq+hsx4lF/cCC++FF4Ygt6DgCjJ3e8DfOvz+gb8lpEUmuRthA060oDqPrxXWNjYYWERZnK7bcCC15OFpbD063uVdT44Kcom537AdQV46TJ0wHiNGjiaPzwoleXHkQJIYkGEWNwvG3SNI9FLcBO/Ej3jxpSdhMpBL68hNIpFIbmlY0Pmdv6deh2nffYoRo0aB/Tl2vHk6LW5sVCpSYd0/EpaTC0oE793jU/DqsKfhjRyRgUQikdwOmK0KFNn1+IkFb/QoUkDxQ0pH9iPtcG8VdcF65G4cfn63FBY+FjsbpZBBBhlkuB3CRe8USeSU5M8qUUBueCGK2Az0bgKPKp0vEDyJRCK5XXG9sBRbtvF43K1ZHBaR76op314KnkQiucNQWUTXNTuJHGwkdGzxcby+4qUFz9vbC548rYxEIpHcLoh5oNiuM4m+uXYbyZtFBZUVdMRTVfle0GjxytMI8bbijbfGICKyHF5/9Xnk5OSITLizohi/JpFIJP8BPNWUyWS6qNM0j1UwQo/pEz7D+6NGIp/cWD1JnFq0WJDocXrRR0V1seCV9bHi3ffHw1BkRN26NfDUkP4oLCzEnj17EB8fL/rQSCQSyY2CBexCEWPcR32w2EVERKB9+/bIz3cMjnBRLHjfkeCNHok8su88yHlVW82kcSR4dnXx+71LCt6w10ZjzIfDMXfeQvDg4eeeG4QlS5Zg7969aN26tejhLJFIJNcLCxcbVGy5uYa8uYTOJWq8NRqNaNWqFUJDQ0X6KwleAQueXQUlDzUlf9YOHlJGCemSywrea689jwpRkfjmu6nw8/NGxfJlkZqWjscee8xxF4lEIrkBsJjx9E9eXl7OGAfugseeJafx8/ODwWC4tOBN+JRc2lG0bxczHStJ+HiRcisLHqXjBotLNlowLmty2MtPozDfgGnTf4GHJ883b0G+4drG5637eSI2xGQ5jyQSiQRiNmMWPdfWfd897p9epzklS4gaL+DDzResY6545rKC5/J5ef65oUOHoE6dujgUfQbRM8dh7C/7HSdLSVbKWeTyyukSiURyGdilZff2WnEIng12Bbuz9I+Ekg6F8F1efZxqyqpqMBTi7bdegr+fD36cvxtlAkpMz9NLXkf1Kq3Q4t4ncJDnkDfuQNs6ldGyfTf8MG0SunTuiFaNauB/yzPg5+8DTdYh+HsGwLneWTGs4IMGDUKbNm3w0EMPiUkK3XnggQece8B9993n3HPA6du2bQsPDw/cc8894l2jRCK5/WCx8/HxQUxMDHx9fc9zXa8WnhaUrTueX4/XymAzT0GurcutvRg6wzMQMEeOxmDb9r2oXK0Zfpu/CNOWH4Ve55r/Kgnj5isQfXIrZr1YGYsX7cFfr83EsI2nsO3vP/H8Uy9g1epl+Omr9xG/dRWsVACbXxUcProXAc4cXOzbt4+syDrYtGkTPvnkE0yfPt15xsHy5ctx//33ixeXkZGRzlgHS5cuxaJFi9CvXz9s2bIFjRo1cp6RSCS3E/weLzo6Whg4rAG8uuDVYndqIyuXYzJ3irDzHJrcnY4MOFvRpQWPVdXXxxvvvjsW74/6lAqhR0R4WYwb9y4O/v4SClyrAcGIxJNi8nX4+nmgKD0Fh2IKUC3QcRbGI+jSrh9mr98HhZcnFOxQa7wQUeHiHs9sSVqcc3dxE/SFLcF9+vQRord161YkJyc7Yx2cOHECo0aNwnvvvYe3337bGSuRSG4neK69U6dOYejQoXjttdeEDuzcuVMsB3k18AwpLuxQOxsrWPQogltslcpLCx7PU9W3//Po2et+PP1kP6xZsxHNmjbCocOnkJubhCVTPsdXX4zHz8sK8d7TyXj8lW8wekY8ujzxAIZ+0gCDuwzA59/9iL27NiLLIwrl1GakpxuEiFnO7YW31ucil5YtN29vbzRr1gzff/89Ro8e7TzjICkpSfTB4XR9+/Z1xjqYMWMGJk6ciMqVK4tW5PXr1zvPSCSS2wU2eMqXL4+NGzfinXfewZNPPonGjRuL113/DM/X5zCYlLBQMEFFBhkUJp4oneBzCRd3S/FW5iM9I5sEKgP16tWCRqNF+w498eLQwdiwZTe+I/f0wK6DMFgt8PKvgro1grCf3Eh9eAPUqODLOSM1ejdisuyo1bwpig7sRJKuDKpFhUJrowJoPZF67pyYC79EjyUSyd0Kj+bizsQXuq+u93c88Sh7gNxiGxAQcOluKUpfTPu4H0a+fh8shSbSFpI1BQWyEhWKMpSoAArNJQTPEzl0J15Ug9eJtIgFQQwGI55+ZhiefaYvHnywm/M2EolEcv24C55LyLjxQsyw7Nz+o+Bp/DDlxXB80CMZBqNjeQqb0gar3QylOghGkx3eesebvYs4/32aDf7+fnjh+QFiJSSJRCK5FeFFwHhqFJ3WBo3OCg+tGb46wEuVAT/vTKjUWZcWvAvhl4dFRVfjR1+Z/Kx0FBhJjv9luIuLa7iKRCK5U6E6zoafkt/hkcFmU8Bq84LZ4k0i5gWr5TKNFpdDrfPA2S3LsHhbgjOmdCyd/AlWHPn3R1oMGzZMjL+TSCR3KKx1LHY20jszBTGqzA6V3QgtWX5qqwo6eJdO8HiN1pTDO7HnpFsbqyURn771Or6ft8UZAfz94xi8PXIcVq9bhQ9Hv4/R47/hBdPg4+MLD3seFvw6H+4rVrpYtWoVhg8fjilTpjhjSlizZo1zD1i9erVzzwH32/vwww/x5Zdfitad2NhYEZ+RkSHiuWnb9UL0rbfeEi3A/M6A78fw/q5du8T+4sWLxVYikdxGkOCZdFWBoF4o9OmKPF07ZNnrwWgNhZW9SmsBaZWxdILHKDVaaNQll/08/AUE93gb9r0/YeaBAqQufh/fJlfCs088grp16mHgM6/g0TpmvPPBcmi9PKE0ZmLK5Km8VO55HDlyBH///Teef/550dP6wo7HbKUdPnxYdDnhLiju9OzZU4Rly5aJ60NCQkQ8j9x48cUXUaNGDfGS8/HHH8frr78uXnoePHhQ9OvjPn28P3fuXHHN1KlTxVYikdxGWM3QhrcEWk+CR6fv4Nl1Eny6ToS62TtQNe4Fc2AAitTXIHjnYTiM6Wda4qnWoXjk/po4tuVvLPgpB2NGDkCVatUQGhKKs3+NxjMf/AqDxgqF3QabfzWsJMvP0YGlBJ4JISgoCBUqVEDt2rUvGlrGfXFYFI8dOyZmTHCnZs2a+PPPP1G1alVUrFhR9Odj2HILDg4WU8owLG5hYWEiPd/vq6++woABA/DNN2SBZmXh66+/Fh2YJRLJ7YYNVgXXezJ2NJWg1NeAOqAhVGWbIiXZiJTcAmg8NaUXPDv5xTovp1x51ECLpA04TruJp84hKKIKAgPjsXS/szV37ycYtLc3tu+egoD8XJhtdtgLU/Hrz3MvcmkrVapUPGJi2rRpopOxOyxWqampSElJEWLlDvfM7tGjByZNmoTevXsXu7TcjM1wszbjeo+n1+vFlmHx46Fojz76KOLi4lCuXDnnGYlEcjuhcjZMOrqsUMg9BtORz6HNXIsIbRFUOebSCZ6NxK5MZV/8/n5vtG3TAk+/txzv/DYUT9VqiM/31sQL3Wugz/RZSH3/XjRu9xCW+3dH5/3voWOfSahYLxx+weXgr8zHjBmzL3Jp2Q0dN26cGEL2xhtvoGVLMk/dOHDgADp37izOz5w50xnrYOTIkWIcLjNv3jxh1TH8/o5HZqxbt04cL1iwAC1atMCrr75abAXee++96Nq1q5iAIDc3F+Hh4SJeIpHcXjimB2AyochaB1PMNJgSlsIHBYCJZz3miUAv0fGY13p0h8eyrVixQrz74vdgtzuzZs0S7vODDz7ojJFIJP8VN6TjMfSYNvFzMn7eB7L3wBjzDQrj/4C/Jo9ETkPWmpYE7zIdj+90Bg4cKMVOIrmTUJCUWXMBwxoYDn0J4/GF8FOTZcfrWfBCPmKcre3uFDyJRHKHoSQrLvcg8ne8hqLU3+CrN0Bp5VXKeOYAsgbJa+WxtaUSPHcz8lrYvnQudsWTCl+Ogt34+qc9zoPSkIEp3/52yb59EonkLoCkyZwZDe+Co/DVsLjZeDFah3XHgd/clVbwtF4+2Pndu3jnp93OmNKRGHMQ53IdMylfEq887Nyb5DwoDXoc3hONf3/QmkQiuSUgwdPBTF6rDSqziTROSxqnd7i6bKgpFfTDC/uUEhY9b4+S+eYztn6JRtWboVPP1xEvWoVj0a9NHTS/1zHFe6cO7dCqRRPM3mOGn58vtLkxqF+rPrLF1U7yd6J/+45o22QwikK5hbUIPzzzCFo1r4XWz84hpfwZQ6bH0c12ovEDT4lLprzTHXvIWJz9Vje0bdkGvxxOhoc4I5FI7jpIe2z8no48WJvdg9xZHe+Q0DkNLBtJHYVSC975pGPcpOPYGLMTX/bUYe4fR7H+rc9w78y92LHeMcX7mnUbsHn+OGz//RfYVGrYvcph4qRv4egU4mDJ2Alo9dkSbNz9CwILTUjaPB17q76ErTvWoo6K7LaINiiz5y9Ep2ajqzoF6+nTZR1riijVZixJ7IKN2/ZiUKOIi7q6SCSSuwc7qx1Zcey6koNLgX0+EjxxzO/xVNcieApotK4pl7Nw8LS3EK+QcgHIOxuLHfuL0LISmZOMPRGPtGuLR96cAKOvP93MBrvOH63btRPutYtYmx61o7wofRFZoEpkpqTBv2IlOlNIcdy6Uh6RFY9g9ew1eGLi21g4ZDhSnuiH4DNHgKbt6HwBLM41OCQSyV0Kt8hayftUkGYoyfxR8YzHrhddLHildmnpIlsudqxajBXLlmDbIR1e6XwS709dj8kL49Cye2f0HVoOw577CMtXb0T81t8RH9oDL/VqDkN6Pkw8xXvqIdSuVkdMJuCiS71I/PL9dKz6/iecMNtRo0Vt7Jn8KbYuXogjzmmpIuxnsTC2OmpGtoVxw+eoXJ8EsUY7eC/9Dkv/mImVx06fJ6ISieQugl/T2UncKPCqZXbx7o7i2aPlJRvp0K4kG/CDx/ABp1+b0Q0tmjeCRqzbzSlL4MU1Tp48CZPJhI49ukFtyEQmD+9Sh6Pb4IHI2L0WlTs+hQfrBsG/Zkc0Up/B4aQ8VOo6GJ0UcYj3qY/BjzZH5So1Ub58FJo1a4wqFaKK1bZMvRZQZsagILwdnuvSAMHlG6JBJQVOpCchMcYDvXs1RaUKddGsyz0o66tDjVbd0ahmKLxUZdCgnhYxaRoM6dcXUeX8nTlKJJLbBR4nz9rCa9G69wRx7fOWOyDzpMS8FCtv3dOxc2dV6rFvxRdoWyuXjDrKB9xoQdYeKR23zVrJ22VX9xYfaZGJxYtj0b1HkwskWCKR3CnckJEWaj/89GoERjySBBTxKzXuf8cqR9cqbY4GDdq/hnd41056YhwyCs5ffvHKBKLHpcTOnofo4+cv1SiRSO5uxFt8hQo2Xv+aRM7Os4AqeDbQInJ3zVDSfqkET6P3RNyqXzFn3SlnTOlY+/NEbDh+hY7HVwu5yR99vNjxASUSiYQQhhGJAq9/rYCNtiYy8kxQks+rtKmhtFAQKa8SpVqNrPgYnEhyEy3TCbz8WC+M+HaZMwJYOOZp9Bn0In5bNB9PD3kCT770Nnh2O57YU2/NxMRvvruoC8mSMW+hT78n8MvuDJyLXo8d52xA4kZMWnNEnP9jwWTx/vHvHz/B4L6vIlHJfjqQuvUXPPl4Pwz7YgnZtcfx0/ZEkf6HOY6JPOO3TsWmeFdLjUQiuSNhMRD97lS0S1sbt9TaySWmExYPwBxAWuVTepeWRU+tcl1mxaRXXsVD3yxEvZzFmLQ9E/HTX8GisIH4efL/0P2BHpgyfTa+fLI23n/nd2h4xmNLIXbs2Cl6ybjYM/UVbI/qi1+/eBBLfjkAY04sNmyMxpGd+7B28vfIRSE2/3YWp/f/gjmnwjBj2hhU8uQ57WLx1ucbMHH6OGTt3M9drbH1x2UkjIlY8sbX2EYpNn37NxQR7M9LJJI7Gm6ZJaPORtacglxbi4XcWh5ipuJ3eZzget/hFUVjQVoLdC0HtGlVBQl7t+KvRVa8/UxbqMn95caOBWMeR+dnJ8Dip4fCZoXNtxJmzZ0NH2cWzMZdmWjeviEQHAQd+d4VajRE9rmtOJJnQ/8HyuPPNX/C757+yDh4EJFtugBe/tCptbDGrEFarSfgofdHgCd3SqmGVmXXYvnvC/Ds5BGYPWUJTlbqgtayv4pEcsdj59EUdh2JnQfsVi2UWh2MJHhW5JEYpgLqjNILno1UU+vpnPFYXwttstaCnc74mDMIqlAD5cJO4efNzkV+do3B+xkvYdfO7+CRxTMe22DLT8I3X3x1nktbyTcfR49RoawGJLBZ6lcdBec2Yuf+ELTvci82vjcSVR6vjsCywVAl55OKp+JEXh5U1arAumEt5eCBFJNB5FW/ZUWMen8fujzcF+W/ewEJjUlIJRLJHY9VCJ4XeY+eMCn0MFi9UGAqA6uCLB4vsvTUptIJHotdRP0IrPq4P9q0bo6n3l2K9//6BK/WqYvJcW3x+gNV0HPyCvhO6IaGbR/AinKD8NjBd9Bp0K9o1b4yQspXRxjdeO++A7xqZDE9PvofDn/fG637foqaXtyk7In+Fb1R58n+8A+vDr+afdApmISxyxAUbXsLDz09DR0aVibV7oDBnY/jni4dEHPWkWOVKq3Q5cWHKQfgnpefR9sIx+zHEonkDob1zNsfiKoDkyYAFpU3LN61oC/Xk+SkEQrzNbCpfW61fnib8MzwAvw4/j7n8dVSgOEvTsLoiW/KCQQkktuMGzPjsQ9+mjgQI0aOQNrahQisEglVVEc664P841+j8MAkKHxrX+c7vBtOm2sQO8YL46XYSSR3MdyHg/26yijToheJXTmknPkLWYc/g1fyVqhVZVCm+avXIXjGzRj0whznAROLZweOv8SMJafw3OAvSIFLQxZe6jecXzU6KDqDbfvPX7bx6kjE84MuVSaJRHLHwWNpkUv2TwISlgyDete78D72GXB6E/wqdgb8G5RO8BTc7EsY8rJhyjJCowZScpORKxRFTaanCtxZJOdcsuh2YivKR0Z8PAqsdufAfjPOnj6NxGRHo4ah0CGDpiKD851eIWJjE2CzWqBWq7iXCQzpGTCYFdBSBhajBempZ5BpoP3cc4hLSBNXGQtywIuLu2MrKkDm6Tjkm20l946Pw9k07kNoozI75kcuNOQ4Wqwtecgr4m8JiURy+8EuLtdkHXKPr0doYQKCcvXQmIORz6tgV+tB5yylEzytpw/2//wmOvR4DusOZeHMtqn4ctx43N/vbcpKCy/fQOQnTMK9T3yN7IKzeK1vN4z7chZisorEyLavn26HkeO+RLfyDbEpOwEvPvONyPfnccOx9Xgqvnj1SXwx7QN8NGU3/ANDYM77E10efQ8JCTswd9ZsdKrUCCMmTsajHerglU++xRdD++KzfcBbHf0xcsUZkZeDbLzVtws++mIGDqcVCMGb804PfDT2K7RuNxiFRYfxyAuTRcr+lSKwlPT34Gd98eW+0gx7k0gktw4kdqLtwQJFVjK01jzYvS0oCEiH0Ze8Q30ApTCW0qW122DzisILYybjvs6VEN7yBXw67mv0itIgy6ZE0ZHv4dNrA/atGQ/NrvlIb/IJPv/2G7SKDAGsq7Eo5Wn89MM3eKtHK+Fy+wY4pgH19PaFh9qEuHMW1GrYDa8MaQdd5kr4NfoEq9ZPRvVIbzFcpO7A9/DDh2MxoMtDeGHUOEyY8xpOLVqLb7fb8dmDkSIvJn/HHMRV+whffTsB7SuHUbk3YsaxHvhh6rd4sUttFOrr4Rn/7dgb+zfqPf0x9u7chF2xzfBUS9c8fxKJ5LZDNGRwaywFqsqFOjJ2lCZ4kgeqMGjJBgwo7Ts84fzBKvq8mUn/HC6ghZXVZoFHZHu83zADU3YCHsG+KBvsR2dNKDCT5aTSIKCco/+e2WoSYpx/xDEMzFKYiTxFICbMmIjGRbvQ642JMJG//VGf8vjfrwmUGTvKdnLRHfcjzxZW9obzjdDqeAqYQhS593Px9EBImQDaMdO9yXVV6KAuKhSnTBaTcLfbda+G8S//jPtGPg3dpJnY3LIaIkQKiURyW8L97aAXM6PwAAvPIg+oszTQ23xhTz1G565hmUZjYT4KWXFsRuTkOkQkPzcPZnMh0ovKYOyPKzC/f2VMTa2JnLlPo0/vvthwIoVS3Yv6J0ahy8DB+GbVOQQFlEejchvQqGsvTFxzCuq8M3j+mf74349HyWVuhqw04N2xv+LMhO54e9Jm2ExFyM4pEPcryMsVogeLAVaVD15q64VRK0tcWu+6D6Do92fwSO9HsPoILwrUHG0UP6DF/Q/jh61neKYslKleH6v2JKCl1hNdWsXhaEyguFYikdyuOIeQ2q3kEZL+WfKhUmmhtOhRGL+eTniUsh9eUREe79vXGVt69q+cjO3HC7H7uBo/fPfyfzBDsQXvDX4Dz07/BhXO/4gSieQ/4sb0w/PCTxOGYsSoKcjd+Qq8E74j11YFhVIHFbmzhUp/qKo/V9p3eA6X9lrxCamMyjUaY9RHL/wHYseoMWzscIRLsZNI7iwUKtht6bRzAGpLISxKDUxqbiNQwqQyQq+Ph/n4p6V3aYsxn8LsX3c5D5gM/DJ7tbN7iTupmDdnnVg/qHLDTujcuS3K+/+T3BXit5lLStl371JkUplWnVemshFhKFlkUiKR3BGoFLDH7gAWtoTu7G/QKnTwsNigsinF1PFKmze81dfwDq8YTSpWrXefCDQHq5fvEv2dz8eODav3CcG7emxY+9dG0bggKNiLqb9FOw9KgxKb1uwp5b0lEsntiJJcWOisUKmpxvM7PPZIyZtzOHQkdXRYKsHT6r0Qu/k3DBv0KL6YfADWc3+jX8+W6DfqNzrrJbqXaHEaD7cbiJP5Rsx5tz/atuiI1WdzRUPBvl9HoFOzlqgR2RpHDGkY9+HPIt9l077GnmQLTix8D3Ub1MEHc3YgJCgY3sjGCw8+gb9jsqDIPYD3+gxD/yFd8fDQMfh+xGNo1vAh7Kfrv3muBX7YlirycjFv5AC0a9EOf8TlQ1e0Cc9O45R56Nm3vzi/bsKT+CsJiF48Bl2bNEWFVs/BMd+KRCK5bRGDIzgUK50Tfh1XymUaFSo1cs/sg77Dx3jjuTYosAZg7qJtqHRuPc6ZrdBaYzH0hTcwasksVElZiqXZHbFx+050qxJKVydgxKdJWLNzGz5oHob0wkKcTXKMuMhKI7HKiEafr1JxaP9hfPBwfVLXPLz+yiA8+PUstK9uxZHo0zhuVWDG9JXoZN6AgCG/Yefyfvjkw83oOOBVtIgqmWHPnLAUC+OaYcP2fehTMwTQ14D/ptVIN8Qj6PgZrKI0x5f7onG5JHz4RTJW7t6Fp+oGlgxlk0gkdySlEjxu7rV5hKN2BV4OMR/BFRuLaF/vQGjVGhhPbcbMDWmI9AOyT5+AX4u2dDYHFm4uzt4FQ6eBIn0RWZwKJclvjuMtnZdOi4LAmtj6v2ZoXCkQ/X7YDO/03Zi5PgVB3izTCvpnQ7mqrcT7N3VoS9ThWZ+seoQozKjTpi8alCuZOqAgPhraVp1oj+5t4SFkZdC4/kHM/XgmXvrza8wbMgbRjz2G0KytiKvSVVxjsZ33dSCRSO5ASid4hNlkgKHITOJnQX6+ox+eodAAszEP1qqDULDhDXRqPwzxEU1gX/k7YrauwrbTiYB/R4StGocNMdHYezoNOm8/KBI2YMmJZMxf8jsKk+OxKLUcVs2eCLMlFek+HZGx+xu83Wcw9pBbajMZ6X6OfnhFhXkw8gs+qxEKnS++ebkVvt9a4tL6NWgJzcpfcHTHKmyOd3RurhgegMnL7WgQ3ghVj/wP9jJRQEBbRG37GhsO7MXOpFTZmCGR3OGUaiFus9mMVm3uRZmyIQjy8UVoSCiiIgMQGBKE8PJRCA3yR0TNNugYno7MgPa4JyoBS48Y0P/hHqhSMQIdO0Vh46YNWLs1H8++1A8PtCuDX6b/iu4vf4HWtUKRdXQ95mw2YdyoJxER4I1yFZuiWz01DmQEoOM9TVG3TmVEhgfCPzgY4ZHh8NT7ICS0HCpGBCGqaj2E+jgkS6Erj/KBcfjrQDYe79kb1SqXQXBwJGrd2wqVwgIRXrc1ateqhFDvANzTOhBLV6zF8Wgj+gx+SE4xJZH8y9y4hbi/QttaZITxqtsMJ3FLx8O7/tUJQKe91Q4zdvjjyfGTMaQVv9e7dVgyawHuHfgIz6sgkUj+RW7cQtzlMeLRNDrg4aZ0Qkn/OWd4EhG261nEx25Acor7GrNmpCRnivucD8dnib2n/rcBmzYuvgqxsyH1XPol8iotlsuU6WK6S7GTSG5/uLKLARKuWn/+/rULnm03Xhm+yHnAnMabL313ic7C5zD81R9K2Yk4F+++8FFJq2nuTnw/95DzoDRk4L1hE25AB2aJRHJbwBadK7C82d1CabulqNQaFGQkYd2CaVi2MgF+6gx8/90o/LaZB+57wsfXV0wA+vOXk3HOBJxaPx9j3h2DmEKrmMzTfHYnxr/3HkaP/QGZ9iJs3XSYs8Wp/TtxjjvBJa3DG6+/g7WHziI4KEBYXCt+/AkHs8uifUMdti3ZhKlTPsL0VUdwcNnXGD5qiuhUvHv5TOxLOr8XXeymBRj73mgczLNRmZLw5xHuAmPBr8v/FOcT9i0CR1mSd2H88OEYPWHRJTpNSySS24qLBI9cX1egn1IJnlrniRPLxuObDcADrSoh/tBGNO3SH39M+ASZPB2LlwIrZg/FPp9GKJO/E2N+3IxBg/ogys9LXP/iwHfQ7ImBMC76GYeykjFj6koRv+XP+TgddxJ9Xp6D5z8aAk16EfS+Xvj7zxH4M7Ms6ukOYfLURRgxchTKtXoC+7/uid8L2uGJGnF4bmYsdiyfih2n3XrRFRzCmG+Wo+/Afqgs5txLwrwJfK9ETHziHfCYjbWf/wpTEDDqxTFo98QAHF++guxBiURye+NyX53wqz5XIEoleKIfnm8N9OnTE/BXI6rFIDStXh2NygWTxahF/tbxuH9EKj5/pimytq+CudlTiKpRF8HeJHg5C3Eo8lV0qFkDNcuH0o2V8PThRTcAD08vKHzLoGtkGh7tOhSmyPLwPTMPHfovx7fvPAjo1FAp7ajT7WU8UKcC6jR7HI8/0BC1O7eALi4eL367Cc+3DBF5MTm7liO7wbOoUqMeyrLJiSZoqfsDa1euwuufv4AJCzYhsVwPNMxfhHU+T6Fl7TqoVi7owkclkUjuMEoneITNYkKhoYjEzwKjwdEvzmi2wGIsgFfbjxH3WQDuH70d3vXqoGwmN2oUIj4rUyyuXe7cAZHeYC4ggVQgbcNOMbD/5KFNyMwuwsNf/YkDmz/B8DFfIq3iszi3shc6PTWHp0QmrbXCWOi8X1EBDPxirsgIpc4D+9fPwZ6zjj6BjLZyJYRlckNJEeJzHHZbozZR+Gj4LnQa/DJChg9AYrtmgHcl+O1aI85nmwpK/zAkEsntA1k0parjNpsV3kFhCPbh2U68UDHKMWlmaGQ41PSvjJ8WFfr8iC5JYzHzZA2UT/8CXXu9jOByPP16bTzbOQn3kXX43RYrKvhHYtjL3mjQqDnOhD+Cyr4WfPPC/Whc71N8MvYFRJAnGtryfbwUuQ7vTNqD6lUiUT7Ccb+Q8Ah4cFcbTQCqVCiDTX9Mw55EhxgyHpEPo6phIjo9/CR8QquKuMrhVVHtkS5gB7duv65oFMJ79fF83ww0u7cN/jyUL94zSiSS2xjulHcpuOWWjKx/tR/e7BH3Ye5OHSLbDsaUEeQW30LwxKCvzPgCt1bvQInkzueG9sN7hDw6M09VcgFC8K6nH9418MTYFVi+avEtJ3bMJ1LsJJL/BBYvHmWh1WqLAxtZrq1Op4VK5Rw9cZ1cu+AZd+CVd353HjAJeOuVS/V5i8Vbr/4AxyqwV0s23h/6MfKdRzCl4dipTOeBRCK5k2DLbe/evVi9enVxWLlyFVZRWLlyJZYvX4GkpKRSih67thTYsuMgKGXHY3czEjYzCgq5F5wLG3KzC5wD8F03IGwmMlkLS25UfPNL41gITYG8nHzXkhx0jRG5Ba57lVx/rf3mLuXms8nM4ULYpHbF85aPJRLJjSMtLQ2VK1fGww8/jPsfeABd77sPrVu3RvOWLVGvXgNUrVYD0dHRYkz/lTn/VZy7DLkoleBpPX2xf957aNW6C2b9GYfk3VMxZGAPNO05gs56iIW4zVlzUavR00jMS8FbPVri0Z5DsTkpX6xh8eMr7fDAgw8jQhGMTTkJGNLvU5HvT6NewfoTmZg2/DE82LcD3vx2M4KCy0JpXY97mvTG7iPb8Nuc6egY0Qi9XxiEZi2a46VXhqBH42aYdAJ4ubkCb/9VsmpZxoZPMHBKLHDsV5Rr0EfEvftYSxwpNOGzAV3Qu1sblGv+hohnpkyZgp49e6JXr1744osvnLEOJk2ahAEDBgix79+/P3788UfnGbrvyy/j7NmzYv+1117DiRNUGIlEUipchgS/m8vPy0duTi7S07OQmpqGc8mpMBQWwmp1N64uBwmekpWGZY3NJRVsSgoK2ldxvKqULq2dCqYLxqAP52Jg77oIqtsP02ctxmNRFqRSecyx81Cx1xIc3TsN/ocXIKn+x/h98R/oXKksXbwZ82J6Ytmyxfj8sU7gIRJ+AY5JOz19/OCtyMWGGDWGvf8FPnquHdR5W1G11Wgs3D0fTary+rZA1ceGYv6kWXiuQzMMHDsdf64dgT1z/sZ3O4wYe1/JQtxBTR5FVPwSbEq24oP7A/BHegJ0HkMRFD8PByu+g9+XLsdj9SOLp5CfPn06Fi9ejD/++AMLFixwxjoYOnQo5s6di0ceeQTz5s3Ds88+6zwDREZG4gH6RnrwwQeFaPr5OcopkUhKDztPLHyOLXlcVluxzXaed3lFLuWBOePspRxaxhdyB2OdknvPGaHSOiZTspP9piQHU+NXGe19E7H0NI/KUCAkipe2NsLELqG5AF41qov0JqtFjPQoPOmYw05tMyJPE4ZZMz5C2p9fo/s702DVh+G+Oh5YuC4fEIttU/5ax4gNk9Kbp64HCszQq/kjaKF1d++9ouATnoZtiw+hNVmEB155H4b+3RCcnwdouLOzBRY3v5Zfjrq4lNncrVs3/Prrr+jRo4czxgGb4n/++Sf++usvIYwFBSVdYyQSSekpETaFc/9qhe7qKKXgkdgY8lHIE4DaTMh1LsRdQGaoyVSAbEV1/Lx4BcZ2qIP5hnrImTMMb77yItbEJJHQdEWNnW9g8LsjMHX9WQQElEc177Xo/sJb+PqPLUBWPF59dySOnNCiafuayM71xZRpK7B+eDuMm7f/vIW4C10LcZsNpFa+eKnN+S4tKSSiEtdhg/5+1CrfEvvXLkSbNv5QN+mAzN+GYtirw7AlJb94ws8NGzYIK+2hhx7C8uXLnbEOPv30UyFq/MKUrcDPP//ceQbCDX7jjTfQr18/JCYmIiwszHlGIpH897BRc77FV6p+eEVFRvTt2wdmsq40Ku4XY4Ner4bJaISW0hiLTNDpyVoy5qJA6UtWWBbS8mwI8PGndCoc2zgbGw6nY/N2A6bOeg96FCEpMQ2BYZGg0yjMSUcGGWGREcEwUV5azstaiGzSNW/aJwsXOq0aZrqfiu6ntFvIWiTrktLYyXLTuMu3pQgmlR5a+ijGQsrLUyu+K3hESGHmPrwwbCNmzH9PznIskfzHHDp0SGhMRESkaLE1my3IyMiirYm8JgN5YCqcOXMa9957r+ird/l+eBUw4rFMOmCPkESN0rikTCQv7Xx47FczGuE+KoXYMSx2jBA7seMLL7qnWh+AsDJBQuyYoiILiVgo3hn/mphVBfR/OfqQztPw9AsWYscIsWNUnvD39hSuJosdo2Gx4x2FGhzFkxqcJ3aM2iF2jM4pdoxa5wXfsKZ4f1Q/0ZAikUjuUEjlWBjdxbHULu310LDLEDz55OOo67bgzn+DDrXqVLjBbwckEsmtzrULni0H0cdTnAdMEY5HJ1zgMTMGik+8RPyVsODEsVi5gLZEIrmhXLvgKQ5h9Ke8wquLsxg7asYlRlpk4tMxP5dypEUBPn3vO/rfSd4uTJrnmCxUIpFILonLquL3d8XwfvGJ0gmeWqNF9tmT+P2HsZj5Swx8SORGvjMQE5cep7Oe8PZ2zHj85Rsf4nQRcPiPCXiq39PYnW0UM5EYTq3Gy/0HYPCzo5FiK8SKpTs5WxzevAbxPI4sdiEe6dkHv26LRRnnjMc/j/kE2895o3FlM5b/tARjxzyLcb9sx9Y57+DxwWOEkK6bMx4b44oHohXDw1H69u2Lxx57zBlTwkcffYRBgwbhzTffFK2s69atc54BZs+e7dwD5syZ49yTSCS3NOJdHQXeut7bFU/xznGlbLTgfnfxa7/Fb2frY9DjjXD62D48P/pHHJj3OVKtNnh5GDHrywGwdXoaUbkb8MnCFEz76Us0CeWFu4146onP8PJPU1HvxHYcy0rFHws2i3z3rV+J1NPR6PLiX5i3aDbqa3XQeGsxf9pQRFe4Dy3KxGPur6vw5eRJePClH1D4y0CsD30dPz6px6DvDiMpdi/OZF1sW/LICO4sPH/+fHTp0sUZ6+DVV1/FzJkzsWbNGtGx+J577nGecYgcd0Dm/nWvv/66M1YikdzSOPXOIXjOCBY6EUjqKL5UgidmPParge5dW9KBGVHN+iDcU4dqZctCpdIhf9f3GDQhH2/eH460vZuhak6Wld4PHlqy+3L+QkLtYaim0yPAzxcqpRI6Z4dfnvHY5h+Bl+8xo3Hje7DHqoNv0iL0eXcX3hzYSBSUZzyuRULaMFCJyPp98XCLsvCuVg1BmakYMGo++jcKEnm5w+voulppeAoad3x8fDBu3DhhAe7evVs0i7vgtS/LlCkjQmCgYw4+iURyG8LCJ8TP4daWTvAIq9mIwiKypkj8ilwzEBtNsBjzoW8xEikTKqL1sBXwqFcX/mfS6GwBjmekAn61EBSzUaQvNOXBRiKUummHGN51YNtfyMjIRf1XZ+HQnon45ocZSI8YiMzV/dG1z/ekQN6wWSwl93PNeExlUWg9seH3z7Eh1m1NCyc8AJnHwbKovfLKK85YB8OHD0ebNm3EljsWu3c4LiwsxM8//yysw5iYGGesRCK53SmV4NmsFgRFVkVUML+pC0Cj+jx0DKharxa0Cg9UqxSIkAe+wotec/DLyTpopJ6GLo++gwb161OqGhjxjBYP9umBCTvVqOofiQ/HVkSTho1hu+dd1AlRYd6Ih9GwwRf4/vNhqFneDwH1X8X/2p3Cez8eQrPGtVGvtuN+FWvWhh8bh/pwNKwdhviju5GU6xoZW8L48ePxww8/iAH/7N668+GHHwpBdO136NBB7DOrVq0SkwiMHTtWWIkSieQ2RbRZlDRi/KszHs98rwvm7fZC7e4v4ouXOjljJRLJ3cwNG2nxWsWSkRYsas6GimLosNQu7fUw6JNVWLFqkRQ7iURySXgiDx5VxWPXWdSue/5JFkZXIP5VwZNIJJLLwY2FmzdtxInjMTh7NgFFhkL4+npfv+i5ce2CZzyAj/63wnnAJOGzj+Zc3MHYnoBPx84rnnvu6sjFlx9MQvHCi9ZCZGQZnAcSieROhI2wJUuWIC4+DufOJSE7J1Ms4HMjufbcdAacOu3e2ddIypzoaAF2R6FDQuw5Z6Pw1aLCqej4kmusydh7LNt5IJFI7lRq1KgBrYZbJNmdpap/iWUX/hm6UIiHU414nzOjn1IJns7TB4cWfYr72nfAN9MOIefIHDzavRXuGfAZnfWEl7c/NPa1aFCnL2Jzs/DR423QtmUXrEjIBX+EhWN6onXTVghWhGF7XiKGPvW1yHfOx29hU1we/vpsABq0qoPXJqxHmTIh8MBBdGn8MDYd2I/Nq+ajV+2O6DHgATTr9DDeeakXmldrit/TgLc7emD0SsdU6+58/fXXokNxs2bNsHmzo5Ozi+eff150Rub3BW3btsWiRYucZ4D27ds794COHTs69yQSyc3G19cXURUqoGLFiggJKQuV0n1m36uB0nMnY57qnRssFKxyHCieQiktPAUsVis6vTYbw55qAV34vfh9yVY84J+CFIsd9vR1uOeRKdh4+BeExy7Gsci3sHHbFnSrygsg7scPa+pg866tmPhYO5jMNmh4JmNCRYruaUrG938rsXTrbnz1dGsozdHo2P1NfLn+D7Sp6Y2CQiP87rkPi+csw9P1vNF51ELs2P4ulkzcgPfm7sfQe3ga+fP57bffsGXLFuzcuVNM1OkOd1fh7icsehs3bhSTeboIDQ1Fu3btcP/995835EwikdxcduzYQfV6G3ZRnT118iR48f9rg627i+WtlIJng13tizK+rLqF8AxwzPCr0XiSEtMtTBYYk+IQa+DXblkIrlOHzhpg5dsUJEDVwtE6a+IFOag8pkTH6AcvrQb5XhXx17Tn8NXjnfHQB/OhsphgMxXieAIl0KjIIrXBO9CxboXNszxC2GQ02OGjtMG/bHWU9b54djuTqeSNovs+Y7FY0L17dzG87KmnnnLGOjh37pyYBZk7I7PoSSSSm4/VasfgIYPx0EPdcN8DD6Bho0bCA7uBbRalFTwSjqJCFBZZSHXMyHNN8Z6fD7OxAPl+bbF7+3wMbNAWaz2aoGDuGEz9ehxWs2p5dUfFNcPw8U8zsWB3EnwCIhBiWo23v5+Db+ctgjntFD6cthRNG3RChVplkGWpjA0rlmLKwLaYuSYedpMRubnOKd4L8hxTvFuKoNT5480uHhi5IlGcc2fGjBlo2rQpGjRogH379jljHYwYMUK8IOXhYx9//LFI66JPnz5o1aqV6IycmSnXw5VI/g2MxiLUrFkbnl7evIQN8vMLqf5lQ6m8qGXgmilVx2MeQtb74QeQZdYj0NuEhEQTykf4I/VsMoLCg5B8JhvhkWWQe/oQsnyqwyPnCI6lmFE+rCoqRgXg9O4/sGJPHFYsScKsv/4Hn9x4rN4WgyoNWiMyWI8z0bsRc1aJjl2aIuNMMkIjQ2FKPYmT+RqU8fGGyaJCeJg/MsgC8wwJg4ctB8m5HlAWnIIiqBrKeJXW35dIJP8153c8NsBstiIjI1OMciooKIRWqy5Fx2PyGosc7+tEx2OlyyV2aEOpLDz2pxU6bxI7dh89hdgxIeGhlJ1GiB3jG1UXUYFahFRsiHYtmgmxY44f3IHYuAK8/OUIiAUafSugc9euqFjWC2qVChVrN8d9JHb8Zo/FjtGGVEGtSlFkiQUJsWOCwkjsuPwaP4QG0X3K15RiJ5HcEbiE7MLt1UBpWQivYBGW2qW9Hjo/OQ6fjh+BDtXl+q0SieTf5zoEz4iMzOI5iQkrMjNynfvuWCj+4plMrowNWRnZjq40EolEcoO4dsGz7sTzr//uPGDiMOy5r1DkPCrhLF5/ccIlpn6/Erl488nRKJbJ3N2Y/Iuc4l0ikVwtlzKXSjnFu0qtgSErBZuXzsWadYnw12Zj+rTxWLIjic56wsfXR0zxvmDSTKSYgdNbl+CLjz7HqSKbmOLdkrwP3479GJ9+ORPZdiN2bY/mbBF3eC9SWClTNmPUiA+xOToZwc4p3v+e/TOO5obg3oZ67F65HXNmfYF564/j2JrJGDN+FtmCwP61v+JQ8sVSm5WVhTFjxmD06NHOmBJmzZolJgCdPHmymO597969zjMQsyC7cN+XSCS3Mu7v/dz3XTJXyhmPef3XmKWfYPxfWWjToDziD6xFlUZdMferscgiQfX0UmP9/Ffwt6kiAvP34IMJK3D/g50R6uVYlnHYoNdQ6b77kTxzMg5kJePHSX+J+E2LfkZsXCwGvPwTHnn5QRgS8qD388HW1WMwN1aPaqoDmDRlAd5+82141rwfm8c/hDmp9XBfmYMYOjeB7vk5Npw6f0ZjZsiQIejVqxceeeQRsX6FO40aNRJrWfzvf/9D7969ER4e7jwDfPLJJzh69ChiY2Px3HPPOWMlEsmtD0saB5fg0b7NFVfKNS3EFO++1dHviX7QldEiquUQtGnYEE3LBcGm0CFvy1i0f/McJgxri+xty1HU7FnUatQcob7eQM5C7C07DA81aYQGlSPoxgp4+nqJbD08vaH0CcQ9QUkY2Pt9eNSoAt8zs3HPw3/gx9GPQO2hEVO81+3xKno1rYWGLR7HgIdboln3tlAdP4FXJ+/CS5cYaZGeno46deqgXr16iI52WJMuOH79+vW47777EBQUhLJlS67nad3//vtvcb6gwP09pUQiub0437UtneARNosZhkID5WOBqcg55brZIqZ497l3PE6M80a3sXvgU682wkRHYQPO5GQBftUQnnFMpC8yFcCuVCB9/S6x9mzc0W3IzDFhwKQVOLDhA7z63qdIr/QCElf2QKfnfiXT0Zu01gqjwXG/oqJCGNiDLeKOx544svV3HDx38WwqdevWFbMec8fiC1cu++qrr+Dt7Y0JEyZg1KhR2LNnj/MMabPb+hfZ2XLSAonkTqFUgme32eDpHwx/7vNm90B4mKN7SXBoCFT0z89DiSr9p6NVzHuYfqI6QhPHo2vPF+AZyH3q6mBQyxPo2qcXvt1sRpR/JJ5/Vo16jVvgeEAXVPA24dNnuqJJ3fH4YMxzKKs1I7z1aAwJ/BNvT9qFShXCEBbiuF8gWWN6LrnaF1ERQVg15wtsjru4JXjixIlitESnTp3Ecozu9OjRQ7i6zPfff4+wMMcwOeaXX35B8+bNxQgNXuBHIpHcjrisuxIr71+d4n32iPswb5cOZVsMwPQPL14rViKR3H3cuCneK2NE71w+II0jUeM0nExM9e5IX2qX9np4YuwKLFu5WIqdRCK5+bgEr7gB418WPIlEIvkvKZXgKXhSPVMaFsyYgqXbjjtjL4M9Bb9NnIC1x9KdEQ7SjqzDpB+mYMPhZGfMZTCewY793L/PiTUDO3edvKDNhbCmYceuWOfBVWLPw66dx0SDyY3EmHMCc36YjL1JF010fwnSsWN3vHNfIpHccC4Si1ILngKmzHQENLgPD7WshvTDK/D+66OxOibDmaKEA8tWotHzL6FjzWBnjIMytTvghec74ewJXqT7SuTi9LniVS2o8AWIO53mZpw6UVlwOuHi+18RhQmn40oE15gVj2On/2n4mwG/fzENbhJ8ETvXbke3559DxaR12JPC81edz4k1v2DCrNmYOWsKtu2MQ1LK5e9pLUzEkpU7HQcFCViyytGKXJQRi5gz7lPrX5nkfX9i3Oc/4Ncfv8Ss1aecsRLJrY3bK7rS45pAzz0PjqJ41QeP4QM+XpvRDS2aN4IGRjp3/t14Er6TJ0+K+eVrVQjF6WygUrlAeIaUg+GsGZ07R2HRrL9w+PBWHExWolY5BVYsX4cjR1NQvnpZrP/9d2xcvw3KKo0R5kl5m1JxNNaGOtVDnHco4dj21di4eTeKNDqcPXIMR49sR0yeD93XEydjjaheKQ+Tpm1HowZhWLvgN2zatheFHuXRuFY5HFr7O5bRfbZsPISqjcOxfm0cqlYOwZaVaxFYpRJOrPsNC9esh8UjCtYCE6pVU+KnH9chJMwbhfnJWP/nJhw6vhP7Txch+9garNt2EsG86LeYW9SK2AMnEdG0LrxFSYHTB1bijz/WItYShJq+aSRQ23EiPhGHY2IRd+IYohMMqF+zvHia9qJTWLbFhGcG90SD+o0RGWDEzq0HcDxmBw6eU6BupA5Lfp+PzVs2ItOzCuwnNmHDniOIO5uG5LijOBJ9HMdPZ8LbTwOrIRV/r9iOQwe24mimFnUqhiAjfivmz12JLZu3QFG+LsJ9HbNJ551LhL7eQ3ioc0McXLUF1ZrWwqEVc7F01TYk2gNRIzwA8buWYP7ijeDvrbpVArFq9kLsP3MAu3YfR15aPFYtXQNFxQYIkzPSSG4Cqamp0Gg08PHxEVNC8axM+fkFYt9oNkGtUiMnJ1tM+87pePJe90YLG4mZVanHvpXfom1t8q5s/HdK5+nHJtLxPiWi/et8h2cWU75byPoxqALQu//TCMqJJQEqi8bV66PfM71hjdmNsi0fxTMv98C+Rav/cfUyQ04aKrXrg0ZkGdr8K6PfwKdJWdh91sGYEYN5S2Lw1DMPIjt6F4oqtMfgpx9HkFYNu/EkdiWHYMiTT6F+gB4mK5WKJyoljEUmKPMTsfmML55/5kW0qEAPtvAs5v62BT2f6oEyOhPycvNh8I7A432fREDaYdTsMQR92pQlEb94YlEHWdh1SIHBZNHpD21Amm81NKtRD/0GPI5ebRrg3seewqBerYu/OsxJiVBWrOQ8InRKKL1C0LvfU/TM4pChDUT3PoPw1HPPInf3FnpmndG0WXsM7N0dXe/vggZNO2DI4w+gnN6C3Lw8mDwj8Tg9G81ZttoM+HvVGTwy9Gl0bxYBk6HkKau1FuxdMh1T565Ci573wcN4ggS6Fp4Z+ixUh3cih/7ti/fCs0OfQeXCGMTmFMJAfxidH+qHdlF2mMq1o99dVxzYdMiZo0RyY2ERMxrJ0HJaZixmarUKOp0WPl5ewrPUah1f4FcHCxwF0dtEITaOcN2Cx4vl8pgJBbx8HK6rWqsXldxsMYslGzNTcqASk9eFwM+a7Fh6kRNcDq0/Arzog5sspPg8j54JOq1jFSNzYTq5gdlivryC/CIElwmkPa7cSliz0uFbsRrtk6qL/0n1jY6Kr1EpYCEx693cDzO/+wR/HcuGwpiFxNQcqOkJKOlBcN+cgEAebWGDyisCPPOeSamBnueuL4Z+Ec492DNw5tQJ/L54EcxhUcLqM9E3D/eHNpDAWujbyR2lhxaGDLdOzJSth3eQ2FXrPOBBXxtbF8zG9IWLkafSARYjPUOHYFvoj8HMbe+EXfwSAR8//uxWejYeVOQMGIIrijkGzfzh3Z6vxaRG426Po4FXDuXrRb+QNBRoeJQyEOZdgLTEDGTbxOyECKEPnZZphta7rBjHbNEEoKwPFZTy9NYUf3KJ5IbCa8ikpqVizZrV2LqN16DZjlOxJ3A6IQ5J584gk/5ma9euIyy7a4Grgytcm+A5K5Q1+xySM1KRSuYmV3bGbDILd5krPFf5yrUiEbdvP5L2/Q1zjVb4p5nwLGTCWqxUw+xWmCgv2nFujdCXa4U3e9fBdzOWQRESinNH9uHMwUNILSyCOrQiCsnSOn32BJJyi6DR+8CSeQxH4k7hcGwCLFkpOGbywwNtWpHJnAv41cbbT92LGVMXklVDZSaL0CgE0g4zCQzLi40+k5nL4sRqycfJxDOIPRGLXHMF1G8YhEZN7kF5H0/xIC0mk7guqKwHEo5FIz6x5D2lOqw5onL2YNPxWOHGHtqVBKtzgRKLme6TexZHC/zQo2092A1Ufq0fLPkJOBWfDLOaPkv+acQlpiPfSPfgLxNnWU1UVpsyHOXyDmH7iRRKkwmFpsT1tFlMyM01oEmP7ji2aB7O+NWCf8YuxEYfwjFlRVSJqIQKOIp9x+KxL80HdaNImA2UJ11roWtNFtqjcvJoGonkZsBrz9auVRudO3dGp46d0JFCh/YdikPbNm3F8E8rr4VzJRwG4kWw5cjGI29L/Q6vRvkyiMsiIYsIQkFWFnRlg+GhCULFCqHw8dbBL9CfLDNv+AYE0LEvvAIi4GPLREK+H7q2ru7I2ZyKA8dtqFfz4vGvXr7+8PP1gVbtgUDKy9dbj4AgypPi/X294FO2Iip6FcGjXB2U0eQg3R5A7m9FSheEyLJqJCWnICldjaaN6qBKuB7nUvNQv1lrhIX4wph+DomGAHRoVht+Ph7wprJVJyPL7BGKChHhCAsNEp/BP5DK7usNLYlmgL8fvPRs3agQXM4XucnpYgU1jV8ZNKgeiXh6LpYyUSgf5AMfcZ0PPAIjoMxJQkaRCuFlHbM987dE5frVkBmfAINZj5qNGqJsoDfdT0/Pyg/+wRGo4G3DiXSgcaNqCPD1Q4iXEvEpuQiJjEIkWVrxKXkoG1kBoSFhxWUNCPKDN92zQuVQpJDbfC6lANUb1EGAziF6Wi8/BNFz9Nb7oWKYF0zqINSJ8kVcUiGa3dscnmoFIiqUxbkzSaja9B4Ee3nQ5/eDLz1rvTeVy88XerIiAwPod+HDc+FIJDcW7mzMgYXPRhrDwsbWHO+7tq59Dw/yhWh7yXd4K75F2zrkV1pLvvDt/O6uGPJFSzPSooisi76PdsGKhX9BVbEFOjep7Exx9WTGbMafOxNQq0UXNK16fgvu9bJ9xVyczvZDswe7oKJPaXz+25+43Suw41QuKtZtj+a1HFPtSyS3Azx2PT8/X4yicMclai4hZFEMIEPqsiMtXq+CEb3z+MBxgnTNprRDyevTCvNP+e8OLZNIJJILcRc81hqX8LELysurcoPGjRK8a3uHJ5FIJDcYbq3lcbW8KP6AAQPw1ltvYenSpcKNvVFIwZNIJLcE3O+OZynq27ev6JPHsxk9+OCDwrIrHWTNiS4uvHXEOCjlFO8SiURyM2AXlQO7t48++iieffZZMSs5u7Su/nlXDb+SY5fXmacD3l53PzyJRCK5PljQuCeISsX9ehVilvGaNWsKsWO40cL9nd2VYUmjoOCWWs6Pt8644v8lEonkP8Qldq7A7i0LnSu+dFzeIrxqweNWEi6ERCKR3EhcIufoIFwSuD8eB9YePr4RXFW3FG494UVtKlWqJIaB/GOPZ4lEIrlKuCPx1WgKu73+/v7/0C2lACgiN5asQ2HonWfS2a9O8Fhd/fz8xE2k2Ekkdx63Q71mF5f75LGneXnBK6QDEjw+f62CxzfKzMyUYieR3IFwt4/y5csLw4bfmd2KsMCx0PHSq2XKlBFurovzBK8PC15Jx+NrEjzu/bx69WosW7ZM9IK+Uf60RCK5uXBddbeGLoRFpEmTJmKhet7PysoSBs6thlarxcqVK4Ug33///cUtuMxNETy+GQ//6N+/v7T0JJLbABYHFjBef5lFjMXPtXXBx2lpaWLxea7XvA4zj2y41YwaLtOMGTMQHh4ull79VwSPHx6PpS19z2eJRPJvwoLFVlFGRga8vLzOEzx32Prjzr68LrNL8PT6W29WHBa8WbNmiXJeVvBeI8Hr63yHx1wkeBcdSiQSyW0Ku+5sqwmDjaWNgt0ZwCKokoInkdwtsDXHXcxu1YaJ66bYMeUdFj8KLH7CO+c4OVuKRHLXwA2OCxcuxJYtW4S7e1fAOueGFDyJ5A6HLTt+d8dzWsbExODMmTM4ceKEiL/bkIInkdwF8OgEtvC4l0W7du2E2N0VvS0uaG2WgieR3OFw6yy3vLZo0QIRERFieGiFChUuarG942Cx488oPqdD+KTgSSR3ASx63LGYrToepeA+UuFuQgqeRCK5a5CCJ5FI7jDIfXV/dceuLR/TVgqeRCK5s+BVykQDtLMVmlujnUEKnkQiuS64IzOHq+3mwvPa3RRsdH875c3TunNQUuBRFkIAOUjBk0gk1wF3YD5y5AiOHj2KvLw80fLrLny8737M6bdu3SoaUW44V6G3UvAkEsk1wZYaj9qoUqUKKleujKCgIDGonycsYCwWi5hwhCck4CFtDM+rya3F/9U0c1LwJJK7ALay2LriwOJzI9xK7trCE4fu2rVLjODge/BC2ixox44dE1YfTz3FgpeYmCjO8T7PWnxTuAr9lIInkdzhsBCx5bV+/XrhTu7YsUOIz/VaWCx45cqVQ5cuXURHZha9s2fPIiUlRZznxbTr1q2LyMhI5ObmCiGsXbu2WJfipvQDFC7tlfxa2UorkdwVsGVXWFgoXFAWJZ7j0v3d2rXA17OQ8djc5ORkIWS80BeLHN+PJwxmt5YDCxxblTxFO19zU+CP8w+fSQqeRHKX0K1bN7Rv315M6V61alVn7LXDgscuKjdW8IzJ7N6yxRcXF4caNWqIY9d0VLxfq1Yt4dryvV3v9P5tpOBJJHco7LKy2LhaTtmlbNiwoZgmnS0ujrseK4/zYHc1KipKCB6LX0BAgBA0vhdbfGxVchm4kYJFjhs4+BoWyeu597UiBU8iuYNhsbuwjxzvc/yFXUiuBRY9DiyunBdvXbOwuOJc+65zLrG9aYhRFRzoP4XzgPfp55oEz1V4GWSQ4dYMLlzC5i5wrsDHjHv62xsSUdZREfgzkQDT5+Q1euwKpQilWsSHF/t44oknxNxaV4If4E1VcIlE8o9wPeSGA7bwLgfXU16Uq2zZsrf/Ij5vVMeIvkbnIj4kajYlrKzp9BxY3IUElkbwuCXm0UcfFQ+IH6brG8LFnfNNIZHc+rjqoKveuYwMVxzX2yuJHcPXFBQUiMWt73TBY85XrH+AHx43LXNwdV7kwE3QfI7jXPF8LIMMMtz44F4H+ZjFwFX3eJ/XoeVwNdxtRkqpLDweMsLr0rpcWn7YTEJCgmipcb2sZKS1J5HcfFj4oqOjRd83tnpc7+a4YYD7v7nq6JXgltQ718KjLf1ck4XHuJvPHKZPny4eksucdiEFTyK5+bBVt3HjRqxbt664UktYe0iPnBrlrk3X/IT4W2Dy5MnC/w8ODhYC5xK5S4ndleLct1eKc3HhMXPhdcyFcby9VNyFXOrcpa67UpyLC4+ZC69jLozj7aXiLuRS5y513ZXiXFx4zFzNdZL/FvbAePTEqVOnLjI87l5cz+EGCR53HOzbt6+YJYHf4XFHQzafOd41E4IrsMns5eVV7PKyqc3pWTTZ9OZvJm4I4S2b6BzHeXELE6fhArsqGcfx+wlOw/CWByPzPTl/zoPNXU7P5XLlxcLM34Z8ns/xlsvK5XLlzVt2111l5TRcVg6usnJenIa3XFa+5sKyuuB7XlhWLhub5+5lZbhs7mXlsl+prJzWVVYuH6fhZ8r5cgVwL6vrnY97WbkMrrJyPN/T/XfE2wvLys+Zr3GVVfLfw78HX19fNGjQQIxnlb+XK3PNgscVh1c/4mEq/JBdosc9rnlKGK4krkrHlZ7H0HFFcYkTV0CeKoZFggXRz89PVFyu2JwXCyDnxcdc8VyVk3tvc158zPfjys2B3y9yXlzB+X5cibkbDZ/j/DkvztMlVnwv7hXOZeVycnm5TFw2zt9VBj7m9K6ysjC4l5Wv4c/kXlaXKPEfIuflEiMuC+frXlYeYM335/GFfJ7jOC8u84Vl5TJw3nzM+bBA8WwUnBeXlY/5ubjew7jKymW6sKz8bLhMnB+Xz1VWTuMSOv59cVl5n8vDabisfC3nz9fK8N8G/rtlo8M1VMxVT+5eqO5x9aNncyH8vK5J8PhChisRu7McuPJw5eTKwpWBKwsf8y+Eg8sC40rNlY7hCsr7XKG4wnJ6Tsd5cYXmc7zl4PoF8zlOz/A9XALD17nuzddxJXaP4/y5MvM+l8NdhPi+LmHhCs3X8f7lyspb/sNypXMJuausDJeJz3F63ncvK+flXi5XXhzH9+Q4Tn9hWfmY9/lz8DGf47xcn8O9XO5ldT1X97Jyet5n+DPzOU7D+65nz1z4O+L8XXGS/x7+vXGDBcN/WxwkF+N6LqVupR0wYID4w2c4E9c3ivuD5jj54CWSm4Orzrnjqov8hciBvwz5i5C/7K4EX8OegKuVlo0Y/mK91eovf+HOnDlTeJVXbqU1wWYqmevP9aT48/BzuSrB42/8ZcuWiW//jh07XtW3uxQ8ieTmcCnBuxQsdlzJ/wl+dcLdPTg9N3yw4N1qsNG1ZMmSqxI8u5vguSiV4Lm+BfhmLutOIpHcObAFNXXqVOzevbv4VcetBlusDz/8MNq1a3dzBY9h0WMLTyKR3HmwIPA73FtV7Fywd+kudsyFHY/tppLP4O5plkrwJBKJ5FakWPBeJ8F7vMTCY7Fzd/9593wHnyL4tIIUUAYZZJDhVg9KBW2LNY0FrPhAwILnCpS8xMIbcWoaXhn2JKmjgQ8lEonktsBmU0DrqccPL9XAiH5k4YmxtCXv7Yphi08IHonf4+u/xpP97ofBIBslJJJ/nxtnZrhsnGvL8RquumkW0tVlzNabUuONXbMfxQeP516F4FHclpP+sJsLnGckEsk/wxXSzYUqdqd4e4nK6jpPFklJWoJ3FRd2HxGRFCgfzkpJ+zbacUYVX+++70RUaPrf8f7KFdzgd/RKW0lenF7MEEyI9/du6TkP56mSnQvLSojL3K4T+RRf6ED5zzO3lMDXOtOLbMUNKLjK6di47mml+1UJ80J4cBHs9HxJ2wQlgkcR9EOCx5+UfkpTFolE4qyIpcAlatzZwVURuWKymBVn5p6pWxzvumpxsZDxMZ9zHTMiQ8euwHnOdVrAxxzh6nXhTMO4GixdebqEsDiNK/8L7uOcUr0E93MU7HTsusyFiHde48qaEfskSM5Txde7EnDZXLdzpWGsKkeDK1tyovyc1JUpXe+w8IpjJBLJVUFVhiuWu7t0GRyS4kivdFo43L1LqXT2FePaJwSP4YMLLQ+RwLHhZCx6xWLp2ucTrjwuhNLQvW1u15zn5gkojc3NmhL50g6LjtLqiBdq5X4PSuMqK19enKV7PN+L9oUI0bHI64I8XPd1PQPxXN3TEGwRF0PXUPnPixI47svRjsfiSuAqv+M+F35yiURyVVxU4y7LlVNyRb0Krv52l8Bx8T9mcV33cFzuHor5x4/oSnCphM64izI9/17nn77cDR3OvkQikdyhsGXntCIJKXgSyc2E/Ct2sS7JZU844fOcRATed0v/T9deAvdRB5fkwntcDpHOuX8JHNlcRT6l5R/yvPJ9Kd6mwP8B/wRWNfjXN38AAAAASUVORK5CYII=;" vertex="1" parent="1">
          <mxGeometry x="1040" y="420" width="316" height="196" as="geometry" />
        </mxCell>
        <mxCell id="6MqGrB4b9lXM-VsAvl01-24" value="" style="shape=image;verticalLabelPosition=bottom;labelBackgroundColor=default;verticalAlign=top;aspect=fixed;imageAspect=0;image=data:image/png,iVBORw0KGgoAAAANSUhEUgAAAXQAAAFGCAYAAAB60WT1AAAAAXNSR0IArs4c6QAAAARnQU1BAACxjwv8YQUAAAAJcEhZcwAADsMAAA7DAcdvqGQAACq2SURBVHhe7d0HfBRV4gfw387ubE+hQ2jSiwKBEHoVQbFQjiKoeHL69yyolPOwyyGieILlBMWznGLHrqAiHUJHiiBNJELohJC2vfzfm90NCaCSEJUdft+PLzt9ZoP5zZu3b2YNAMKilNCkcUPYbXYxdNqsuOL3+9GwUSPUTElBKBSGQb7bMzCIGYFAEKpqgtsvlotOt1ktWL1yObxeLxRFiU4l0g+3242+fftqr7/4/7j8wwmHxX+iGEzwB0Pa34hiNCL7yAFUrFQZZtWszaffl/yn8Hg88Iu8enradCQlO+Fy+aJzxXxRiv4VVJMJ/3r0QXS44jpcVL8BTCaj9g8Zz/z+AALBwG+fm6K/ieKhL1exmC3if/RiE4l0xi0CQnNWf+qyYnTy70GeBEKhEMP8DyR/54dy8/DYs49hcMs0DLvxJhQWurR5JQK9f7+r8chzb2Pllp8RFiFY/N9I/iMW/4cMh+U/YnSEiOg8ICtfitEUHSu7UCiIkLwSOSX3ykrmpYxbxWKB0aRGJpZRKCCy2etFk9RGeH7m05h43S1QbTbtxFoi0FevWoF1xytAhT86JUK+oaAI+KDYkLaSGHc4ExEI+HlmJqLzgkHUXH1uN3784XuERU5p6VZaMs5EvtW6qD4qVK0Gd34eCvJyI5O1BUpHrmcUx5VcpRpMRgU/zv0EmetXQyljqMswr9umLRpeOUhs3IgfDm9Ae3tFpLbvAr/fVzLQ16xciY25yTAiEJ0SIc94OccOY/LYEfjrPY9i7dJ5aNKiDbpdMQg+b+RyTTGqolYvAl4bO7OzWYaIqCxMqorVi5dg/F3XwR8q+2deZpOCF195B03SuyL34F60TWspKq+yhn0yuYwmk8j90/chK77aySRGnBxka8eqTTvhO3oEDY5swHU39BM17JLt3jDKn6KEovvQmnnFcDBcIi8NFjPefedLbE9uhsbtOmNN5mpcVikFzVunI3BqoK9amYGdnupQwsUDXV5yhGG22DD2xj549Nl3MGf2a1pt/a93PQS3qxCKqiB71zbY6reEPeyVyS3WCos3J2rzYlg7NiWMozu3w9GgBawhb4mDJCI6V6pqxopFC3D3369D5sGcSO6UkmxwqFoxAR9+9DmapndBzoG9aNSkEVyeSFhKMsz3/5yJ48eOlQj1kAjuxhdfDLPVVhTqMueS7Bas27IT3qNH0bJwOzrUqShOOCFtntxmSOx0075jyC10o81FIn/FxHV7DiHJYUfL2pVEDV+kqbzgENNVMbxmXx7WqXVxSaeumP39EoxIqYVmrdtpNfQSpxi5caMIYKOokQcLcxB05WnD/rxjCPpc2rvN3L0DS+bPwaBbxosNBMXyqtiJDyte/zc2ZRXAYrPBm3MYh3PcsNkcMHqP49DhXJhVF5a9+jS2HCgQv3hVnJAUceAsLCws5VSUyKvWDCzDTCZgaYsITBnFohqrZaFBjMsmZq1tPlpUiwVbls0V4WsvKq3rWLWybN5XsFgjHSliRaZs7PgC/gBCAZ/IUz9Cfj8M4iSwfd9R7Kubii5j7scrG/bh5fV70XnMfciq1xrbxDyDXEcsG4wWWRNXxLGZRPEFZWaLYxU1fNm0c9o1Q+Qg5CfXYoe+AhQe3C7ODl4Yw0Gt3adT526onxCCa8lzSAgch0GcFb3ZB/HT3h3ImLdA1NTn4Z3pM/H+9NHYe+g43vzvJCz87F3s3LMbmft3YuncbxASlw2KUexcHAQLCwtLuRSRXbId3WAUlVKRVbImHStmmx1G6+nFbBeVzmLLKbKI9cXGItsTYS63KZudY8WgmGC3WVG/QT2sXb8F323Yij17DyItPRVul1tsRz25vFhWrq+FrSjRlEVYDIdFyAfFiaNxjYrYu3SB1trx8NOT8NC/J8Hn9mDP4m/RTMwLiWOILC9OMPKkI9aJvWefOHeZxPGaxL5kr0Q5V9b8NatWLMdeXASDCG9ffjYU1YKCw7uRULUejonLi7f+NwO3Dboc1Rbfhw82HMOgSR/DVaMDbI4QFk4cj4YT3sKWJ3tht/MqpAYXYI1jKJIKN6FZ+6G4vHsDfDR+HBrf9xLq+I/AX7RXIqJzp5rNyFi4AH0u64ptmYdFDTYSoEZVxfb1K1DNEpBN0kVkzXb/sQJc0uMqUWP2atNk80f1yknYvH4d0rpdhoN7dqFi9Rpwu73RMBXrma3YNu9dDOjfB1NmfoZmrdvip++W4fkp/8C4ia/g8iHXF322KO9/qZxsR2bWEfhyslFpxbuovmM5giazNl9SRQQXhgx4v0Iapr85Q9vPnTfegSHH18GphEVoR04ssoVECfpwpGlXHGo7GC3bd8S0Vd/i9ioV0ahVW+2+m9Nq6EZRcxb/wZKQDG/eEQS9hfAUZCPRbsSYceOh1GgKd7/pGDDpE4Sqt4RRO8eEEQgWausnJ1VGrTr1UaPtCFzTqytuGTkSwXWPYc5Wn9iuvHlBnAmjZ1MWFhaW8iqRWrB4NSkwm1UR8CatyCaQnMMHMP6+uzFu7C1FZfz4u+C0hLUbCmPLyqLVdEWAysCXTS6yaUOrwcuav6wNi2HZrFOrdgruHNEbl16cjFG3Xqs12cjpxZc1im3J44pkXuTqwVqpCqwVK2vFJoonqSrm1++Jaa89j4wVa7B06SpMFcMLGlwKt5hnjy4bWb5K5ApEZLTsNeMTJwKL0QWLUiBK/uk19ENqQ62GXnhsn3gzRtiSqyEcCsLvLhBnG9mW4xNbssDnyoUjuaq4lEmA0ZKEfR8NxtivUvHC7Q0x/bV3YEhsgjv+cRuWTZ+ANbtzMOTpz1H5234YP78t3n7jfiiF7pM7JiI6R2ZRQ182/1v0H3gFdu8/rgWppJotWDXvSzj82Yj01I6Q4X8014dew/9P1Kjd2jRZo5Yfiq5YtAjp3S9Dlqihp9SpG/lQNFpDN1vtmPvKNNSslqw1p0gyyLX27cTaSO/ZG35fpBeLnF7RacWuzP3wZYsa+vpP0MizHwGD7LYYEhViIEtcHKxucinsiYkoXPilyN8w7L2ugSsvD+12LEJtcdIJyl2L8DaJCvSPtpo41PJKtOnYBQ8u/gZ3JxSi/sUttJsoSwT6yozlOGprIjYYgCvnMDz5x2CxJ2sHJX5oRV6SyDONtyAHiSkNRLbbtS3IyxBDUByZuJQwiOAPissERczQVhO1clPYj5AiLjPEMkHxS9O2SURUTmSTy9Jvv8F1wwfjpwM5WmDHyFqzfLyHrEUXEREka+PBwMn7bmQuVa3gxIKv5iKte28czNyFOvUbwe092ctFa8MW2wsGxfaKTZUdDFVRey6+PdkLsUKCGT/s2APP0aNI2bUAzYLZCGjpGFlbGxLryBuZVEukKUaeELQ2d5OqnYQiy4pAF5XtHWoVZNbtgrbduuOerz/Ha+3q4uL09vCJdeT25LKalRkZOOYQgR70aRN9IrSLH3BxssFfFbVzrZdkZG9FG5M71t6eGImc1WLDYlCOyYWIiMqRalaxRmRY9/YtREXTelqlMRo/pym+lLZMOISFi1ejfc9eyPppF+rXqxOt2Z9cUsu4M2wwsstiy4nQC/i8OHA0D77cHJyY8wauuawDvKI2XVxsU7E1Tx2PMasmzFmwGs7ew3FJWjpun/M5Xk+vhWZiWLahlzhKWUPPcTYTtehop3dD5HLiF2m3sxIRnQdEeMoQ/2Hz99HxyEupRNPwogb1kZCYCI/bjdwTJyITy0j2Va9SraqocRvxw+KF2L9rp6jhy8aW0guJq4KUBg3RXJxsnKJSffNXc/BOu1poeqZAX7VyBY47miHoj3ziS0QUV0Soyy585yoYCor6auQxJ2e6I7Q0ZCtGWLa9iLQ1yYf9GcsW5jEy1GWtv4LVgr+JQH+vfS00aR3p5VIi0L/4/DPUbtULKU6/eEPRiUREdF6RvVwKPGa0ev4VfNmjAdK7X3p6G/rHH3+EJu2uwEWJfmiPLiAiovOOSQT6cZcZDf89A1/3bIQOvfpEvrchOl8jG/plusssl68sLCwsLOdfiWV0pAOKLBHn1jhERETnDQY6EZFOMNCJiOKY7Kopi/zyIQY6EVGckkGenJwEm82GChUqMNCJiOKVfH5NxooVWLx4MebNm1e2QLc4k5CUlASL7Dtz1hQkiHWSkhKj40REdC7k814OHjiAPXv2IDMzs/SBbk2wY80zI6GktMeGPDuSEixQTGYkamEtipgf2agxGuCxEsbkzk1h6DJGGy/dyYCIiE7l8bhx/fXXY+TIkbj11ltLGegGA0JuLyY/+j+ED67ByCt6YMJb25AQ3I3/698eHTp0xC0Pvw+DFuBBPNynF7p07yamd8aLb72HWSt2ABmvo2uHIfhqTy7M8nYnIiIqM7cn8mUaUukSNRyG0WHDP/7RT4zUwctfL8OEGyuidlILHO37X6xalYHlk0fg2imfY1x6BUzeXRnLlyzFqtfuQGq/GzC0SSLQcCCWrZqNvvWS4OPzBYiIyk3pq8gi1OXXMQEBuFx++FfORpYY2/H6KPTp0wfWhjWQf/w4uva5HPjpA62NJ2XsWrRPDMHtD4rVImcTL58tQERUrkod6PJ204BXPl5Xgc2uQq2QoE0f/vgHmDdvPjbuOoClU27CgMe/xPwPP8Gs/96Lg988h+EfboNF3rBqjDzAXTWevF2ViIjOXakD3e8JocNfh4ihLIz9+y34OL8vPrqvNyb0boN7HnoIdw3ugvSR/0KntIvw9catWPvtcii2xnigbzp63nkZsHsWRo6ZjPWHXFCLfaMIERGdmxJPW/zk44/RqN3lqJv464/PNdstyMvajyN5BbAmp6BB7WQc/Hk3jp7wiFOEggpVa8Lqz8aBbBcUo4pqdeqjoiWEoBJG9t4ssZ4f1erWQoIa+RomIiI6e7I/SY7LjEZPTUfGgLZI69pDm176NnTB5/LCUbU66jdsiOoVLcjPdyOpSm00atwIjRo2QCWnGfaKNdFYjDdscBGcRj/cvgB8onafnFIbTZrWY5gTEZWzMgW6FAwEEBBFfku2rOQHg5FxWYKhEEIlxmPRLZbTpgUZ5kRE5azMgU5EROcXBjoRkU4w0ImIdKLUgS6/BTv2fBan3RKdWpzsn24p9qVIfxKDAkdi5DjtFhMUo1kbTnRata9tsjoStfGEYu/Bak+AzXzyG7kNJmvRe01KdESnCkpkW7KYjWJrsW0X25ZBLCOfb5OYYCvxSzYoatG6cl8Gk0Ubdtoi/fNjzI6E6HJOmNRfOA4iomJKFegyzBEKoneLFmjfrjX+8coK7WFcZqsDiYmJsFutcBqPYPpzX8Iswkc1W5EgpttEoP46A8w2G8rtXiMZ5oZsTPprP6S2ugTTlxXAFlyHAU2b4cb7PoElyYwPHr0JrVNb4q6XM5DgEMedkIRPp/4N/1m0Lxq0VoS2vo0WqW3Ro0tHtLr56UiYiqC2569Ez+at0Pnq4dh43IbEvA24rGsahj7+iRbqMsxN4c0YKvZ37ag34E20w2q1wWwSoe3ZiGtbpiItrTteXHYQicdXIC31Etzx0hJxgrTBarOIk40Ry6aNRVrbNPQZeD+yts9B27bp4jg6ofmNTzLUieiMShnogMsdQNNhz2L1mg1otvUpTJlXgO8+noQbb7oV/1uwG64Dm/Dq1HsxZsZXOLHtC9w+4mb8b9FPopasRrdyKhHmqg9zX5iBH/3lF+q+vHx0GjcTGzetxt4po3D/7S/iX9u3oaPlM3yxLBP1/nIvNmzcjNofTcNKgwUZr92NBQfNCBwpFCcXOyzGMNQW1+P7jesw58UH0MAeFodqEsFshi/HjcnLN+GLCX3x7szZmDzhJcxYth6zJwxHvssHW4Ibz/a/D/eK/Y1L3Y2XP9iMdbP/h/VHQ/DnH0Gd7pOwfv0S3NOzEm4b+xYWbNyCmXdfgVD+Drz8whfwmYzYPMeNd9etx7xPnkKdZldh3bq1mPfao2hsCxa7c4CI6KTSN7mIEvTkQ8QKhj00Fgdmf4MmXXqjc9OaeOq5qTBWb4w2XW/Ao7dVxT1D3kST7s0w854H8KOi4mRjRklGQxA716xDdshU+gM6k7AIzoR6uLRFdRxZ/h6Uq6+E/Wh9yIcUtKreAoeOutEl7RIU7J6LzNRBqPTJKPxzdX2kVwljxcYf8P3Kz/DW7M9wINcv1vDimSeewcix/8TG+e9g1vuf4HC13uhY0Y+FX+9Eu8tt+PatRbilextc/rfpUJNE7Vnsv3rdevjq9Y+xJtOLcOAE9n2/EQfyA3BWqIY98+9HWq+B+HTJfGxZuAT9Ol+Cof/8GKrTg+/W7IAHVrS83Ixhac3Q7/aXEBABL4/j2ceexLDR98Lrdsl3SURUQpny02xzaOFcsHcf7NUP4qGxb6PCJaloJmI+R1FgtlZBdSWII9VroF6di/HwE2NRIeiXT3I5gzA8AQfGznodHW0F8JdT7dNoMiH/4HJMmXEET4y+DqovF/IaIS+YB2eijPZMPDF+EUZP/BuqXjIcd3Wvgpx8F4LBSB96vz8ARbXjWMZL2FDpBlxT3wi3x6f1oTdbTVj1xtPYW60fbuhWD82vnIilS77DNccWYHGuEYECG26c+QQ6JoWx+6fdsCXXwrAp03FNAxP8ppb4cNv3+GJ8XyxYsBq9/j4DSzO2IHXr+1geTMfrb98Le34Buj3wH3y3fhu6ZX2LDV4Tcla/hpUJQzGouRneAKvoRHS6Uga6AarJgE+fvRc33XwDxj21Dnc/fAu8eRux+NsvsSUrG0FbHdTKeh3DX96GPlW24e03PsHspRtgEkF/ZgoSLLm4rkJ1fJSfCEt5VNHF1YDlxDqk1+qGrY4DuOfBmWh3l4LbL70Bk746jC7pyRhQqR6+MRfi6XF3YrstDdffcD2u7tkazRs3QKsugzDy+sFoUKkQo+96HbeOHgxvYT5a9hqGm/96LRLXP4KONz2LLetn4sFXjyO1+XsYOnAAvjalo21SAEGDgsJd6/H6R7OQldACN/ZpiHtbXoRnN4UQXP9vtOl+PW5+fDZ6X/tPOFxPYfhf+mFTjcvRxTAHNZOHIt8cwsSRAzB8YDcscF6Gzs4g/nn3fzHy7mEIFbrZ4kJEZyRbUIry4Wye5aIoBrjyc+HxA4mVq8KmhOB1HUduYQiOhCSYVROUUCGO5xtQpaIZx44cR8BgRoVkp9jTmaNIftgq7yBVRK36l5YpLYN4W76ATwSxG0ER8BUrVUT+kYMwJVSBwxr5pg+PmCevCJwJyVDFJUc4FBRXEYrWji+PQn5m4PH6YLfZRM1dNjJJYmIoIN6/Fz5RYzdYnKiSYMbhozlwVq4Mi7gSCYQNMAS9OHaiABWqpcAKcRxe8QszqWLbYe3xwrAloIL8cNPvweHsfCRXrQxz0Ce2G4JqVhF0F+BEoQ9JVcQ2w34UuE89DiK6UP3Ss1xKHeiSfMa5FA6HtPw1iBqpDD+5Ke1RAGJcEcElBxVtRnT6r5ChLr/BujzFjlOS+5cnI3nAIVEMYp52yNq8k2+2xC9EOPNxGSLbkuT2xIt8n7HfR0RkmZO/o9h2YuvGfldivNi6seViv9PT1yeiC125PpxLBqAssXyRoROZFpsQHRYLlJj+K36PsIodpyxiD5Hh6H7CJeaddOpRnPm4Yu8rur3o+yy5aMlpJ7dzyu/klHVjy8V+p6evT0R0ZmUKdCIiOv/8foFuMML6mzcU/VEUWCzmoiYWg1GFWTaalyCX+aW+8qdTzWYYZZsIEdF5ooyBbtRuQ3ecKbANJiQkJcLm24V3Pt4M5U8PdRHUyMaH7y+CX4S6/MKN/L1r8NWKvcVCXSwTPozZHyxH6CxCXVVNWPXNHPyc64NRMcBssWivRER/pjIEugzzXPSpXRPPLN0Lh9UGh10+h8QAm3z+iHEPbrt5BsyVC/DVwj1IsDq0xwPIZ5gkRJ9HohpNcCY4kZiUcPJmIzE/MVEsFx0tD/LDxwSxD6vTjW/mroVdHGuC0w7PoU1Y8t0h2OxO2ERN2y6XSfJjwdfrEbbai56bIpd32GXAK7A7bDCpkeeu2O0ObFqyEPsLZQ+ZRCx8/x387DJF1ktMgFO8JjrO9JwbIqLfT6kDXTFbcCLjIyT2HorvVy+DKfw9HnnyGziSFLz69IvYsHUDFn30KIaMegnBrEUYdFUb9L9/FhLVAxjTrxeaNxqMfdZsPDH2EQzqcz32JzpF7VaFo2ApBv1lCryW8gl1GeYuVxj33DAIYx/8FEZLPu4e0Q59bvgHDgQrIqVmMt598O94ecV2zBp3PTq1G4gVJ0Ko6FqBXpe0RZtOfTDrq3cx+T+rRUi7MfVf/8XxrAwMvKoLOlz9T4Rr1kTl0D6MvuFmbPI68WPGLNzxlz74y9jHMOn67rhx2rdIYKgT0R+o1IFuUf2Y/VkWJs+4HwkZG3Ew6ENmZjbkTfv7du1GlWbtcPnwxzH7hdHICyXjoznfodaBzXj+uadQ7//exA9L++Ge617Clp/24emv30Xd/AIEwyEEzDVx1dVtYQoFons6RwYDAoU52Gm8FNOeHInQ/h/xwKw1uD3VgBU/bMc7Y0chv9sDGFhpJb71D8CKtQvRv6EJY0c8jskb1+GzKdfi+K5d2J2VLy8+cDDrCD6f+RwCtUZh5Yf3wpC9HqNveQnXTXsB1cT7271tO+oMeRqdT2xGp4dfgm/1IhwxqWW5BCIiKpPS5Y1BLO5xY/7iV3FT3xuxIWueqMVmQvHJzdiRW5CDUMiP/P3HxHgAVeunidc8JNkTEIYZDocqn1ELpaAAjnodUUnxwyd748mue4oDdWpXhkH2uxaTzpnYZlCxomnTxkAwB0qNdqgmJ1ucsBgc6DuoPRZsWASvy4oatVLEMkdxKOcofvJWQl15fxOMMBlD8BXIjVlxJPsQLp34FmY9WBmXVb4auyt2Qo+eYSxYvRU2i4qwLRHVK6ow12iMlIQwKlr4REQi+mOVKtANIuZO5AdQ86qXsGLR11j89bPIXJKPNs7ZaN+jC9afSIQxoTkuq7sYl974b1SoYBdrhaGaTeg/YhiWThyE5i1fxH1v3oKKslYejEa3YoLVtQEPPfg2vKql3Gq1shOK3SJ+BA1IdJohH7WlWmxQjQqq9RyF2xMX4vmFJhjWPYLeA8bghK0x3n38SvTt0RdDR09Dfv1r0ezEZHTtcw32oQZ2f/ok+vV/AEm3DkVLhDDgjgdgen883toGJDvtUMWBW2xWcVIDHInivQfL6eRERHQWZHN1UeaczZ2i8o5F+SFoQaEXitEiho0IK7EnKYZQkFcAszMRZrHlUMiD/AIfHCLsvJ6AqKFbtaU8hS6oVhMKC4o9l0R+aUSCivzcwl94iFfpyXZ0+Sz2Qk8ITodZ258qrhBMskdKyCtq8CKEDfKRA2pRu33Wspdwz3PzEXZVwK3/fQZX1HRG54TgFZcTFvkFGOEg/OJk5Pd6YbY7YDKIcb+4ygh4YRAnJL/HC6tN7s/FQCeicleut/7rmXbLvQh8o1HU3EN++AIX6C+CiM5b5Xrrv55pz04JhRCQD99imBNRHClVDd0mvybOeOodlkREVN48Hg/8fr/WzH2qc25ykWH+6quvYt++fXxQFBHROfitp6d6vV4MHjwYbdu2hcvlOi3UzznQ7XY7nnnmGTRr1gxNmzZFIFBO/cWJiC4QMpjlU1RlYFsslhLBHgtt+dhvOb927draMj6f7/cJ9GnTpqFHjx5ITU2FX34Vm2qE3+c/uYFTGZTfXoboAif/aFVVLfojl5fZcpj0SQa4bE6xWiO9/mKKB7qsMMsgl7lbmkCXDeITtCFh2LXXolLNhki2nHwOd4z8H27lypWoU6cOqlatBiWUh5UrdqFGgxpAIASj3EM4hGAwrLWzyy6DxuAJZKz8CTXrV0dQhrrYKAsLy8liNpvx+eef480339SufCdPnqz9sTdq1Ej7oz7TOizxXeS3jsmQlsEdmyZr7VLkOxDC2r+9HJb/f8jlTw102fPa4zfiPxlrcXPTFKTUvSgyXftZSgbFBMW9B09PnIY1mccB7xGsW7kamcfckI8v+XHrOqzZmiWW2YV/P/Y81vx8GCYZ+ERUgvzDleHdv39/3HnnndprgwYN+FWDFxhZYS4PZUtZgwJPQS7yjv2EdTsy8NrYmVj9w1o8+cQrmD9rOqbM+hzvTH4Wa/LyUHB0J5au3SkuEdg7huhUMrgbNmyITp06IU/8vXTu3Bn16tVjoF9AZLOKbP2QTTDFvzazLMq0tvwy5aRqddCs03UYf3VjvDL/a2Qsy0C2qK3b2jSGc28Bml52Bdpe1BAXdx6Oh67rrbULEtHpYuEdu6xmmF84ZIh/+OGHmDt3rtb0dq7KeDqQD9OywrQ9A19kFaBL04a4ddwUPPn8XVBPuHDNbf2x870XsOqYBcoPy/Dxtj1sciEiKsZkMmHLli3aZyb9+vVDtWrVkJmZqZ3YT20zP1tlS9lwEC7Uwfip12DT1wWY8OJd2PjFm3jv82WoklIX25YtQ5PRD6F79foYM/lybF++VeyJTS5ERDHy85PGjRtj2LBhSE9PR+vWrVG3bt2iD0rLoszV5qCvEJVaDMX4Ed3gqN0e906YiImjhyClTjrGTJyIUVenIy8vFzXajsD9I3rBxyYXIqISZE8W2eMl1qvlXJ1TO0jQ74HL4xOvPrgKC1Ho8ogDiwzL6UXLeCPDRER0uliNvKw18xg2bBP9yeTNRFLsw9DYOFFpMdCJ/kQyvD/44AOMHTsWzZs3x5gxY/Dpp58y1KlMGOhEfyLZdtq+fXvtQUxTp07FkCFDkJaWxm6+VCYMdKI/kWxmqVmzJlq1aqV1VZOv1atXL5cPyOjCw0An+pPJUI/1ciiv3g50YWKgExHpBAOdiEgnGOhERDrBQCci0gkGOhGRTjDQiYh0goFORKQTDHQiIp1goBMR6QQDnYhIJxjoREQ6wUAnItIJBjoRkU4w0ImIdIKBTkSkEwx0IiKdYKATEekEA52ISCcY6EREOsFAJyLSCQY6EZFOMNCJiHSCgU5EpBMMdCIinWCgExHpBAOdiEgnGOhERDrBQCci0gkGOhGRTjDQiYh0goFORKQTDHQiIp1goBMR6QQDnYhIJxjoREQ6wUAnItIJBjoRkU4w0ImIdIKBTkSkEwx0IiKdYKATEekEA52ISCcY6EREOsFAJyLSCQY6EZFOMNCJiHSCgU5EpBMMdCIinWCgExHpBAOdiEgnGOhERDrBQCci0gkGOhGRTjDQiYh0goFORKQTDHQiIp1goBMR6QQDnYhIJxjoREQ6wUAnItIJBjoRkU4w0ImIdIKBTkSkEwx0IiKdYKATEekEA52ISCcY6EREOsFAJyLSCQY6EZFOMNCJiHSCgU5EpBMMdCIinWCgExHpBAOdiEgnGOhERDrBQCci0gkGOhGRTjDQiYh0goFORKQTDHQiIp1goBMR6QQDnYhIJxjoREQ6wUAnItIJBjoRkU4w0ImIdIKBTkSkEwx0IiKdYKATEekEA52ISCcY6EREOsFAJyLSCQY6EZFOMNCJiHSCgU5EpBMMdCIinWCgExHpBAOdiEgnGOhERDrBQCci0gkGOhGRTjDQiYh0goFORKQTDHQiIp1goBMR6QQDnYhIJxjoREQ6wUAnItIJBjoRkU4w0ImIdIKBTkSkEwx0IiKdUB57bCKemDwZ1147FPkF+dHJREQUb5SHHnoY991/P/5+xz1wFRZGJxMRUbxRtuzNw67DXvyYlQ1FMUQnExFRvFFMRgOMIsgZ5kRE8U1RjEYoRpMciE4iIqJ4pGTv+xHZ+3Yh9/A+hjoRURxT9v+8A/szt+HooUwYFPZiJCKKV8rgwUPQr/8AXHXV1fB6vdHJREQUb4qq5AxzIqL4xjYWIiKdYKATEekEA52ISCcY6EREOsFAJyLSCQY6EZFOMNCJiHSCgU5EpBMMdCIinWCgExHpBAOdiEgnGOhERDrBQCci0gkGOhGRTjDQiYh0goFORKQTDHQiIp1goBMR6URRoJssZvHTEBkhIqK4oxyPDqx98zYR6s7oGBERxRvFFx24+JonEfQVRseIiCjeFDW5WBxOhMOh6BgREcUbJTk6YLLaokNERBSPlO7t7oJsdlk6dRRUG9vQiYjilbJ6zX8g+7d0G/cC/O6CyFQiIoo7RW3ofjc/ECUiimfFbixiH3QionhWFOiqVQ4y1ImI4lXRjUUZM28Roc4PRYmI4lXRjUXpI2Yi4OWHokRE8aqoycVgNCAcDkfHiIgo3ihJ0QHVao8OERFRPFIubTeKNxYREemAsnLNC7yxiIhIB3hjERGRTvDGIiIinSh2Y5H8yVAnIopXSnZ0YPFzfxWhnhAdIyKieKP4owPd7voAfk9+dIyIiOJNUZNL0OcSP3ljERFRvDp5Y5HNER0iIqJ4pPRK541FRER6oKxYyxuLiIj0gDcWERHpBG8sIiLSCSXWr0W1hcTPYvlORERxpegbixZNvYkfihIRxbGiG4t6jvsYfndedIyIiOKNEms5Zw8XIqL4VtRobhDJbuAHo0REcUu5qfd4yGaXNa9OgIlfQ0dEFLeUr76dAlUMdLpjCvwe9kUnIopXJ28s8siHcxERUbzijUVERDpR7MYi2ZLOG4uIiOJV0TcWLZp6K28sIiKKY0ogOtBz3GzeWEREFMeUWCNLwMMbi4iI4pmSGx2QXRYNBrahExHFK+XhwRMhm122fDQdJrM1MpWIiOKO8t6Hj8AkBtqOfBR+L/uiExHFq6I2lgDDnIgorvHGIiIinVDk9xRJqs0jfvJDUSKieFXsG4tGiVB3RMeIiCjeFLux6D343fnRMSIiijeK7OEiBbx8dC4RUTxTfs6N9G5x5xyBQTFqw0REFH+Ul8e+hKAY+HHBBzCq5shUIiKKO8rMV8dC1stTh49DwOuOTCUiorhT7MYihjkRUTxjx3MiIp1goBMR6QQDnYhIJxjoREQ6wUAnItIJBjoRkU4w0ImIdIKBTkSkEwx0IiKdYKATEekEA52ISCcY6EREOsFAJyLSCQY6EZFOMNCJiHSCgU5EpBMMdCIinWCgExHpRLFAZ7YTEcUzJRAdUG3HxU/5ddFERBSPlJzowKKpj4hQt0fHiIgo3ijB6EDPca/B786PjhERUbxRLNGBoN8bHSIionikfLlkszZweOsqKCZVGyYiovij5G36SRtwZR+CwcCeLkRE8Uq58+4B2kD97gPZ7EJEFMeKquRBvy86RERE8YhtLEREOsFAJyL6kyiKApPJBFVVYTQatXIuGOhERH8CGeZHjx7F9u3bsXPnTuzevVsbNxgMWikLBjoR0Z9AhrYM9U8//RRz587F5s2b4ff7o3PLhoFORPQnCAaDqFy5MkaPHo20tDRcccUVSElJQTgc1kpZMNCJiP5gst1ctpfL4LZYLOjQoYP2KsfL2twiMdCJiP5AMrRloBdvK5fjsvml+LSyKFOgxy4JWFhYWFhKVyRZO5cBfmopPr0sDGIH2h4WLVqE7du3oVu/m1A30Y9gSJtfxG63Y9q0aejZsydSU1O1xvvYwf2ScznTEBHFo1/LRZmJPp8PgUDgrPJR5q5c/tRljSLvc1xmNHpqOjIGtEVa1x7a9FIF+jPPPIP27dvj4osv1gL91w5IblbO/63QJyLSk1/Kxdh0q9Wqvf4WmbGlDfQy1evlxovvIHaJEJseKwxzIrpQxHIvNhxrJ5evNpsNTqdTu4Ho91TqJpcuXbqgZcuWRTV0GeRut1u7hJAHHAtxhjkRXahkNh45ckTrhhgKhYqyUta2z/Zu0D+shh4jdyIP7o033kB+fn6JhnwGOhFdqGRNfMaMGcjNzS2Ri7+3c9qT7Bg/adIkrWZevHZORHQhi9XIly9froX6qTXs38s5BbpsGxo4cCAqVKigHTADnYgIWjOLbG5p3bo1HA7HH5aNZQ50eYDyoGWPF1lkGzoREUHLQ/lZY/Xq1bWa+nkb6PLAYgcnX2XDfd26dZGUlKQF/KnzWVhYWC7E0rFjx6JM/KOUqpfL1KlT0b17d7Rq1UoLciIi+nWyhh5rU/d4PL9rL5digb5UBPqW3wz0rl27olmzZr/ZxBLrqkNEpHcyRs+mN4vMRbPZHB37dbLTiWx/L1Wge8WRyM0vX/UOvt+QLwJ9xBkDXW5Qflor24S8Xn6ZNBHR70WeIOTTF2UtXZazDvRDYs1qYuCxIe1Q46pR6Nh78BkDXe5AXirIMwwREf3+ZO5KZxvoxnETJkxwyoE6rXBwXybqNklFskU25Gvzi8gNMsyJiP5Yp4a5pIhJHr8R/8lYi5ubpiCl7kWR6Q7tBQidRbdDuWEWFhYWlj+ulIYy+blPtIFd89+FUT27p4AREdH5R7myVX1tILl2Y4RDQW2YiIjij9K1RyttoHKjVISC7FtORBSvijpOhoK8dZ+IKJ79dk94IiKKCyVu/d+zYzt69r8J9ZL9CLM5nYjovGQwAsfzzag5ZTqWD0g7/db/5YsWYub3O1H/L7fB5/ZoM4mI6PyU7LTivheewvo+6WjTvac2rSjQt23dgjZX9kPlOrXlAwe0mUREdJ5SFLiysrD8y8/Q7OJLtElFgU5ERPGNH4oSEekEA52ISBeA/weF9EfL3CWLoAAAAABJRU5ErkJggg==;" vertex="1" parent="1">
          <mxGeometry x="700" y="560" width="320" height="280.43" as="geometry" />
        </mxCell>
        <mxCell id="6MqGrB4b9lXM-VsAvl01-26" value="" style="shape=image;verticalLabelPosition=bottom;labelBackgroundColor=default;verticalAlign=top;aspect=fixed;imageAspect=0;image=data:image/png,iVBORw0KGgoAAAANSUhEUgAAAXwAAAARCAYAAADe+hf6AAAAAXNSR0IArs4c6QAAAARnQU1BAACxjwv8YQUAAAAJcEhZcwAADsMAAA7DAcdvqGQAAA/LSURBVHhe7VsLWJVV1n4BDyAIihoJJHm/UKIomqFlWmpmmjWaWumMmZnNaGmhjZn6GDl/aqlphulkpX94IW+T2uRgpnkbU7uLF7wriIgIgtxk/e8+ex/PAQ5dnPnT9HufZ51vr7Uv395r72/ttfb3HQ8AQrJgwYIFC9c5PL5P7CpHN7WCf3EWxEPZ/5+HR1GR/So2m/1qwYIFCxauDRRm56HdpBHw3xoF2ErbdI89ax+Whj0/txv8X4yaNYHiYiDrV9SxYMGCBQu/DXauB1I6A56lDb6n+in087MzvxR7v/wSu5OTceTtt3GxZ08jtWDBggUL1wS87Ka9HOwe/q39diAo+5QR/Tyy+vTBARr7unFxWBEdjeIaNdB79Gjc9MMPpoSFXwWv6oyYznI23BypzU4G2v4DiI41Ajeo9SSQOgeo7gucM7L/FHsKgE1DgOc+NALiljZArwhgzvtAiZFdCRbmAd5/AvouNQKD3kM5FnNM6FMZeG9qmfFUA2IHA/mXgNwfmf+ZkRs8+TwYqlKfPsAOtr3NCxj9ByCPYykuYp+pX+9Kmjb8LxBKZ6UedQajdxvT3yxn3iHNt30IaE3ZrCWaV+jUH7itKjA3np6SkfmEAUP7At+tBT7nfLlFd0ASeM9AzpURORDcDhhwB90vZkxlmQrBdXKM62T8zcD76UZGVKa8Tz8gUD3kHEtJPudons6zcGNidxKw/95yHj6Uwc8MDBXhcvyldKFlS9mZliZHly6VldOmSXxioiybP19WzpwpK2fMkIzoaMkIDZXcGjXc1reoLAWKHe7yXtss8ukr7vMcVKMvKx8VCXCTd6W0nu29+ofSsg6xIqd2ivi4yK6EMi+JhNvKy09xGCUZvKaK5DN99t8iDX10XuPOIieVkrJ0vsK/3zd1vUUWJ1NQIpKaJpKWzjTLdWJ/Cy5QxoaL7TXYBuvmnRcZ2kzkWyU4x/zTIumsc6FQZMaDps3qIt+TV4jxNzLSP9iuwmN1nbIBs7Rs1XCnrCz1ncl5nFheHsz7KZxjHxSWjitfxkE3tWTfj5WXh0XrujlUUKrRzY8Lypf7b9LUz0SmD3CfZ9HVp91JfCZ4XepRitz7/T8Hmw0SFITchg1ho1casXs3ohMSkB4cjAtVq2L5Sy9h57PP4nxMDA4vcfGOLFQA/RL8ipFNj/m3wBf0uENbA3SYrxi+9HQ9v6Cn6mbMajX2rMl7hLBcFTq0vFefljpvNb35Qq4lD3r5Kj+8Pb3vPwJ/ZcRRW0ULjYEqbCCkFqOEYKAdPd6v2F8fthMSSg98GbDvDSCMdf2Uh/4dPWK22zeI+fSYuXZRxRt4/hN9vzr0usMPAlO+YpTzmJYpFF0ENm4C3phmBMT0YcAn+xhFMPKoCE8MpFf+umFcMCkO+PYdIIh9sDFK6PMqULOCI9YYRlxfzTaMC0p4X7UE6jDSCOH4bHcDTamTFjr7/wX+N1GPJm3hd4MrMvj+O3agtY8PmkZF4YEXXsBdkycjuUMH1KesTfv2uDM6GsHDhyN14UJ4paTgzDA+EBaciOql9+F3afjUtRuNWkEmMPI95x49NlKXZRIlxTr9Fo2UHABu45MWOdZZdtFQZuYCdntDK7b+pDNP0bROlN+q00HmyKRKZ83f7k8D2bN0efUgF5bQgJkzi8+zgYwNwKApzN+rZarc2/NMHfavTXPggKm/Y5Yu4w4vPQ8krTaMGziOijzq6uuRDC64bkAj3qMLDZ4Dx7cAL7KdYZO44dEwK0TQ4Dmw9VPKTVohkIPy5lhdQduNxyeyjeE09CO5eZAa0PAqPP0KjTjbXvAW0HUE9aXFsLGNPS+z7iMAI2ZEjCfPuThAXVWq4HHyqQ88yI0qUd3QFWz0bupt2WLNFpsjrvvVTuQGY/sASzYbxg0cumt6m76m6QuajzbzZOYqkhueV0fNT1th5Pu5wXEdOspNe9BUrgEcNjJFAxtx/U6mzribPP2hlj3O9C1POcso6sIN2MI1hwoNfgk999UzZmDNhAlYN24cMlq1Qkndunh3+XJ7fl5gIP6+YgV2Paa9ny7jx6PJxo0oPnQIVf/5TzQPC0Pz8HCEjx2LmvHxKAkIsJezQORf0Ncjb9MQUS/rv6GxqM6HP4sG2QPoRS/vtXVAZZZRn8Dmk4ZwM+h1iIawIR9kPqzfvEZvOJzGkAbo7/RCUUl7edOTuCHspqdHA+PrS6PFNvOVS26Mt8MLLc7nBpHOOrQSa1YBcfewbd77SXquTX2Yx3L55OfuonGbSa+Tm8Yh1imkAXagKXlVZ+pOGnl6vWPb0Gh0oWf5DNDJGM5SYH/ujWJ/KzhfVuf1a2iQ8jmQM+u5kdGQfsQNLoReuMpUxsoV6UdoxGmQznMzGs91mUQvWxmb09RBGOU/B6WSLtws/zoGiKVRHPcCNxZ6rkqXfWtzXGwzeSH5OkBbkoInHxlP6mwwDf3LicC8AcDEN1mFYytzXHoZ4dzg0xZR54a/DLal9qCc85pVUH2q7qXTpUBDW5s6WLvN8C4QtTnzmsnKuTncoGOBUdzElcGvcR+w8znqnV5/+zuBCRzTWval2hl7VRSSt3Htfcb1cmABNwNumlHcAF+YS92yH4s4twU07NXZ17q9gQ+o4zRu/B/Q+VhMnfkwKqIacJDRy0N0ItrFAKM5v0u4eXFfsXCNoaIz/D0PPyzTtmyRE23bXpYVNWkib27YIGcbNpQFCQny9aBBpeoU33xzKZ7LUDJiY+Vc165yeN06u+zUuHEinp6lyt1wdPsDInnfu8gC9LnrZb4FmVP6TH7Map136Ygz/9nlzJ7n5AMeYYGDIlVvEmExedDPmbcoVeRv7ZkOsTcjAUb3vneJFJ8WqWMTmbpDJCdF5JNVIvVNveXJ+tz7JGWOtjrHiRRs1mmFuoE6/cBUka/nmnJBImnnRB7lGBz1HFS9scgFjqus3EGq72/1Exm1mInjIh5G3ngAefb1Vu/S5R+bLpL+JcdieO9wkb6Pioxfpnon0p59cZQd+YnIoXecvCJ1v4Fl2lRU7yFdf/Na6mGpTn84UOetyRWZey/T1LHCGc6Fks9nY6v/4mzDleZsExnbxU1eVZFjbGNEpFOm3l08F+ZSxtA9bHuH451FGapFXeew3p/biSxhP45/5MzrN0f1sjTy93CMHZi45Cyn3hXN6m34pqqQSIMGut0YU0YR1S1jorlmtou8N0TLOo6nsCzSuZZu8Of8atKvPcNvQe+96+TJ2NepE97YuhUp7dqhUm4uvEmbhg5FyIkTiFyovB8nvE6fRomfH75JT8cJRgaFDRogNS4OnufPo0id+TNKSBsyBOkjRuDYlCk4w7yTEyfi8Mcf4/ikSTj4r3/hUuXK2JecjDRGDN99/TVEffN/PUJ9SeJAua9zlLumpo0XG8ttXQJsoNe7aao9F1UZFWSc1GmFXHNUYKNnSkcTmS5n+kUOt5J5Cjkm7ldRhkr6s/3YO4Boemtp9PgP8qYD67Eel8b7cWyTof3f+us6qj+uCDTnHD5sQ33hohk6rhxPibmPKzpOpMf8lmHcQDXxxWLgzX6MLOippq3V8n3b+RMMdGN04Io/DgNSmMdAw47CY9qznNQH+Jb8iIe1/Kfg5+b4pD893HRGSXsYQZxhRLOCXu6AV3SeGpYnvVoVTj0yklGWOk4jKvLu0QDoTu9cvYMoB7aRwnE2MUcwaoxqWWwpe/RDDKTu1pr5Lwu1flRQsHILIxNGIpmcr3WMjhTCGAUms54q4yBf6vGYmkyXx199ueTrOPJSnVDumiImXf9fqZaRMineFKooUCH0FuAUowDXe3hwLClu1oCFq4oKDf6ewYMRlJqKFgkJ8CksxInmze0TnVurFnq9+CL8UlIwKykJGfVoHFxRqRLqDBqE8z16oJhGXlgXXl4oCg6G/65dqJSVhaDERPuRkS0zE2E0+DncCEKmT4f30aO4GBGB/LAw1OIG4Ld9O/LuY0h63cE8FBVCTYuZGmVIz+4AOkcCTV8EXr4LiI8Hmk2gwQkFIshvV5/y5XITSAWSDtHoreKOTUPTiIakJx/GAvXUHtfGasYTQB3mvc4QXP1TuohP8MKVNPy0kGMnAbuLuKHcqh/ygxsZxrcERn0E9KMsk/eoqN+X5T8xtlGdgNlssyKoapXNm8BnuN4KugHLBpM5ALy6AXiHxv1xbk71ueam0YB2oWF6hjppN57jnkL9RFAvTYFe4wD1CmTRentTdqg+le2X2gvrtwYaNwOiaARbRQMBHPjIe9luB24YzwJDSf2ps0LqjNkoYCVHMytmANvM0Yi79hXuiKEh3Q98b/hSoK4XLAOGvQm05qYwQX0Cuxf4IVNnu2JQDWAe23EL3lctF8d7hlbU3f2vAU9UA97gPDeJpd6f5jipm0Z8njYvB2q6vuBQUP03SXuC6yItjZs+N75E6roZ19GjkzkeZsXvAlI57rZce7dzXSxlv0MHAh+9xPYb8z730DnhPKvTMQvXFio60jkWEyP7OnSQ/aTD5liH3rscptxRhl6/HG9ROnRXxzpne/eWrK5dpTggQLI7d5biKlUks3t3odGXc/ffL9kdO8rFevWkkKTqXKxfXzL695fzd99t57NYRl0vREaWOya6LqiFOjI47uS9gnQUfLlMFJlMkWoMwyYzdN74qpbb2uhyE7uJ9H9HpxXiE/lzWMRflaG+1FGFHbzHutNso5Ou32OCkRNz1aeEvEcjb5Gh72mZwl7zOd9G1nu9n063Gq7zPviYkf5WLVNoVVunH40XSUnQaYSJZBewfxyDnXdQQ5bZL1LXVVaG1BePfwpw8vV76vu8cp/mH5mteTvSRZqFaLlPY4awF43c4M7bne0oGrNeJJXjdJXtNWVd8fka/qRSjy7l4CWSdEbk3f4iq7Ophx4ueYYWpYl8Nqq8PHaDyHzOd1n5ZWLbCw/oeyvUdTmGclAA62d8Wl7uoFta67oRLrLucVrWtaZIbfbXFWOoG7/2Ou0oP3OPyIdPGd585hmqPom1iWzL07xCT/3MSpVwIyD6NhO5ubPz01eFmZw7R9sW/fZUwZHOFf3xysLvCJc4/cPp6c/50QiuEnrEMaqgNxgxwAhuEFyg/tuG0MN3fDJzBXh9E6Ou+Yw6VARgwcIvQAV/vPIsvlQCyf5v/T3TwlXHfeP1Hp+TA+Txuiv+6ht7hdBQYOr/GOZGQSMgae5/ZuwVfPl8zraMvYVfgQr+E+KRtf0p8bs4HLaLGeRK7wYWfme4VAjUjgIig42A2LCKXqa//sTuauKCcioqA1UcL3dvAJQUAOfygGrqu/cKX5f9NIQPbnYW4MM2fM2LdwsWfgqFXDPt6WysY0TtXdqme0gCxP7Cx7L11wfUi0j1LbcD6oOLq2zrLViw8BtD2YAyxh4A/g+MavwwSRNUCwAAAABJRU5ErkJggg==;" vertex="1" parent="1">
          <mxGeometry x="430" y="520" width="380" height="17" as="geometry" />
        </mxCell>
      </root>
    </mxGraphModel>
  </diagram>
</mxfile>
